<svg id="Layer_1" data-name="Layer 1" xmlns="http://www.w3.org/2000/svg" viewBox="0 0 380 380"><defs><style>.cls-1{fill:#fefefe;}.cls-2{fill:#7177a4;}</style></defs><path class="cls-1" d="M379.9,190q0,93,.1,185.92c0,3.41-.67,4.08-4.08,4.08Q190,379.84,4.08,380C.67,380,0,379.33,0,375.92Q.17,190,0,4.08C0,.67.67,0,4.08,0Q190,.17,375.92,0c3.41,0,4.09.67,4.08,4.08Q379.81,97,379.9,190Z"/><path class="cls-2" d="M92.5,261.18c2.14.11,4.45.77,6.41.22,4.57-1.3,7.64-6.6,13.5-4.94.78.22,2.06-2,3.33-2.72,1.68-.91,2.9-3.33,5.42-2,3,5.18,3.94-1.14,6-1,1.26-.75,2.13-2,3.7-3.19-1.61,1.1-2.34,2.36-3.55,3.08a20.57,20.57,0,0,1-6.26,1.21c.9-2.95,2.22-5.82-.76-8.56-1-.93-1-2.51.49-3.73a26.16,26.16,0,0,0,3.19-3.66,4.47,4.47,0,0,1,1.73-2.56,3.07,3.07,0,0,1,2.31-.82c.61.19,1.36.37,1.68-.23.15-.29-1-.14-1.09-.8-.36-1.21.24-2.17,1.23-4-2.13,1.68-3.29,3.33-5.15,3.86-3.16.52-3.92,5.08-7.69,4.55a3.16,3.16,0,0,1-2-3c1.08-2.84,3.55-4.46,5.63-6.42a18,18,0,0,0,3-2.32,15.15,15.15,0,0,0,4.23-5.51,5.56,5.56,0,0,1,1.09-.78c4.93-3,8.25-7.71,12.42-11.51,3.57-2.86,4.84-7.22,7.08-10.93a5.67,5.67,0,0,1,.09-1.23,1.92,1.92,0,0,1,1.38-1.06c2.26-1.47,4.22-1,6.83-.18,3.28,1.07,7.05,4,10.71.4,1.51,3.73,4.6,3.16,11.12-2.24.2,2.4-1.81,3.07-2.74,4.38s-2.76,1.9-2.81,4.23c3.11-.17,4.07-3,6-4.45s2.86-4.59,6.15-1.31c.85.85,4.05-1.92,6.55-2,1.08,0,2.06-1.51,3.2-.85,6.29,3.63,5.91-1.5,6.75-5.06a1.67,1.67,0,0,1,1.08-.88c2.18-.43,4.39.07,6.45-1.76,3.35-3,6.45.35,9.57,1.31,1.13.35.4,1.3-.16,1.9-.88.94-2.13,1.66-1.83,3.26a2.32,2.32,0,0,1,0,2.27c-.15.42-.1.67,0,.58a3,3,0,0,1,.82-.51,2.67,2.67,0,0,1,3,.81l-9,10,.9.86,17-18.1,1.12,1a107.54,107.54,0,0,1-9.91,13.53c3,0,4.06-2,5.31-4.06.5-.8,1.17-2.42,2.55-1.66,2,1.1-.92,1.94-.3,3.3,2.66-.56,3.55-3.58,6.3-4.69-.39,2.81-3.15,3.56-3.9,5.64.63,1.48-.66,2-1.41,2.71s-2.39.74-1.74,2.44c1.12,1.92-2.9,2.79-1.37,3.88,2.62,1.85,3.45-1.58,4.69-2.82a76.29,76.29,0,0,1,16.13-13c-2.66,5-8.05,7.35-8.22,12.88l.3.58-.12.64a6,6,0,0,1-.67,1.12c-.13.17-.28.33-.41.51-.25.35-.52.69-.78,1-.74,1.06-1.24,2.07.48,2.71a6.49,6.49,0,0,1,1.1,1.25,1.39,1.39,0,0,0,1.39.21l.51-.05c2.57-.62,2.6-4.52,5.72-4.45.09.32.33.7.23.92-2.94,6.28,1.16,4.08,4,3.36a1.53,1.53,0,0,1-.3,1.83,7.21,7.21,0,0,0-1.87,4c-.26,1.06-.38,2.14-.63,3.21-1.59,2.77-2.54,6.09-6.12,7.17-.66,1.19-.44,2.64-1.06,3.79l-.54.42a5,5,0,0,0,.61-.48c.49-.7.94-1.4,1.92-.79.08,2.23-1.74,3.63-2,6.12,5.79-8.13,15.59-10.43,22.93-16.88-.09,2.38-4.06,4.06-.9,6.49.37-.25.74-.51,1.09-.79,4.55-5,5-5,7.75,1.71,1.78,4.41,3.64,8.89,2.85,13.85-.11.69-.33.91.51,1.36,3.33,1.78,5.54,5,8.53,7.14a35.05,35.05,0,0,1,11.12,13.7c.73,1.56,3.84.36,3,3.08l-.14.14.07-.2c1.06-.37,2.11-1,2.87.54.88,1.73,2.16,2.71,4.26,2,.36-.12.92.39,1.29.28,2.86-.83-1.56,5.68,2.12,2.49,2.6-2.25,3.95-.28,5.66-.05,2,.25,3.78,1.66,5.68,2.52,1.67.75,3.32,1.83,5.07,2.07a16.8,16.8,0,0,1,5.85,2.3c1.74.95,3.92,1.16,5.87,1.59,4,.89,3.51,2.61,1.81,5.19-21.55,32.54-49.85,56.88-86.1,71.94a193.91,193.91,0,0,1-48.81,13.25c-3.11.41-6.26.52-9.8.8,3.8-6.92,7.18-13.49,10.7-20,5.9-10.89,11.12-22.15,16.46-33.33,1.31-2.75,3.57-4.69,5.28-7.06A214.64,214.64,0,0,0,239,291.29c9-16.05,20.14-31.12,25.8-49,.15-.47.68-.88.67-1.31-.05-1.7,1.19-4.16-.79-4.9-2.89-1.09-2.27,2.29-2.85,3.52-3.47,7.4-8.87,13.27-14.3,19.14a6.09,6.09,0,0,1-3.8,3.79c-4.69,6.8-10.89,12.09-17.39,17-4.47,3.39-10,5.48-13.68,9.76-5,5.8-12.06,8.86-17.58,14.05-4.32,4.07-10.46,6.21-15.8,9.18-.57.32-1.42.81-1.83.6-4.85-2.43-10.35-2.53-14.94-6.73-6.16-5.64-11.63-11.89-17.29-17.92-5.12-5.46-8.82-12.29-13-18.63-.83-1.27-.07-2.89.9-4.13,0-.69.72-.92.91-1.49a4,4,0,0,1-2.06.34c-1.46-2.42,1-5.76-1.91-7.91-.68-.49-.81-2-2.05-1.26a2.64,2.64,0,0,0-1.55,2.19c-.91,12.53-2.31,25-2.84,37.57-.44,10.55-2.25,20.86-4.05,31.19a30,30,0,0,0-.18,8.27c.54,5.12-1.84,9.46-2.76,14a63.22,63.22,0,0,1-3.5,11c-1.21,3-2.78.72-3.87.3a182.41,182.41,0,0,1-45.4-25.63,186.62,186.62,0,0,1-40.12-42c-1-1.48-3.4-3-1.35-5.11,2.34-2.44,6.16-6.73,8.1-5.24,5.46,4.19,7.27-.72,10.45-2.58,3-1.77,6.43-.17,9.92-1.37,5.32-1.83,9.63-6.14,15.2-6.56"/><path class="cls-2" d="M79.38,266.42c3.18.47,5.45-1.51,7.61-2.42"/><path class="cls-2" d="M127.2,52.34c3.56-3.08,8.6-4.44,10.2-9.89.41-1.38,3.79-2.81,5.62-2.61s.9,2.22-.2,3.28c-3.42,3.27-6.88,6.49-10,10.07,7.72-3.36,21.36-16.49,23.2-21.62,1.44-1.59,2.77-3.6,5.21-1.38,3.36,2.55,6.63,2,8.8-1,1.59-2.22-1.5-2.12-1.38-3.49,2.37-4.46,6.25-7.42,10.22-10.29l0,0A1.5,1.5,0,0,1,180,15a5.94,5.94,0,0,0,4.82-5.56,2.92,2.92,0,0,1,4.36.18c1,1.16-1,2-1.84,2.87a11.48,11.48,0,0,0-3.54,8.94A4.37,4.37,0,0,1,181,24.73c-.51.17-1.06.14-1.56.32a.89.89,0,0,0-.22.89c3.52,4.7,5.19-.92,7.76-1.36,5.28-2.87,9.14-7.58,14.26-10.94-1.57,2.32-1.32,5-2,7.54,1.86-2.58,5.29-2.49,7.31-4.75,1.33-1.49,1.8.32,2.47,1.07.86,1.15,1.8,1.05,2.76.14a10.27,10.27,0,0,1,4.16-2.08c2.53-1.47,3.9-4.88,8.1-4.74-2.64,3.91-7,5.64-8.28,10.26-.94,3.35.18,4,2.77,4.37a17.63,17.63,0,0,0,12.15-2.92c1.6.62,3.64-.9,5,1-2.35,2.65-4.57,5.45-7.13,7.89a11,11,0,0,0-2.58,4.11c4-1.52,5.49-5.63,9.6-6.38,1,.59-.58,2.69,1.11,3.35,1.71,1,2.2-.61,3-1.42,2.18-2.11,4.17-4.47,7.14-5.56,2.1-.82,4.09.46,6.11.61,3,.24,3,4.27.16,7.61,1.49,1.67,7.68-1.39,4.76,4.72a.69.69,0,0,1-.26.93l.05,0a1.71,1.71,0,0,1-.52.67l-.36.2a2.22,2.22,0,0,0,.33.28s.16-.43.17-.44l.42.2c2.69.45,3.29,1.27,1.16,3.6-2.78,3.05-6.8,5.07-8.09,9.41a9.69,9.69,0,0,1-8.13,8.13l-2.2.79c1.72-5.23-4.15-.56-4-3.69.14-1.3,2.33-.94,2.93-2.45-2.66-3.4-5.3,0-7.91.3-.3-2.07,1.35-3.13,2.1-4.61-2-.57-2.35,1.49-3.69,1.53a2.87,2.87,0,0,1-1.37-1.81,1.13,1.13,0,0,1-.07-.84c-.31.41-.06.91-.22,1.35l-.44.32c-4.91.05-6.16,5.39-10.58,6.56l2.79-3.14c1.38-1.53.89-2.26-1-2.38-1.77-2.08-3.32-2-5.09.17-2.46,3.05-4.12,6.72-7.24,9.27-1.38,1.13-2.46,2.66-4.3,3.16a4,4,0,0,1-1.34-.06,3.59,3.59,0,0,1-2-1.63l9.59-10.33c-4.35,1.57-6.57,5.65-10.29,8.23-.69-2.38,2.76-3.23,1.79-5.88-3.7,3.51-7.4,6.82-10.84,10.38-1.87,1.94-3.62,3.17-6.27,1.66l.06.07c-2.05-2.07-3.63-.93-5.27.68-3,2.9-5.62,6.14-9.26,8.33-1.84,1.12-1.29-.19-1.35-1-1.37-.2,2.85-3.35-1.15-2.16-2.27,2.55-5.22,3.53-8.45,3.84-1.06-1.58,1.07-2.13,1.15-4-4.76,2.94-7.08,7.17-9.66,11.17-.93,1.39-2,2.52-3.89,2.4-3.07-2.5.4-3.7,1.07-5.46a10.14,10.14,0,0,0,.87-2.46c1.35-4,5-6.06,7.25-8.56-5.44,3.22-8.91,9.67-15.25,12.68a1.72,1.72,0,0,1-1.45-1.35c.69-4,5.19-4.81,6.59-8-3.19,5.11-8.88,7.17-13.72,10.39-.68.45-1.51,1-2.24.4-1.17-1-.61-2.24.11-3.08,2.23-2.59,4.66-5,6.44-8,3.21-1.42,5-4.48,7.71-6.54-2.65,2-4.4,5.06-7.65,6.3-1.49,1.15-1.73,3.2-3,4.4-1.68,1.54-3.61,3.33-5.14-.25a16.63,16.63,0,0,1,1.4-2c-.42.42-.67,1-1.11,1.39-2.71-.14-1.86-3.35-3.68-4.22-1.65-.24-2.68,2.29-4.54,1-2.83-2.54-4.13.51-4.84,1.91-1.83,3.6-5,6.65-5,11.09a3,3,0,0,1-1.15,2.13c1.83,1,4.71-1.73,5.6.83s-2.76,3.27-3.72,5.33c.57-.22.83-.78,1.32-1.07,1.06-.64,2.22-2.15,3.37-.69.94,1.19-.23,2.46-1.07,3.49-2,2.49-5.14,4.32-5,8.45,2.1.42,3.19-1.29,4.64-2.09,1-.55,2.14-1.41,3.08-.2.72.92-.08,1.88-.68,2.64-.8,1-1.93,1.74-2.59,2.77,1-.83,2-2.49,3.47-1.19,1.2,1.1,0,2.47-.84,3.46-1.8,2.16-4,4-6,6.27,2.49-1,3.52-4.27,6.62-3.51a.83.83,0,0,1,.42.74q0,.45-.15.45a31.51,31.51,0,0,1-3.79,4.32c-1.49,1.18-2.35,1.81-1.73,4.21s-2.07,4.42-3.28,6.61l.26.63-.35.59a6.24,6.24,0,0,1-1.14.68c-1.73.42-3.23,1.11-3.76,3-3.22,4.85-1.84,10.37-2.06,15.6-.17,4-1.15,6.74-5.44,7.37-.65.1-1.24.12-1.6.89s-.75,2.25-1.83,1.2c-.71-.69-1.92-2-.4-3.4s3.11-3,4.55-4.59c.68-.75,2.41-1.64,1-2.67-.77-.58-1.13-2.29-3.08-1.64-1.51.5-5.11.11-4.84-.4,1.42-2.69-2.29-5,.29-8.07,1.76-2.1,1.28-6.16,4.76-8.18-7.82-1.94-1.43-4.48-.89-6.64-2.24-1.52-3,1.53-5.38,1.38,4.8-7.49,1.82-16.76,8.21-24.58-4.32,1-5,4.38-8.17,4.75,1.1-2.62,4.41-3.63,3.77-6.77,2.4-1.91-.73-1.39-.94-2.15-1-1.31-1.55-2.7.21-3.71,3.23-1.86,3.17-6.45,6.8-8a1.28,1.28,0,0,0,.38-2.1c-.65-.82-1.39-1.44-2.49-.61-.74.55-1.21,1.68-2.83,1,.31-3.48,4.12-3.68,5.72-5.87,1.22-1.68,1.4-1.54-.63-3-.51-.37-1.32-1-.72-1.51,2.59-2.16,2.59-6.06,5.31-8,3.46-2.43,5.5-5.8,7.36-9.46.68-1.32,1.35-3,3-3.68.73-.31,1.41-.86,2.11.07.58.78.69,1.43-.32,2-4.85,2.54-4.32,8.18-6.88,12.09-1.66,2.55,2.27,3,3,4.87,1.12.32,1.28-.14.88-1.08.78-2.69,0-6,2.84-7.91,2.73-1.05,4.32-3.46,6.37-5.34,1.12-1.06,2.21-2.16,3.3-3.26C124.75,53,125.55,51.56,127.2,52.34Z"/><path class="cls-2" d="M140.15,335.45a4.41,4.41,0,0,1,1-3.89,1.14,1.14,0,0,0-1.15-1.15l-2.39,1.72a.94.94,0,0,1,0-1.61c4.61-3.95,7.69-9.43,12.8-12.87,3-2,6-4.08,9.11-5.79,2.77-1.49,5.35.6,7.64,1.59a26.87,26.87,0,0,0,14.45,1.94,3.59,3.59,0,0,1,3.91,1.79c2.52,5.19,6.26,9.41,10.11,13.56,2.46,2.66.86,5.18-1.07,6.22-6.82,3.68-11.08,10-16.64,15-2.43,2.17-1.82,5.63-1,7.4,1.09,2.5.69,5.1,1.78,7.59,1.31,3,.58,5.84-4.36,5.56-8.42-.49-16.92.37-25.35-1.62.13-4.92,3.49-8.71,5.55-12.73a21,21,0,0,0,2.42-10.93c-.17-3.51-2.83-6.37-4.9-9.25-1.28-1.78-3.56-3.09-2.48-6.16-2.83.44-3.51,2.95-5.4,3.72a3,3,0,0,1-2.79.76A2.31,2.31,0,0,1,140.15,335.45Z"/><path class="cls-2" d="M251.59,122.22l-1.83-2.14c-.69-.89.77-1.85-.09-2.73-4.47-3.24-1.15-5.6.93-8.09,3.46-.45,4.45-3.51,6.15-5.82a9.65,9.65,0,0,1,.8-1.1c4.78-5,9.68-9.83,14.61-14.65,1.18-1.16,2.14-3.12,4.42-2.29l.06,2.88a11,11,0,0,1-2.54,2.27c.92-.67,2-1.19,2.47-2.33,4.91.15,7.69,4.58,5.63,9-1.43,3-1.43,3.21,1.9,3.15,1.62,0,1.67,2.29,3.33,1.73.42,1.47-.17,2.19-1.67,2.22.81,2.44-.62,6.65-.16,6.89,2.95,1.55,1.35,3.42,1.24,5.4-.25,4.43,2.85,5.87,6.52,5.93s3.73,1.17,1.77,3.74c-.52.67-.36,1.86-.51,2.81.54,2.84-3.37,3.16-3.27,5.76-1.65,2.46-4,4.29-6,6.35a22,22,0,0,0,6.74-7.29,3.84,3.84,0,0,1,2.35-1.42c2,.85,3.27-1.47,5.12-1.34.67.17,2-1.59,1.93.55a24,24,0,0,1-1.08,4.47,2.76,2.76,0,0,1-.95.7c-.34.24-.68.46-1,.67l-.62.13a10.93,10.93,0,0,0-1.22.41,15.48,15.48,0,0,0-6.37,4.83c2.34-.57,3.62-2.28,5.14-3.64a8.12,8.12,0,0,1,.94-.82l.52-.31a8.41,8.41,0,0,1,1.09-.41,2.77,2.77,0,0,0,1.52-.65.81.81,0,0,1,1,.09c0,.65.33,1.46.06,2-2.68,4.75-4.84,9.95-9.21,13.46-2.81,2.27-3.88,6.38-8.82,7.82l2.92-4c-2.28-.6-2.63,1.87-4.21,2.26-1.25-1.56,1.13-2,1-3.58-1.89.76-4.65,2.74-4.25-1.66a4.07,4.07,0,0,0-2.59-4.5c-2.35-1.16-2.66,1.17-3.89,1.89-.68.4-1.1,1.27-2.43,1,0-6.49,6.24-7.9,9.57-11.58,1.41.81,2.2.21,2.64-1.17.84-1.21.84-2.7,1.35-4-1.49-1.89-2.21,0-3,.71-3.1,3-6.09,6.11-9.19,9.11-1.12,1.08-2,2.86-4.37,1.87,1.7-4.49,6.17-6.89,8.29-11.36-2.4,0-3.4,1.94-4.51,3.24-2.13,2.51-4.2,3.69-7.12,1.36-.34-.2-.46-.4-.36-.62s.21-.33.32-.33c.4-2.05-2.61-4.25.66-6.36,1.11-.72-1.75-1.22-2.16-3s-2.61.26-3.57,1c-2.82-.7,4.64-4.2-1.52-4.22-.37,0,1.44-3.1,2.3-4.74-1.4-1.16-2.43,0-3.54.54A6.42,6.42,0,0,1,251.59,122.22Z"/><path class="cls-2" d="M125.07,160.22c-1.85-.78-3.22.9-4.91.94-1-.43-1.57-1.06-1.09-2.21-1-1.89-2.66-2.77-4.54-1.71s-1.15-.65-1.56-1.15c.84-4.51,4.31-7.16,7.2-10.23,1.7-1.8,3.67-3.31,5.45-5,2.18-1.52,4.23-3.15,4.64-6a8.62,8.62,0,0,1,4.2-4.42c2.31-.61,3.28-2.6,4.45-4.38a8.63,8.63,0,0,1,4.19-1.93L150,119.2l-.06-.07c-.58,3.86-5.39,5.07-5.7,9.19-.06.76-1.41,1.45-.14,2.33s1.54,0,2.1-1c1.25-2.21,3.81-2.93,5.66-4.49a1.28,1.28,0,0,1,.58,1.18c-.54,2.47.66,1.42,1.64.84l2.39-1.72c1.39,1.94-2.25,2.33-.94,4.44,2-2.59,4.68-3.43,7.85-3.92,2.89-.45,1.06,1.44,1.61,2,.86,1.72-1.91,3.29-.21,5.06.41,1.58.28,4.1,2.73,1.07a29.49,29.49,0,0,1,6.68-5.94c-1.34,3-4.35,4.61-5.21,7.78.65.94.4,2.09.71,3.11a20.16,20.16,0,0,0,1,3c.7,1.9,1.13,3.82.2,5.77-2.25,1.79-5.16,2.66-4.36,7,.42,2.25-2.29,5-4.59,6.54a65.84,65.84,0,0,0-10.22,8.26c-2.22-4.56-3.3-8.88,2.71-12.09-5.49,2.84-8,8.8-14.3,9.38-.6-3-2-.08-2.92-.38-2.34.29-4.4,1.77-6.84,1.63-1.08,0-2.19.38-3.21-.27-.25-1.12.55-3.07-2.09-2.15-1,.35-.9-1-.88-1.75,0-1.27,1-1.94,1.67-2.85C126.69,160.08,125.38,160.53,125.07,160.22Z"/><path class="cls-2" d="M242.62,61.41a34.86,34.86,0,0,0,8.13-8.13c4-2.71,6.82-6.62,10.36-9.8,1-.88,1.54-1.92,1.85.67s1.64.17,2.61,0c.7-.17.74-4.21,2.62-.32.85,1.76,4.43,3.16,5,5.27.71,2.52-3.29,3.48-4.21,6.12,2.91.08,3.41-3.59,6.2-3.68.65,2.1-1.25,3.29-1.51,4.94a3.69,3.69,0,0,1-1.19.55c.53.08.75-.41,1.13-.62l4.93.23c-.39,2.32-2.69,3.57-1.9,5.8a3,3,0,0,0-.57.5,3.46,3.46,0,0,0,.51-.57c1.41.1,3-.27,3.71,1.74-.45.38-.88,1-1.44,1.17-3,.8-2.82,3.89-3.87,5.8-2.27,4.14,2.3,2,3.56,2.85,4.24,2.91,4.34,3.56,1.19,7.47-1,1.19-2.37,1.62-3.17,2.82a236.91,236.91,0,0,0-18.93,19.1l.06-.08c-2.16,1.55-2.71,5-6,5.19-.86-6.57-.86-6.57,3.3-11.3-5.26,1.7-6.68,7.17-11.22,8.26a.79.79,0,0,1-.31-.8c.07-.29.15-.43.23-.43a11.9,11.9,0,0,0,2.94-6.81,4.19,4.19,0,0,1,0-3.15L250.3,90c-.72-1.37-2.16-1.11-3.33-1.32-1-2,4.9-2.81.42-6.15-1.73-1.29-1.66-4.53-5.76-1.85,1.6-2.33,2.61-3.91,3.72-5.41,1.79-2.4,1.78-3.62-1.71-3-.77.14-2.23-.24-1.67-1C244.29,68,242.13,64.64,242.62,61.41Z"/><path class="cls-2" d="M170.92,147.92c-1.28-1.82-.13-4-1-5.94,0-2.35,2.37-2.93,3.4-4.53l.59-.3c1.47-1.3,3-3.73,4.42-3.71,6.44.07,9.37-5.42,13.93-8.72,1.48,3.94-1.63,4.58-3.39,6.33,4.25,1.23,8.25,1.92,12.13-.59.74-.48,1.08-1.39,2.12.06s2.76,1.36,4.75.92c1.74-.38,4.42-1.34,5.82,1.3,1.14,2.15,1.63,0,2.36-.37,1.28-.61,1.86-3.36,3.93-1.44s-.94,2.66-1.16,4.08a19.79,19.79,0,0,1-.75,2.36c3.64-1.8,5.34-5,8.28-7,.86,2.7-3.4,3.17-2.4,5.74.94-.37-1.37,2.21.73.79.39-.27.81-.5,1.21-.75,1.86-1.13,3.15-2.82,4.86-5.14-.43,6.49-6.14,8.41-9,13.32,6.78-2.34,9.52-8.57,15.28-12.3-1.83,4.47-5.92,6.22-7.64,9.9,2.62-2.23,5.92-3,9.07-4.17.93,1.33.07,2.8-.58,4.28a2.82,2.82,0,0,1-.8,3,15.62,15.62,0,0,1-1.46,1.21,5.2,5.2,0,0,0-.68.65c.48.06.62-.49,1-.6,1.17-.59,2.14-1.72,3.64-1.21.69,1.87-1.43,2.45-1.78,3.85.27,1-.11,1.42-1.15,1.15-2.88,4.5-7.84,3-11.88,4.11a16,16,0,0,1-4.8,1.63,2.56,2.56,0,0,1-2-.8c0-1.85-5-2.41-1-5.55-2.73,2.44-6.64,2.28-8.28,5.58-1.4,2.92-3,5.62-6.93,5-1.86,1.29-2.92-.85-4.29-1-3.33-.35-5.88,1.62-8.32,3.76-.53.47-1.81,2-2.92.55-.66-.86-.25-1.88.51-2.67,1.45-1.51,2-3.44.34-4.77s-2.44,1-3.3,1.86c-1.84,1.86-2.9-3.34-4.61-.35a2.43,2.43,0,0,1,.57-2.72c1-1,2-2.25.59-3.36-1.72-1.38-2.21,1.22-3.84,1.67-.48-2.36-.37-4.24,2-5.59Z"/><path class="cls-1" d="M135.11,74.43c-.86,4.32-5.33,6.19-7.24,10.38,7.21-3.94,14.06-7.51,19-13.86l.81.93L138,82.19c-.43,1.19,0,1.57,1.15,1.15,5.92-5.43,11.29-11.5,18.37-15.71-1.67,5.32-7.81,7.31-9.55,12.56-.26.76-1.74.93-1,2.16,1.13,2.28-4.27,2.05-1.85,4.82.69,2.57-1.94,3.75-2.43,5.83a5.61,5.61,0,0,1-.5,1.21c-2.09.12-3.27,1.43-4.13,3.15-.79.93-1.22,2.34-2.86,2.11a8.93,8.93,0,0,1-1.69-.77c-2.17-.52-2.66,1.42-3.7,2.55-.63.9-1.29,1.78-1.94,2.67a7.29,7.29,0,0,1-.91,1c-3.82,2.8-6.63,6.81-10.84,9.15-3,.38-4,3.21-6.1,4.78-.88.67-1.57,1.94-2.88.69-1.51-1.45.3-2,.89-2.65,2.56-3.07,6.07-5.33,8.44-9.44-3.17,1-3.9,4.23-7.16,4.68.88-4.09,4.9-5.36,6.77-8.91-3.64,1.16-5.51,5.08-9.4,4.73-1.52-6.73,4.7-9.36,8-14.26-3.63.53-4.28,5.29-8,4.33,1.13-3.52,4-5.38,6.48-7.86-2.44,1.67-5.42-.74-8,2.51l6.1-15.1a13.18,13.18,0,0,1,6-6.38c2.24-1.22,1.66,1.8,2.13,3.09,1.88.62,2.35-1.71,3.87-1.85,2.45-.84,2.68-.8,2.33.94a3.8,3.8,0,0,0,1.66,4l-.07-.06c1.73,2.4,3.55,2.32,4.73-.6.7-1.73.94-3.43,3.23-3.5a.81.81,0,0,1,.31.81C135.27,74.29,135.19,74.43,135.11,74.43Z"/><path class="cls-2" d="M128.13,218.76c1,3.67-2.27,4.42-4.14,6.13-.91.67-2,1-2.84,1.84a20.06,20.06,0,0,1-6.13,6.14c-.69-4.78.5-8.75,4.87-11.37,1.9-1.14,4.4-1.79,4.09-4.89-3.42-.4-4.36,3.42-7.6,3.6L129.2,207a3.24,3.24,0,0,1,1.52-2.12c.39-.31.8-.59,1.21-.88s.53-.4.79-.6c-.43-.28-.55.28-.87.34-1.29.69-2.24,2-3.81,2.11-3.58.68-4.95,4.15-7.57,6.08-3.13,2.29-7.13,3.3-9.79,6.7.62-1.77-1.4-2.94-.65-4.65.63-2,2.39-3.2,3.65-4.74a47.4,47.4,0,0,1,9.73-8.13c3.61-4.23,8.76-7,11.49-12.07,2.74-2.15,4.76-5,8.84-5.62,2.2-.31,3.6-3.54,5.21-5.62s4-3.83,6.06-5.72L155,172c.43,2.22-1.94,2.88-2.55,4.53,1.89,1.49,2.81-.76,4.71-.83-2.92,3-1.47,7.94-5.69,10.64-2,1.27-5.59,3.6-1.43,6.8l-1.08.88c-4,1.25-4.72,5.78-7.77,8,.1.11.21.33.28.32a6.51,6.51,0,0,1,1-.12c3.94,1.84-.19,3.06-.34,4.59-4,4.37-7.33,9.56-13.11,12A.5.5,0,0,0,128.13,218.76Z"/><path class="cls-2" d="M135.18,131.1a9.79,9.79,0,0,0-4.14,4.14,13.26,13.26,0,0,1-5,5.33A127.55,127.55,0,0,0,115,152c-1.38,1.6-2.53,3.55-4.87,4-1.24,0-1.61,2.77-3,1.28s.93-1.91,1.35-2.94c3.58-8.56,11.52-14.37,14.66-23.2,2.06-.58,3.72-2.22,6-2.18.7-.09.13,3.28,1.8.64a2.75,2.75,0,0,1,4.39.24A1.31,1.31,0,0,1,135.18,131.1Z"/><path class="cls-2" d="M151.89,105.19,150,108.11c-.7,2.47-2.91,3.89-4.18,6a6.23,6.23,0,0,1-.95,1,52,52,0,0,0-9,9c-1.26,1.58-2.26,3.75-5,3.16-1.27-5,3.71-6.33,5.31-9.21-1.54.79-2.14,3.79-5.06,3.09-.29-2,1.4-2.9,2.55-3.93,6.09-5.43,10.82-12.11,16.5-17.9a.6.6,0,0,1,.95,0c1.65,2.18,2.88.56,3.88-.6,1.78-2.07,3.34-4.33,5-6.5l1.53,1.48L156,101.11A9.9,9.9,0,0,0,151.89,105.19Z"/><path class="cls-2" d="M249.6,213.93l1.08-1.18c3.94-3.72,7.93-7.39,11.8-11.18a8.6,8.6,0,0,1,8.13-2.48c.5,1-.43,1.5-.74,2.22a9,9,0,0,1-2.69,2.58,1.58,1.58,0,0,0-.72,1.46c.06.18.11.36.16.54a11.92,11.92,0,0,1-5,4.84,1.82,1.82,0,0,0-1.06-.33,2.46,2.46,0,0,0-1,.45c-2,0-2.92,1.51-3.91,2.91-2.19.76-3.23,3.92-6.24,3A2.58,2.58,0,0,1,249.6,213.93Z"/><path class="cls-2" d="M117.16,203.94c-.31-2.58,4.46-2.8,2.79-6a1.44,1.44,0,0,1-.15-1.26c1-1.66,2.45-3,3.25-4.83l.92-.92c1.12-1,1.33-2.85,3.17-3.06,3.94-1,5.63-6.14,10.88-5.7l-6,6.69c-.63,1.83-1.76,3.46-2.13,5.39-1.18,3.16-4.68,4.24-6.29,7-1.78,1.38-3.47,3-5.9,3.08Z"/><path class="cls-1" d="M200.83,65.31c4.28-1.48,6.88-4.87,9.1-8.48a28.26,28.26,0,0,1,5-6c1.71-1.59,3.28-.55,3.95,2.56-5.58,4.32-10,9.83-15.18,14.59-1.15,1.06-2.36,3.52-3.9.29A2.29,2.29,0,0,1,200.83,65.31Z"/><path class="cls-1" d="M127.19,168c1-.33,1.75-1.28,2.92-.78,2.43,1.63,1.13,3.22,0,4.82a10.07,10.07,0,0,0-4,4.1q-4,3.79-7.88,7.76L117,185c-.3.34-.61.67-.92,1l.07-.08c-.36.35-.72.71-1.07,1.08l.08-.08c-.37.35-.73.71-1.08,1.07l.08-.07a3.1,3.1,0,0,1-1.07.62,3.91,3.91,0,0,1-1.22.26,2.82,2.82,0,0,1-1.69-.73q5.48-6.11,11-12.19c1.22-1.65,2.54-3.23,3.9-4.76A3.24,3.24,0,0,1,127.19,168Z"/><path class="cls-2" d="M247.67,198.82c3.27-4.92,7-9.15,12.33-12.21,3.47-2,6-5.62,9-8.43,1.22-1.13,2.09-2.87,4.76-3.17l-24.94,26a.86.86,0,0,1-1.34,0A1.84,1.84,0,0,1,247.67,198.82Z"/><path class="cls-2" d="M129.45,39.88c7.77-6.19,12.47-16.18,22.87-19.33C144.92,27.22,138.77,35.35,129.45,39.88Z"/><path class="cls-2" d="M218,155.07l1.95,0c.5,1.29,1.91,1.34,2.82,2.07-1.76,4-3.89,7.26-9.16,5.24-3.26-1.24-4.68,2.74-8,3.08C208.72,160.35,213.41,157.78,218,155.07Z"/><path class="cls-2" d="M188.73,107.19c-.33.54-.81,1.59-1,1.55-6.25-1.84-8.51,5-14.13,5.93a34.56,34.56,0,0,1,9.69-11.87c.55-.44,4.09-.89,5.41,1.45a1.32,1.32,0,0,0-.18,1,3.42,3.42,0,0,1,0,1A1.35,1.35,0,0,0,188.73,107.19Z"/><path class="cls-2" d="M127.2,52.34,124,54.42a8.3,8.3,0,0,0-2.84,2.84c-2.09,2.08-2.9,6-7.12,5.05-.4-3.3,1.32-4.82,4.09-6.49,3.6-2.18,5.45-6.63,9.54-8.5,1.26-.58,2.46-1.3,4.09-2.16C131.06,48.6,125.9,48.36,127.2,52.34Z"/><path class="cls-1" d="M131.13,127.05c4.21-2.63,6-7.53,10-10.43,1.26-.94,2-2.66,4-2.46a2.07,2.07,0,0,1,0,2.91l-.09,1.22a10.89,10.89,0,0,0-1,.93l.07-.08a3.56,3.56,0,0,0-.63,1l-.27.53a4.77,4.77,0,0,1-.68,1c-.54.59-1.12,1.13-1.7,1.68-.42.43-.86.83-1.31,1.23a14,14,0,0,1-1.41,1.14c-.32.25-.66.48-1,.71-1.3,1-2.47,2.19-4.11,2.65-1.36-1.11-2.5,5.94-4,.1A2.59,2.59,0,0,1,131.13,127.05Z"/><path class="cls-1" d="M131.13,127.05A3.63,3.63,0,0,1,129,129.2c-1.9.84-3.21,3.55-5.92,1.9l.07.09c-.7-1.28.26-2.09.86-3a27,27,0,0,0,7.14-7.12l8-7C138.27,119.68,131.64,121.39,131.13,127.05Z"/><path class="cls-1" d="M187,24.58c0,2.35-3,2.29-3.52,4.39-.15.57-3,1.69-2.36-1.37-3,.91-5,.82-3-3.12a1.13,1.13,0,0,1,.85-.46,1.9,1.9,0,0,1,1,.29l3.88-2.85A3.23,3.23,0,0,0,186,19.38c1.05-.55,2.06-.82,3,.28C188.26,21.3,185.34,22.05,187,24.58Z"/><path class="cls-2" d="M123.05,191.84c1.39,3.14-1.39,3.81-3,5.14a3.33,3.33,0,0,1-1,.91l0,0a.68.68,0,0,1-.92.26c-2.55,3.83-7.53,4.16-10.65,7.43-1.17,1.23-.12-1-.46-1.57a9.55,9.55,0,0,1,5.15-5.13c3,0,3.9-2.75,5.74-4.27A11,11,0,0,1,123.05,191.84Z"/><path class="cls-2" d="M178.89,15.41a49.84,49.84,0,0,1-10,10.11c-1.57,1.67-3.22,3.06-5.57,1.23a2.75,2.75,0,0,1,.81-3.23c3.4-.38,5.94-2.21,8.1-4.75A8.59,8.59,0,0,1,178.89,15.41Z"/><path class="cls-2" d="M171.93,100.23c0,.3,0,.6.07.9.36,2.25-1.77,2.94-2.71,4.37-3.67,2.55-5.56,7.18-10.13,8.66-1-2.08-2.53.36-5.12-.84,8.42-2.26,11.07-10.25,18-13Z"/><path class="cls-2" d="M112.19,198.83A14.79,14.79,0,0,1,107,204c-.86-.52-1.1-1.19-.38-2,5.52-6,11.06-12,17.5-17.22Z"/><path class="cls-1" d="M110.1,156q6.33-7,12.67-14c.89-1,1.78-2,3.29-2a.81.81,0,0,1,.31.81c-.07.28-.15.42-.23.42-4.1,5.21-9.76,9.05-13.17,14.87C112,156.48,111,157.6,110.1,156Z"/><path class="cls-1" d="M164.09,23.52,164,27.36c.26,2.35-.79,3.41-3.14,3.14-2.12-1.94-3,1.7-4.84,1.07L156,30.35a1.92,1.92,0,0,1,0-2.77l1-1.11c1.13-1.13,2.05-2.49,3.56-3.19a1.42,1.42,0,0,1,1.31.16Z"/><path class="cls-2" d="M151.13,99.28l-.95,0c0-1-.08-2-.13-3l-.07.07c5.52-1.79,7.75-8.17,14.15-9Z"/><path class="cls-2" d="M236.64,150.13c.39-.38.77-.77,1.15-1.15,3.8.64,5.87-3,7.56-3.36L234.8,156.19C236.44,154.66,239.25,152.93,236.64,150.13Z"/><path class="cls-1" d="M123.22,114.23,121,113.16c-.61-4.92,3.48-6.19,6.47-8.32a4.79,4.79,0,0,1,2.59-1.35,3.36,3.36,0,0,1,1.48.23c1.88,1.47.88,2.52-.49,3.53l.08-.07C127.67,108.61,126.92,113.08,123.22,114.23Z"/><path class="cls-1" d="M257.65,103.27c-.08-2.55,2.07-3.64,3.56-5,5.18-4.64,9-10.73,15.37-14.12V85.4Z"/><path class="cls-2" d="M120.47,135.25,109.28,146.4a.76.76,0,0,1-1.22,0c-.31-.3-.69-.62-.17-1.15,3.75-3.76,6.75-8.36,11.34-11.19Z"/><path class="cls-2" d="M128.25,105.14c-2.43,2.66-6.69,3.67-7.26,8-1.49,1-2.68,2.71-4.87,1.87,0-.32,0-.63,0-1a31.56,31.56,0,0,1,11.06-10l.38.15a1.82,1.82,0,0,1,.58.56Z"/><path class="cls-2" d="M178.8,91.23c-4.59,4.1-9.66,7.61-13.86,12.08q6.94-7.49,13.88-15A1.85,1.85,0,0,1,178.8,91.23Z"/><path class="cls-2" d="M257.72,178c-1.32-.59-2.25,1.37-3.65.56,3.21-5.07,9.18-7.71,11.55-13.45-.34-.22-.44-.44-.32-.64s.24-.31.36-.31c2,1.18,1.93,3.63.63,4.24-2.58,1.21-2.36,3.73-3.66,5.44C260.59,174.8,259.39,176.7,257.72,178Z"/><path class="cls-1" d="M123.05,200.82l6.2-6.91c.78-1.8,1.82-3.34,3.82-3.95l1.83-1c.07,5.14-4.59,6.81-7.46,9.62A39.49,39.49,0,0,1,124.2,202C123.08,202.32,122.82,201.82,123.05,200.82Z"/><path class="cls-2" d="M99.34,171A3.65,3.65,0,0,1,97,174.37c-1.1.41-1.09-1-1.3-1.56-.73-1.82-1.22-4.87.21-5.32,2.2-.69,3.69-3.82,6.61-2.08-.18.83-1.76,1.18-1.35,2.5A3.58,3.58,0,0,0,99.34,171Z"/><path class="cls-2" d="M247.71,200.92l1.11.05c-2.84,3.89-7.67,6.43-8.12,11.95l.08-.07c-.93.56-1.73,1.46-3,1.14l-.09-2.21c-1.33-2.14.64-3.32,1.41-4.85.89-1,2.06-1.59,3-2.5,1.12-1,2.12-2.08,3.25-3.05C246.08,200.92,246.78,200.31,247.71,200.92Z"/><path class="cls-2" d="M257,183.38l13.3-11.47c-2.24,5.82-6.7,9.67-11.68,13Z"/><path class="cls-2" d="M256.71,200.58c3.23-5.75,8.71-8.55,12.5-13.09Z"/><path class="cls-2" d="M145.08,117.07c0-1,0-1.94,0-2.91l-.07.07c2-1.71,3.43-4.12,6.12-5l7.34-6.71c-1.62,4.13-4.9,6.84-8,9.49C148.56,113.64,148.6,117.33,145.08,117.07Z"/><path class="cls-2" d="M122.93,42.64c.22,2.47-3.45,3.1-1.61,5.91.64,1-1.32,2.62-3,3.22-1.34.48-1.86-.44-2.3-1.12-1.26-2,1.14-2.21,1.76-3.3A12,12,0,0,1,122.93,42.64Z"/><path class="cls-1" d="M235.64,23.53c-1.64-.44-3.61.79-5-1a44.89,44.89,0,0,0,3.68-3.18c1.28-1.33,2.87-2.15,4.21-.86,1.75,1.69-.2,2.85-1.3,3.94A10.15,10.15,0,0,1,235.64,23.53Z"/><path class="cls-2" d="M157,24.36c-.62.05-1.77-.24-1.51-.52a127.48,127.48,0,0,1,10.24-9.72c-1.09,2.46-3.41,4.36-2.88,7.37a2.67,2.67,0,0,1-.92.66l-.94.7-1,.59A6.05,6.05,0,0,1,157,24.36Z"/><path class="cls-1" d="M142.08,93.37c-.67-2.88,2-4.12,3-6.2,1.47-.34,2.14-2.22,3.89-2,.73,4.75-3.76,5.61-6,8.12A.54.54,0,0,1,142.08,93.37Z"/><path class="cls-2" d="M108.11,193.83c-2.63,0-3.41,2.88-6,4,1.53-4.5,4.08-7.35,8-9a1.68,1.68,0,0,1,1.17,1,1.15,1.15,0,0,1-.13,1l-1,1.05C109.54,192.61,109.35,193.74,108.11,193.83Z"/><path class="cls-1" d="M130.08,172c-.37-1.61,1.11-3.2,0-4.82,2.61,1.13,4.33-2.67,7-1.27a1.65,1.65,0,0,1,.53,1.13,1.31,1.31,0,0,1-.74,1C134.28,168.76,133,171.7,130.08,172Z"/><path class="cls-2" d="M155,172c2.34-5.29,7.68-7.58,12-10.95-4.09,3.54-6.53,8.75-12,10.89Z"/><path class="cls-2" d="M241.5,175.73c3.52-2.85,5.69-7.26,11.07-7.95l-10.19,9Z"/><path class="cls-1" d="M246.82,25.52c-1.92,3.55-6,4.88-8.22,8.29-1,1.62-1.75-.12-2-1.31a6.2,6.2,0,0,0,3.14-3.16c1.81-1.84,2.9-4.54,5.9-5Z"/><path class="cls-2" d="M293.77,159.38c-.84,5.72-4.48,7.3-7.71,9.26C287.32,165.08,290.4,163,293.77,159.38Z"/><path class="cls-2" d="M105.53,142.35l8.1-8.89C113.09,138.5,109,140.25,105.53,142.35Z"/><path class="cls-2" d="M201.74,160.09c3.32-.26,4.35-3.7,6.93-5,1.63,3.88,1.37,4.78-2.47,4.92C204.78,160.07,203.12,164.63,201.74,160.09Z"/><path class="cls-2" d="M114.17,209.78a9.81,9.81,0,0,1-4.14,4.15c-1.62-3,1.44-4.06,2.53-5.78s3-2.83,4.6-4.21l-.07-.06C118.58,207.07,114.73,207.61,114.17,209.78Z"/><path class="cls-2" d="M156,27.58v2.77c-2.71,1.14-3.89,4.5-7.88,5C150.79,32.31,151.75,28.44,156,27.58Z"/><path class="cls-1" d="M249.76,216.77c2.05-.83,3.12-3.6,5.89-3-2,3.22-4.9,5.65-7.77,8.07-.28-1-2.21-1.8-.29-3C248.41,218.25,248.54,216.94,249.76,216.77Z"/><path class="cls-2" d="M123.22,114.23c2.36-2.65,3.93-6.2,7.9-7-2.78,3.6-5.07,7.66-9.39,10.14C121.45,115.6,123,115.3,123.22,114.23Z"/><path class="cls-2" d="M253.86,224.87c.78-4.84,6.1-3,8.24-5.79-2,2.8-3.9,5.65-7.43,6.6A2.61,2.61,0,0,1,253.86,224.87Z"/><path class="cls-2" d="M142.6,22.88a13.32,13.32,0,0,1-7.12,7.2C136.73,26.65,139.33,24.45,142.6,22.88Z"/><path class="cls-2" d="M198.76,184c-2-.11-3-.88-2-3a4.87,4.87,0,0,1,1.18-2.88l-.11-.33a3.82,3.82,0,0,1,1-.31l1.06-.08a1.59,1.59,0,0,1,1,.4c1.95,1,.3,2,0,3C201.77,183,201.09,184.07,198.76,184Z"/><path class="cls-2" d="M136.83,110.92c-2.53,4-5.13,6.14-8,8.75C129.87,115.33,131.49,113.48,136.83,110.92Z"/><path class="cls-2" d="M159.16,114.16l9.8-8.94a.68.68,0,0,1,.29.73c-.08.26-.16.38-.25.38-2.86,3-5.62,6-8.62,8.87C158.69,116.8,159.24,114.91,159.16,114.16Z"/><path class="cls-2" d="M126.13,233.7a3.51,3.51,0,0,1-2.13,2.16c-2.34-.22-3,2-4.49,3-1.73,1.3-1.16-.49-1.5-1.06a14.09,14.09,0,0,1,6.58-6.49C126.22,231.41,127,232,126.13,233.7Z"/><path class="cls-2" d="M124.14,231.71a20,20,0,0,1-6.13,6.14c-1-.34-.83-1.24-1-2,2.87-.92,3.53-5,7.12-4.92.32.17.42.34.32.52S124.25,231.71,124.14,231.71Z"/><path class="cls-2" d="M192,114.34c0-1.56-.31-2.64.07-3.35a7,7,0,0,1,3.75-3.58c.37-.12,1.46.57,1.48.93.09,1.85-1.76,2.43-2.7,3.62A25.28,25.28,0,0,1,192,114.34Z"/><path class="cls-2" d="M118.17,183.87c1.84-3.39,3.78-6.67,7.88-7.76C124.82,180.12,121.51,182,118.17,183.87Z"/><path class="cls-2" d="M184.8,9.47c2.65,3.7-1.61,4.42-2.83,6.4-.58.94-1.76,2-2.05-.37-.48-3.09,2.41-3.58,4-5.1Z"/><path class="cls-1" d="M215.92,15.56c-.81,2-3,2.32-4.44,3.63-2.15,2-2.61.3-2.48-1.69,1.84,0,2.84-1.42,3.87-2.59C214.4,13.17,215,15.16,215.92,15.56Z"/><path class="cls-2" d="M171.29,16.47c.23-5.67.63-6,5.86-5.29Z"/><path class="cls-2" d="M150.05,96.22c-2.87-.83-4,2.45-6.19,3l8-7.68c-1.2,1.53-2.26,3-1.92,4.77Z"/><path class="cls-2" d="M153.52,16.16c.93-3.64,3.63-3.2,6.45-3C158.82,16.67,156.46,17,153.52,16.16Z"/><path class="cls-2" d="M131,107.25c.18-1.06,2.06-2.1,0-3.19a1.3,1.3,0,0,1,0-1.14,3.3,3.3,0,0,1,.8-.91,2.87,2.87,0,0,1,1.14-.39,1.69,1.69,0,0,1,1.09.45c.47.73,4-.9,1.61,1.93C134.49,105.42,133.41,107.37,131,107.25Z"/><path class="cls-1" d="M251.68,108.38c2.19-1.52,3-4.63,6-5.19-2.44,5.93-3.2,6.58-7.11,6.07Z"/><path class="cls-2" d="M246.66,94.15c.31,1.06,1.66,2.13,0,3.15l-5.94,3.89.07.07C241.34,97.74,244.45,96.32,246.66,94.15Z"/><path class="cls-2" d="M140,123.05l1.91-1.91a3.13,3.13,0,0,0,1.09-1l0,0a.62.62,0,0,1,.91.05,4.63,4.63,0,0,1-.78,3.88c-.73,1.77-2.13,2.24-3.88,2l-.47-.27-.09-.52.27-.46a7.46,7.46,0,0,0,.6-.87A5.85,5.85,0,0,1,140,123.05Z"/><path class="cls-2" d="M242.77,204.8a3.2,3.2,0,0,1-3.15,2.15.83.83,0,0,1-1.09,0,1,1,0,0,1,.24-1.11l-.06.08c.3-.34.59-.68.87-1a4.58,4.58,0,0,1,4.11-4.11,1.93,1.93,0,0,1,.6,1.13C244.18,203.1,243.33,203.87,242.77,204.8Z"/><path class="cls-2" d="M141.16,340.53a18.45,18.45,0,0,1-5.69,5.28c-.34-3.44,2.83-4.14,3.63-6.22a.8.8,0,0,1,1-.44A1.87,1.87,0,0,1,141.16,340.53Z"/><path class="cls-2" d="M206.79,84.24c-.91,4-4.36,5.62-7.76,7.29l7.82-7.22Z"/><path class="cls-2" d="M178,74.31c-1.89,3-4.83,3.54-6.68,5.44C172.71,77.41,173.69,74.61,178,74.31Z"/><path class="cls-2" d="M198.76,184a3.23,3.23,0,0,0,2.14-3.16c3.68,0,.61,3.15,1.93,4.27l-1.08.88C199.46,187.3,199,185.83,198.76,184Z"/><path class="cls-2" d="M127.27,352.84c.28-1.23.63-2.44.8-3.68.14-1,.33-2.1,1.45-2.11.57,0,1.19.9,1.69,1.48,1,1.22-.5,1.49-.9,2.16-.58,1-1.26,1.95-1.89,2.92Z"/><path class="cls-1" d="M151.12,109.26c-1.81,1.94-3,4.62-6.12,5,.35-3.1,3-4.31,5-6.12Z"/><path class="cls-2" d="M290.61,134.25c-.44-3.1,3.25-3,4-5.2,1.37.73.86,2,.81,3.06a1.72,1.72,0,0,1-.75,1l-2.22,1.08A1.28,1.28,0,0,1,290.61,134.25Z"/><path class="cls-2" d="M245.68,24.36l-5.9,5c.74-3.66,4.21-5,6.24-7.61C247.38,23,245.72,23.52,245.68,24.36Z"/><path class="cls-1" d="M125.07,160.22l2.78-2c.61,3.35-2,4.28-3.63,5.81L123,164a1.49,1.49,0,0,1,0-1.91Z"/><path class="cls-1" d="M165.93,74.2l3.53-3.93c1.26,3.27-1.88,4.13-2.38,6.09A2.22,2.22,0,0,1,165.93,74.2Z"/><path class="cls-2" d="M230.54,19.33a5,5,0,0,1,3-4.64c.66-.29,1.22.38,1.13,1.14C234.4,18.19,232,18.15,230.54,19.33Z"/><path class="cls-2" d="M143.24,32.81l7-6.85c-1.31,4.16-4.2,5.44-5.94,7.73Z"/><path class="cls-1" d="M220.69,193l-3.82-.15c-.63-1.74,1.08-2,1.82-2.85,1.22,0,2.65-.32,3.34,1C222.62,192.17,221.47,192.55,220.69,193Z"/><path class="cls-1" d="M178.8,91.23c0-1,0-1.94,0-2.91,1.72-.11,2.6-3.66,4.11-1.95,1.33,1.5-1.63,2.52-2.54,3.85C180.07,90.7,179.34,90.9,178.8,91.23Z"/><path class="cls-2" d="M141.16,340.53,140,339.37a3.67,3.67,0,0,1,.92-3.83h3.22C143.68,337.52,143.12,339.45,141.16,340.53Z"/><path class="cls-2" d="M110.87,178.62l-7.2,7.45A19.14,19.14,0,0,1,110.87,178.62Z"/><path class="cls-1" d="M222.74,157.17c-1.46,0-3.76,1.19-2.82-2.07a5.5,5.5,0,0,1,4.84-.86C224.08,155.21,223.41,156.19,222.74,157.17Z"/><path class="cls-2" d="M183.88,10.4l-4,5.1-1.08-.05C178.82,12.07,180.57,10.46,183.88,10.4Z"/><path class="cls-1" d="M281.77,139.09c1,2.13-.29,3-2,3.31-2,.34-.74-1.47-1.2-2.18l2.09-2.21C281.48,137.9,281.89,138.22,281.77,139.09Z"/><path class="cls-1" d="M157,24.36c.78-1.86,2.38-2,4-1.91.27.2.37.4.28.61s-.17.31-.26.31c-.86,1.66-2,3-4,3.1C157,25.76,157,25.06,157,24.36Z"/><path class="cls-2" d="M236.64,144.15c.4-.7.8-1.4,1.21-2.09,3.33-.53,2.1,1.51,1.72,3.07l-2.94,1.92C235.77,146.08,236.12,145.12,236.64,144.15Z"/><path class="cls-2" d="M182.9,68.31c-.79,1.81-.13,4.61-3.68,4.89.38-2.45.56-4.69,3.74-4.82Z"/><path class="cls-2" d="M238.78,186l-5.92,5.29C233.61,188.43,236.55,187.39,238.78,186Z"/><path class="cls-2" d="M136.76,106.3c1.17-1.91,1.69-4.43,4.35-4.35.28,0,.54.73.81,1.11Z"/><path class="cls-2" d="M188.53,102c1-3.39,2.37-4.45,3.91-5.34.12-.07,1,.72,1,.9C192.74,99.47,191.26,100.45,188.53,102Z"/><path class="cls-2" d="M293,156.05c-.07-2.84,1.07-4.51,3.2-5.53.14-.06.73.34.73.52C296.9,153.67,294.37,154.17,293,156.05Z"/><path class="cls-2" d="M217.24,22.3l5.58-5.09c-.75,3.61-3.14,4.37-4.49,6.21Z"/><path class="cls-2" d="M200.83,65.31c.27,1.18-.51,2-1,2.91-1.68.59-2.18,2.89-4.31,3-.52-1.41,1.38-1.67,1.25-2.81.15-.59.7-.66,1.13-.88l-.09-.33c1-.59,1.24-2.61,3.09-1.81Z"/><path class="cls-2" d="M188.9,19.66l-3-.28a9.73,9.73,0,0,1,4.75-4.16C189.83,17.05,190.46,18.66,188.9,19.66Z"/><path class="cls-2" d="M125.05,171.13c.63,3.17-2.32,3.4-3.9,4.76C121.72,173.7,121.85,171.16,125.05,171.13Z"/><path class="cls-2" d="M266.55,203l3.09-2a.64.64,0,0,1,1.12,0c-.36,2.5-2.21,3.75-4.14,4.93l.07.05A2.27,2.27,0,0,1,266.55,203Z"/><path class="cls-2" d="M164.81,133.11c-4.68-1.89.09-3.38.21-5.06C168.82,129.9,164,131.38,164.81,133.11Z"/><path class="cls-1" d="M102.33,135.1c-.54-3.09.79-4.31,3.83-3.81l.41.38-.12.55c-.22.3-.44.59-.65.9a7.63,7.63,0,0,1-.53,1Z"/><path class="cls-1" d="M132,264.61l4.72-2.92c.32,3.15-2.4,2.89-3.57,4.07Z"/><path class="cls-2" d="M169,106.33l0-1.11,3-4.09,1.58.78C171.78,103.1,171.55,105.92,169,106.33Z"/><path class="cls-1" d="M90.31,97.2c1.58.6,2.19-1.55,3.68-1.37.5,2.36-.67,3.29-2.74,3.52C91.44,98.41,89.1,98.58,90.31,97.2Z"/><path class="cls-2" d="M243.76,202l-.07-1.24c.74-1.84,2.36-1.91,4-2l0,2.1-2.11,1A1.33,1.33,0,0,1,243.76,202Z"/><path class="cls-1" d="M108.11,193.83l2-2c-.35,1.48,2.3,3.46-.42,4.4C108.5,196.64,108.24,194.93,108.11,193.83Z"/><path class="cls-2" d="M102.48,179.77c.84-2.16,2.55-2.73,5.14-3.78C106.15,178.73,105.17,180.39,102.48,179.77Z"/><path class="cls-2" d="M198,178.16c.83,1.46.27,2.35-1.18,2.88-4.29.32-1.32-1.79-1-3A.83.83,0,0,1,197,178,3.18,3.18,0,0,1,198,178.16Z"/><path class="cls-1" d="M133.07,190a11,11,0,0,1-3.82,3.95c-.72-2.59,1-3.85,2.78-5.06Z"/><path class="cls-1" d="M140.93,335.54a4.35,4.35,0,0,1-.92,3.83l-.91.22c-2.34-2.06-.93-3.17,1.05-4.14Z"/><path class="cls-1" d="M227.67,204l-2.78,1.79c.31-2.65,2.16-3.63,3.77-4.79.76.55.64,1.18.15,1.83Z"/><path class="cls-2" d="M127.14,187.86a5.67,5.67,0,0,1-3.17,3.06c0-1.71.37-3.28,2-4.2C127.37,185.89,126.88,187.32,127.14,187.86Z"/><path class="cls-2" d="M262.62,139c0,.32,0,.63,0,.95-2.4-.21-3,3-5.82,3C258.39,140.56,259.86,138.89,262.62,139Z"/><path class="cls-2" d="M119.07,159c.36.74.72,1.47,1.09,2.21-.88,1.47-2.56.6-3.82,1.65C116.31,160.51,117.9,159.89,119.07,159Z"/><path class="cls-1" d="M257.72,178c.14-3.16,2.21-4,4.91-4.16a3.21,3.21,0,0,1-2.07,2.17c-.79.91-1.06,2.6-2.91,1.92Z"/><path class="cls-2" d="M170.91,136c.12-1.94,1.06-3.26,3.07-2.7,1.34.38-.3,1.19-.2,1.85-.68,1.14-1.09,2.68-3,2A.89.89,0,0,1,170.91,136Z"/><path class="cls-2" d="M243.75,262.56l3.8-3.79C248.07,261.83,246.81,263.09,243.75,262.56Z"/><path class="cls-1" d="M151.89,105.19q-.21-4.27,4.08-4.08A8.27,8.27,0,0,1,151.89,105.19Z"/><path class="cls-2" d="M117.29,39.45c-.42-2,1-2.81,2.52-3.7a3.75,3.75,0,0,1-1.72,4.51A1.2,1.2,0,0,1,117.29,39.45Z"/><path class="cls-2" d="M222.4,99.73c-.18,2.4-2.19,3.19-3.72,4.39C219,101.86,220.88,100.94,222.4,99.73Z"/><path class="cls-2" d="M197,178l-1.23.09c-.88.09-2.43.47-2.53.24-.58-1.4.79-2.27,1.64-2.57C196.69,175.06,196.76,176.72,197,178Z"/><path class="cls-2" d="M94.77,150.23a5.58,5.58,0,0,1-3.36,3.48C91,151,92,149.93,94.77,150.23Z"/><path class="cls-1" d="M128,205.8A6.62,6.62,0,0,1,131,203a1.84,1.84,0,0,1,0,2.9L129.2,207Z"/><path class="cls-1" d="M127.86,31.11c-.1,1-.43,1.7-1.14,1.71a1.22,1.22,0,0,1-1.3-1.58,1.76,1.76,0,0,1,1.28-1.11C127.14,30.13,127.57,30.85,127.86,31.11Z"/><path class="cls-1" d="M242.69,231.94l-2,.86.06.07c-1-1.63-1.67-3.17,1-3.87Z"/><path class="cls-2" d="M135,99.08l3-1.72c.13,2.08-.1,3.89-2.84,3.83a1.29,1.29,0,0,1-.68-1c0-.21.07-.42.11-.63S134.86,99.24,135,99.08Z"/><path class="cls-1" d="M99.34,171c-.35-.94-1.69-1.56-.7-2.92.87-1.18,1.66-.24,2.49-.16A3,3,0,0,1,99.34,171Z"/><path class="cls-1" d="M154.11,127.21l-2.69,3.49c-1.1-2.06,1.41-3.64.47-5.51Z"/><path class="cls-2" d="M197.9,67.51l-1.13.88c-1.7-.18-3.08,1.6-4.88.78V68.5C193.69,67,195.8,67.27,197.9,67.51Z"/><path class="cls-1" d="M228.82,51.28c1,.35.92,1.21,1,2-.55.9-1,2.32-2.35,1.53-1.06-.63.17-1.65.25-2.51l0,.05C228.13,52.07,228.25,51.44,228.82,51.28Z"/><path class="cls-2" d="M281.77,139.09,280.65,138c-.21-1.53.7-2.35,1.9-3C283.49,136.61,283.86,138.08,281.77,139.09Z"/><path class="cls-1" d="M225.89,136.17c-1.21,1.59-2.31,3.32-5.36,4.18l3.42-4.22Z"/><path class="cls-2" d="M265.66,164.2c0,.32,0,.64,0,1-1.27-.25-1.53,2.34-3.09,1.11a1.23,1.23,0,0,1-.27-1.16C263.08,163.78,264.38,164,265.66,164.2Z"/><path class="cls-2" d="M171,137.12l2.83-2c0,.66.09,1.33.13,2l.07-.07c-1.09,1.17-1.68,3.2-4,2.32C169.32,138.22,170,137.6,171,137.12Z"/><path class="cls-2" d="M249,150.29a4.34,4.34,0,0,1-3.8,2.65C245.78,151.29,246.5,150.18,249,150.29Z"/><path class="cls-2" d="M228.81,202.8l-.15-1.83a3.59,3.59,0,0,0,2.16-2.15c.45.37,2.1-.22,1.24,1.13A6.05,6.05,0,0,1,228.81,202.8Z"/><path class="cls-2" d="M257.65,178l2.91-1.92a3.15,3.15,0,0,1-2.47,3.63C255.94,180.1,258.05,178.52,257.65,178Z"/><path class="cls-2" d="M171,137.12,170,139a.53.53,0,0,1-.89.21c-1.72-1-.36-2.09-.06-3.14h1.9Z"/><path class="cls-2" d="M240.68,101.19c.32,1,1.49,2.17-.42,2.59-.59.13-2-.66-2-1,0-1.46,1.29-1.55,2.45-1.53Z"/><path class="cls-1" d="M294.68,133.09l.75-1a3.27,3.27,0,0,0,2.18-2.07c1.12-.42,1.42.58,2,1.14l-.05-.07A5,5,0,0,1,294.68,133.09Z"/><path class="cls-2" d="M126.3,39.73c-1,.5-1.09-.14-1.14-.79a1.19,1.19,0,0,1,1.4-1.44c.59,0,1.37,0,1.35.93C127.88,39.55,126.75,39.31,126.3,39.73Z"/><path class="cls-2" d="M181.26,127.31c.13,2.35-1.09,3.16-3,3.3Z"/><path class="cls-2" d="M243.68,104.11c0,.41.06.82.08,1.23-.46.84-1,1.69-2.06,1.69-.27,0-.81-.61-.77-.87C241.17,104.64,242.34,104.23,243.68,104.11Z"/><path class="cls-2" d="M112.93,202.13c0,3.11-1.18,3.7-2.48,4.49C110,204.58,111.83,204.26,112.93,202.13Z"/><path class="cls-1" d="M249.67,117.35c3.6.8-.62,1.84.09,2.73C247.3,119.25,249.8,118.26,249.67,117.35Z"/><path class="cls-2" d="M199.79,104.51c.08,1.25-.44,1.72-1.38,1.64a2.06,2.06,0,0,1-1-.49,2.66,2.66,0,0,1,1.89-1.87C199.41,103.76,199.71,104.38,199.79,104.51Z"/><path class="cls-2" d="M263.24,36.47c.71.3,1.28.36.8,1s-.26,1.65-1.28,1.78a.8.8,0,0,1-.88-1.2A6.8,6.8,0,0,1,263.24,36.47Z"/><path class="cls-2" d="M195.4,171.59c1.52-1.84,1.15-3.68,2.62-3.31s.58,1.42-.08,2.07A15.15,15.15,0,0,1,195.4,171.59Z"/><path class="cls-1" d="M140,330.41c.63-.85,1.13-2.39,2.42-1.44.44.32-.28,1.95-1.27,2.59Z"/><path class="cls-2" d="M299.58,131.18l-2-1.14a4.15,4.15,0,0,1,2.8-2.51Z"/><path class="cls-1" d="M137.1,167.14v-1.22c1.35-.59,3.32-2.94,3.06,1.07l-1.22.08A1.34,1.34,0,0,1,137.1,167.14Z"/><path class="cls-2" d="M218.69,190l-1.82,2.85c-2.05-1,0-2,0-3Z"/><path class="cls-2" d="M150,119.2a5,5,0,0,1,2.79-2.78c-.09,2.07-1,2.85-2.85,2.71Z"/><path class="cls-2" d="M124,128.19c.46,1.22-.66,2-.86,3C121.52,129.64,121.45,128.55,124,128.19Z"/><path class="cls-2" d="M229.48,161.93l3.08-2.91C232.62,161.32,231.7,161.84,229.48,161.93Z"/><path class="cls-2" d="M123,162.09c0,.64,0,1.28,0,1.91l-1.61,1.55C120.72,163.84,121.43,162.77,123,162.09Z"/><path class="cls-2" d="M106.62,174c-.71.29-1.32.77-1.85.69s-.92-.73-1.38-1.14c.33-.35.59-.83,1-1C105.19,172.05,105.37,173,106.62,174Z"/><path class="cls-2" d="M194.4,173c-.07,1.53-1.11,2-2.36,3C192.07,174,192.73,173.32,194.4,173Z"/><path class="cls-2" d="M235.36,183c.62,2.06.16,3-1.11,3.58C233.29,185.13,234.91,184.44,235.36,183Z"/><path class="cls-2" d="M227.74,12.8c-.06.83-.08,1.58-1,1.49-.31,0-.86-.72-.79-.86A7.86,7.86,0,0,1,227.11,12Z"/><path class="cls-2" d="M151.29,15.92l-4.51,1.25C148,14.87,149.27,15.59,151.29,15.92Z"/><path class="cls-2" d="M251.59,122.22a2.83,2.83,0,0,1,3.2,0Q253.2,125.37,251.59,122.22Z"/><path class="cls-1" d="M200.9,65.37l-3.09,1.81,1.11-2.93C199.7,64.41,200.66,64.25,200.9,65.37Z"/><path class="cls-1" d="M111.19,70.22c.7.62,2.45,1,1.12,2.26s-1.71-.11-2-1.18Z"/><path class="cls-2" d="M206.85,84.31a5,5,0,0,1,2.79-2.78c-.09,2.07-1,2.85-2.85,2.71Z"/><path class="cls-2" d="M172,100.29c-.09-1.58.38-2.74,2.28-2.9,0,1.7-1.19,2.25-2.35,2.84Z"/><path class="cls-2" d="M200.68,346.77c-.71,1.06-1.24,2-2.76,2.32C198.16,347.36,198.67,346.39,200.68,346.77Z"/><path class="cls-2" d="M111.08,190l-1-1.17.09-.77,1.87-.09.51.33c0,.2-.06.41-.08.61a3.85,3.85,0,0,1-.85.86Z"/><path class="cls-2" d="M137.1,167.14l1.84-.07c-.39,1-.6,2.28-2.05,1A2.75,2.75,0,0,0,137.1,167.14Z"/><path class="cls-2" d="M270.76,201l-1.12,0,1-1.83C272.18,199.59,271.72,200.25,270.76,201Z"/><path class="cls-2" d="M105.27,134.09a2.93,2.93,0,0,1-.08-.83l.41-.45.52.3Z"/><path class="cls-1" d="M259.56,210.85l1-.92a.62.62,0,0,1,.35.56q0,.36-.12.36Z"/><path class="cls-2" d="M260.78,210.85c-.07-.31-.15-.61-.23-.92l1.09.8-.42.12Z"/><path class="cls-2" d="M107.12,132.11a1,1,0,0,1-1,1l.07.06c-.25-.24-.33-.47-.23-.68s.2-.32.29-.32l0,0,.42-.48Z"/><path class="cls-2" d="M108.11,131.26l-1,.85.07.06c-.28-.23-.37-.47-.28-.71s.18-.35.28-.35l-.07.06A.58.58,0,0,1,108.11,131.26Z"/><path class="cls-1" d="M108.11,131.26l-1-.09c.06-.33.13-.66.2-1Z"/><path class="cls-2" d="M143.88,120.18c-.3,0-.6,0-.91-.05l1.1-1C144,119.48,143.94,119.83,143.88,120.18Z"/><path class="cls-2" d="M300.38,137.13c-.27,0-.53,0-.8.05l-.45-.45c.1-.19.21-.37.32-.56l.93,0Z"/><path class="cls-2" d="M144,119.22c.09-.57.35-1,1-.93Z"/><path class="cls-2" d="M188.73,107.19l-.8-1,.48-.36.45.4Z"/><path class="cls-2" d="M188.86,105.26l.69.31-.69.62.07.06c-.15-.15-.29-.31-.44-.47Z"/><path class="cls-2" d="M187.93,105.29l.8-1c0,.34.09.68.13,1l.07-.07A.64.64,0,0,1,187.93,105.29Z"/><path class="cls-2" d="M199.9,177l.38-.79.54.65c-.13.17-.27.33-.4.49Z"/><path class="cls-2" d="M253.86,224.87l.81.81C254,225.78,253.76,225.51,253.86,224.87Z"/><path class="cls-1" d="M198.75,178a1.76,1.76,0,0,1-.91-.12L199,177c.24.28.29.5.14.68A.5.5,0,0,1,198.75,178Z"/><path class="cls-2" d="M198.75,178c.08-.3.15-.61.23-.91a5.64,5.64,0,0,1,.92,0l-.07-.07a.64.64,0,0,1,.31.63c0,.25-.1.37-.17.37Z"/><path class="cls-1" d="M263.78,226.88l-1.09.79Z"/><path class="cls-1" d="M200,178c-.05-.33-.1-.67-.14-1l1-.06c0,.31,0,.63,0,.94l-.44.12Z"/><path class="cls-1" d="M134.07,102.07l-.43.13h-.45a.58.58,0,0,1-.26-.6c0-.22.12-.33.18-.33l.51-.23.5.26C134.09,101.55,134.08,101.81,134.07,102.07Z"/><path class="cls-2" d="M116.09,186l.92-1C117,185.66,116.65,185.92,116.09,186Z"/><path class="cls-2" d="M115.09,187l1.07-1.08Z"/><path class="cls-2" d="M114.09,188l1.08-1.07Z"/><path class="cls-2" d="M113.21,188l1-.06-1.06,1-.37-.51Z"/><path class="cls-2" d="M113.11,188.92a1,1,0,0,1-1,1l-.32-.52.38-.48-.07.07a.64.64,0,0,1,1.07,0Z"/><path class="cls-1" d="M135,100.35a7.78,7.78,0,0,0,.16.84l-1.06.1-.13-.13a.88.88,0,0,1,.16-1A.55.55,0,0,1,135,100.35Z"/><path class="cls-2" d="M111.14,190.79a6.48,6.48,0,0,0-.06-.77l.14-.13a.63.63,0,0,1,1,.1l-.06-.07C112.06,190.51,111.79,190.87,111.14,190.79Z"/><path class="cls-1" d="M257.68,40.27l-1,.12.06.07.92-1.1A9.1,9.1,0,0,1,257.68,40.27Z"/><path class="cls-2" d="M142.08,93.37a2.23,2.23,0,0,1,.85-.07c.09.6-.21.88-.78.91A2.18,2.18,0,0,1,142.08,93.37Z"/><path class="cls-2" d="M189.42,70.54c.09.1.25.21.25.31s-.19.18-.3.27c-.09-.1-.25-.21-.25-.31S189.31,70.63,189.42,70.54Z"/><path class="cls-2" d="M191.89,68.5v.67l-.8-.33Z"/><path class="cls-1" d="M119.05,197.89l1-.91a1.3,1.3,0,0,1-.06,1C119.65,197.93,119.35,197.92,119.05,197.89Z"/><path class="cls-1" d="M118.15,198.1a5.05,5.05,0,0,1,.92-.26C118.89,198.39,118.62,198.61,118.15,198.1Z"/><path class="cls-2" d="M117.08,40.39l-.38.78c-.68-.76.16-.56.45-.71Z"/><path class="cls-2" d="M117.29,39.45l.8.81-1,.13.07.07C117.2,40.12,117.24,39.79,117.29,39.45Z"/><path class="cls-1" d="M257.59,39.39a4.93,4.93,0,0,1,.26-.93,4,4,0,0,1,.15.75S257.73,39.33,257.59,39.39Z"/><path class="cls-1" d="M239.58,204.91c.1.67-.29.94-.87,1,.06-.35.12-.69.19-1Z"/><path class="cls-2" d="M161,23.37a5.68,5.68,0,0,1,0-.92l-.07.07.49-.39.52.33a3,3,0,0,1-.08,1h-.43Z"/><path class="cls-2" d="M161.88,21.53l.93,0c.09.65-.27.91-.86,1l.07.06a.7.7,0,0,1-.29-.63Q161.77,21.53,161.88,21.53Z"/><path class="cls-1" d="M179,266.55a53.26,53.26,0,0,0-8.34,4.25c2.21-2.3,4.35-4.66,6.64-6.88,2.83-2.74-.19-2-1.35-2.35-.55-.27-1.17-.46-1.31-1.19a3.56,3.56,0,0,1,1-2.24,11,11,0,0,1,2.32-1.93c.31-.22.63-.42,1-.62.14-.11.3-.21.45-.32l.84-.69.4-.36c.24-.25.51-.48.78-.71l.4-.32c.61-.44-.38-.82-.05-1.26a4.52,4.52,0,0,1,1.12-1.45c2.41-3.41,5.92-4.55,9.85-4.82.45.26.9,1.16,1.37.49.19-.27-1.25.09-1.56-.72-.13-.34-.29-.74-.13-1a33.94,33.94,0,0,1,17.36-13.57c.91,1.57-2.7,3.25.13,4.77.37-.25.73-.52,1.09-.8l5.14-2c-1.61,3.34-4.24,5.29-4.79,8.49,1.74,1.33,2.25-2.32,4.07-1.19-.77,2.68-4.54,3.31-4.49,6.51.65,2.44-1.39,3.48-2.68,4.79-2.87,2.91-5.57,6-8.84,8.52-.46.32-1,.6-1.39,1a3.72,3.72,0,0,0-.68,1.38,1.48,1.48,0,0,1-.64.81.78.78,0,0,1-.89-.37c-1.19,1.05-2.4,2.08-3.57,3.14-.93.85-1.87,2.43-3.13,1.66s-.7-2.54-.22-3.89l.2-.07-.13.14c-.95-.86-4.09,3.15-3.31-1.5L183,263.83C181.28,264.23,180.54,266,179,266.55Z"/><path class="cls-1" d="M197.76,259.79a90.83,90.83,0,0,0,13.12-13.11c1.11-.29.53,2.81,2.38,1.16,2.19-2,4.5-3.78,6.68-5.75,1.05-1,1.28-3.2,3.6-1.39,2.57,2,.21,3.34-.62,4.29-4.62,5.25-9.51,10.27-14.24,15.42a69.23,69.23,0,0,1-8.77,8.68c-.58-2.12,3.94-4.41-1-5.25a1.92,1.92,0,0,1-1.31-.9,4.83,4.83,0,0,1-.14-1.07c0-.36,0-.71,0-1.07A3.23,3.23,0,0,1,197.76,259.79Z"/><path class="cls-1" d="M195.82,227.94c-.64.47-1.29.92-1.93,1.4-.85.63-1.48,2.06-2.84,1-1.9-1.41.32-2,.67-3a16.23,16.23,0,0,0,.71-2.88c-2.22,3.89-3.16-.48-4.77,0-2.23.73-4.42,1.59-6.62,2.39-1.39.69-2.25,2.56-4.24,1.93.52-5.18,7.28-9.79,12.53-9.41,2.13.16,4.39,1,6.47.39,3.21-1,3.24.91,3.22,3.06a2.38,2.38,0,0,1,.41,1.29A5,5,0,0,1,195.82,227.94Z"/><path class="cls-2" d="M192.91,245.76c-3.46,1.71-7.38,2.66-9.89,6-2-2.57.26-3.6,1.77-4.9l13.19-12a11.76,11.76,0,0,1,5-5.39c2.67-1.07,4.57-3.79,7.8-3.65.6,1.91,1.63,3.91-1.05,5.15-4.66,3.53-9.38,7-14,10.63-1.36,1.07-3.07,2.14-2.93,4.33Z"/><path class="cls-1" d="M172.84,253.8c-2.86.08-4.27,2.49-5.47,4.3s-3.18,2.81-4.42,4.51c-2.26,1.28-4,3.19-5.86,4.92-1.1,1-2.19,2.63-4,1.07,2.77-3.71,6.41-6.75,8-11.36,1.5-4.31,5.85-6.15,9.08-8.79,1.46-1.19,5.32-2.3,5.83,2.21C176.28,253.05,175.2,254.07,172.84,253.8Z"/><path class="cls-1" d="M195.9,204.88l-11,10.12c4.72-7.41,8.81-15.22,16-20.56,1.25-.93,1.92-2.87,4-2.32,2.87,2.69-.58,3.58-1.48,5.19a55.46,55.46,0,0,0-3.58,4.49,8.41,8.41,0,0,1-.9.89,23.11,23.11,0,0,1-2.4,2Z"/><path class="cls-1" d="M124.11,259.43c-2.58,5.24-8.55,7-11.38,11.82-.2.34-1.3.47-1.8.26-1.06-.46-.56-1.25-.16-2a6.42,6.42,0,0,1,2.44-2.9,7.22,7.22,0,0,0,3.6-4.59C117.57,259.33,120.5,257.55,124.11,259.43Z"/><path class="cls-1" d="M193.05,211.91c0-1.12.87-1.58,1.7-2a48,48,0,0,1,9.05-9.77c1.9.4,2.61-2.45,5.09-1.68-2.14,3.65-4,7.55-7.72,9.23-2.87,1.29-2.9,6.37-7.31,5.08A1.18,1.18,0,0,1,193.05,211.91Z"/><path class="cls-1" d="M184.79,246.82c-.66,1.61-2.57,2.76-1.77,4.9L182,252.88a.61.61,0,0,1-.08.92l.08-.08c-.37.35-.73.71-1.08,1.07l.08-.08c-.37.36-.72.71-1.07,1.08l.07-.07a2,2,0,0,1-1.11.5c-1.89.18-2.92,1.52-3.91,2.91-2,1.28-3.07,4-6,3.65-.14-2.95,3.23-3.59,3.92-6a9.6,9.6,0,0,1,5.14-5.15C180.74,250.73,181.49,247,184.79,246.82Z"/><path class="cls-1" d="M218.51,253.36C217,259.2,212.09,262.44,209,267c-.53.78-1.12.19-1.55-.28-.67-.74-.4-1.38.11-2.17C210.43,260.07,214.42,256.66,218.51,253.36Z"/><path class="cls-1" d="M160,249.67c1.22.39,3.78.27,1.94,2.45-3.31,3.91-6.11,8.37-11,11.49.53-3.33,1-5.85,4-7.6,1.72-1,4.08-2.38,3.92-5.19A1.37,1.37,0,0,1,160,249.67Z"/><path class="cls-1" d="M232.66,212.75c-2.93,4.5-6.26,8.5-10.93,11.12C224,218.74,227.43,214.82,232.66,212.75Z"/><path class="cls-2" d="M153.06,268.6c2.62.27,3.44-2.13,4.92-3.46s2.76-2.75,5-2.53c-3.94,4.45-7.3,9.54-13,12a4.88,4.88,0,0,1-.85-.85C150.39,272.07,151.73,270.34,153.06,268.6Z"/><path class="cls-1" d="M144,232c-1.13-.38-4.2.4-1.34-2.31,1.43-1.36,2.78-2.79,4.18-4.17,1-1,2.29-2.57,3.64-1.15s.59,3.06-.79,4.3c-.85.75-1.73,1.48-2.59,2.22a5.14,5.14,0,0,1-.9.47,4.89,4.89,0,0,0-.84.59l-.43.3A.92.92,0,0,1,144,232Z"/><path class="cls-1" d="M195.82,227.94l3.08-4.2a6.31,6.31,0,0,1,1-.84l0,0a4.15,4.15,0,0,1,1.08-1.05c1.76.34,3.15-.71,4.73-1.44-3,4-5.32,8.26-9.68,11.23Z"/><path class="cls-1" d="M210.78,225.73c-2.56,1.53-4.52,4.19-7.89,4.22a.79.79,0,0,1-.32-.8c.08-.29.15-.43.24-.43,2.24-4,6.62-5.94,9.88-10.74C212.34,221.58,209.9,223.28,210.78,225.73Z"/><path class="cls-1" d="M142.07,202.75l-3.75,2.59c2-5.23,5.91-7.68,7.58-11.57.55-1.28,1.93.63,3,.22a8,8,0,0,1,.16.85C148,198.58,145.24,200.85,142.07,202.75Z"/><path class="cls-1" d="M142.07,202.75l7-7.91,1.55.82c-4,2.8-3.54,9.06-8.54,11.13C140.38,205.45,145.88,204.09,142.07,202.75Z"/><path class="cls-1" d="M124.14,231.71a3.3,3.3,0,0,1,0-.77c2.3-2.06,4.59-4.13,7.23-6.51,1.25,3.48-2.55,4.73-2.24,7.29.27,1-.1,1.43-1.15,1.15l-1.85.83C126.25,232.26,125.44,231.74,124.14,231.71Z"/><path class="cls-1" d="M163.88,210c1.57,5.15-4.28,5.11-5.84,8.11-.18.33-2.92,1.5-3.2-1.16-.3-2.19,1.46-2.74,2.84-3.6C160.2,213,161.49,210.48,163.88,210Z"/><path class="cls-1" d="M203.8,200.09c-1.78,4.41-5.58,6.93-9.05,9.77q.58-2.49,1.15-5l-.07.06c1.37-.67,2.07-2,3.07-3.06l-.08.07c1.71-.69,2.49-3.55,5.09-2.19Z"/><path class="cls-1" d="M127,250.72c-.39,2.52-2.82,3.53-4.1,6.68-.41-2.76-3.07-3.39-1.78-5.67l-.08.08c1.81-1.52,3.75-2.23,6-1Z"/><path class="cls-1" d="M226.9,231.86c1.6-1.35,2.08-5.27,5.7-2.36-2.76,2-4.09,5.66-7.86,6.35C224.31,233.9,226.19,233.19,226.9,231.86Z"/><path class="cls-1" d="M140.05,246c-2.2-1.66-.1-2.54.78-3.33a49.82,49.82,0,0,1,4.73-3.39c1.74,2.46-2.11,3.34-1.57,5.45A3.36,3.36,0,0,1,140.05,246Z"/><path class="cls-1" d="M169.92,225.88l6.29-4c-2.07,3.12-3.48,6.66-6.94,8.64.25-1.65.48-3.19.72-4.74Z"/><path class="cls-2" d="M168.92,262.78c2.36-.8,3-4,5.91-4.08a.83.83,0,0,1,1.23.08c-.32.66-.64,1.32-.95,2a.73.73,0,0,1-.21,1l.08-.08a10.89,10.89,0,0,0-.93,1c-2.38-.11-3.24,2.41-5.21,3a2.14,2.14,0,0,1,.15-3Z"/><path class="cls-2" d="M163.88,210c-1.58,1.91-2.73,4.41-5.86,4.07-.62-.88-.23-1.66.2-2.45a1.46,1.46,0,0,1,1.65-.72c1.12-.89,2.24-1.78,3.35-2.69.63-.52,1.42-1.23,2-.26C165.9,209.1,164.68,209.49,163.88,210Z"/><path class="cls-1" d="M235.28,229.78c2.57-4.2,5.65-6.47,8.74-8.73C241.69,224.09,240.09,227.88,235.28,229.78Z"/><path class="cls-1" d="M160,249.67l-1.15,1.15-1.93-.09.07.07a43.29,43.29,0,0,1,8.94-9l-.06-.06C165.61,245.62,161.37,246.56,160,249.67Z"/><path class="cls-1" d="M170,225.81a10.17,10.17,0,0,0-6.33.1c1-2.5,2.05-3.9,4-4.45-.27,2,4.37,1.49,2.25,4.42Z"/><path class="cls-1" d="M178,251.65a14.74,14.74,0,0,1-5.14,5.15c-4.26-1,1.32-2,0-3a6.3,6.3,0,0,0,3.15-3.14C176.73,250.83,177.63,250.69,178,251.65Z"/><path class="cls-1" d="M166,241.81c1.12-2.56,2.48-4.88,5.53-5.64-1.33,2.37-1.56,5.79-5.58,5.58Z"/><path class="cls-2" d="M159,211.77,158,214c-.86,1.18-2.74,1.24-3.18,2.88-.64.17-1.33,1.07-1.87-.14-1.33-2.26.89-2.75,1.92-3.83l1.16-1.15C157,211.26,158,210.91,159,211.77Z"/><path class="cls-1" d="M238.84,206.87l.78.08c.68,2.13-2.36,2.79-1.92,4.83-1-.34-2.23,1.45-2.75.13-.6-1.5.59-2.89,1.67-4a3.34,3.34,0,0,0,1.09-1.06l0,.05A.82.82,0,0,1,238.84,206.87Z"/><path class="cls-1" d="M141.62,261.94c2-1.57,3.23-3,5.63-1.82,1,.51.65,1,.42,1.37C146.23,264,144.25,263.11,141.62,261.94Z"/><path class="cls-1" d="M169,262.69l-.15,3c-1.62,1.27-4,.87-5.51,2.55C164.42,265.51,165.9,263.28,169,262.69Z"/><path class="cls-1" d="M144.87,233.82c.81,3.63-2.48,4.59-4.38,7.08-1.1-4,2.87-4.71,3.71-7.08Z"/><path class="cls-1" d="M202.82,197.06c.24-1.83,3.56-2.38,2.06-4.94,2-.22,3.82-.54,2.1,2.53a10.1,10.1,0,0,1-3.13,3.45C203,198.21,202.69,197.87,202.82,197.06Z"/><path class="cls-1" d="M202.81,228.72c0,.41.05.82.08,1.23a18,18,0,0,1-4.91,4.82C197.56,231.13,200,229.74,202.81,228.72Z"/><path class="cls-1" d="M201,214.75a6.73,6.73,0,0,1,3.22-3.37c.7-.36,1.68.89,1.39,1.4-.73,1.27-1.62,2.64-3.22,3A1,1,0,0,1,201,214.75Z"/><path class="cls-1" d="M296.35,290.38l-6.55,6.3C290.75,293.69,294.06,292.39,296.35,290.38Z"/><path class="cls-1" d="M154.89,212.93c-.27,1.46-2.25,2.07-1.92,3.83l-3.36,2.74C150.94,216.94,151,213.39,154.89,212.93Z"/><path class="cls-1" d="M146.26,237.45c1.5-1.73,2.34-3.87,5.45-3.44C150.42,236,150,238.6,146.26,237.45Z"/><path class="cls-2" d="M202.82,197.06l1,1,.06,1.66c-2.1-.2-2.92,2.55-5.09,2.19C199.86,200.08,200.45,197.85,202.82,197.06Z"/><path class="cls-1" d="M197.76,262.69l1.15,1.15a9.4,9.4,0,0,1-4.43,3.76c.48-1.66,2-3,1.28-4.83l1.22-.08Q197.37,262.15,197.76,262.69Z"/><path class="cls-2" d="M140.05,246a5.7,5.7,0,0,1,3.94-1.27c.82,1.44.67,2.56-1.06,3.14a1.18,1.18,0,0,1-1.77,0A1.93,1.93,0,0,1,140.05,246Z"/><path class="cls-1" d="M246.68,250.81l5.59-4.4C251.78,248.22,249.12,249.52,246.68,250.81Z"/><path class="cls-1" d="M139.09,265.83l-1.84,5.35C136,267.47,136,267.47,139.09,265.83Z"/><path class="cls-1" d="M167,215.93a11.74,11.74,0,0,1,5.32-4.75C171.28,214.51,170.2,215.82,167,215.93Z"/><path class="cls-1" d="M127.1,250.79c.53-2.63,3.42-3.34,4.83-6.23-.07,4-1.85,5.62-4.89,6.16Z"/><path class="cls-1" d="M132.38,238.52c-1.08,3-2.19,4.4-5.1,4.13A8.2,8.2,0,0,1,132.38,238.52Z"/><path class="cls-1" d="M158.51,286l-5.79,5.71A9.62,9.62,0,0,1,158.51,286Z"/><path class="cls-1" d="M139,252.75,134.35,258l-1-1c1.86-1.44,2.63-4.07,5.73-4.18Z"/><path class="cls-1" d="M176.8,228.81c1.5-.45,2.41-2.18,4.24-1.93-.24,2.38-2.45,3.09-4,3.64C175.73,231,175.83,229.61,176.8,228.81Z"/><path class="cls-1" d="M177.21,212.92c-.35,2.4-1,4.47-4.24,3.53Z"/><path class="cls-1" d="M164.91,299.36c.39-3.32,1.89-3.91,3.79-5.32C168.77,297.4,167.07,297.79,164.91,299.36Z"/><path class="cls-1" d="M176,305.86l4.78-4.61C180.41,304.51,178.57,305.47,176,305.86Z"/><path class="cls-1" d="M159,211.77h-2.9c.6-.74,1.15-1.54,1.81-2.21.5-.52,1.07-1.56,1.8-1,.41.31.16,1.5.21,2.29Z"/><path class="cls-1" d="M141.16,247.82h1.77c-.82,2-1.65,4-3.9,4.93l.07.06C138.55,250.64,141.45,249.89,141.16,247.82Z"/><path class="cls-1" d="M157,250.73c0,2.34-1.07,3.33-3.54,2.76.7-1.71,1.68-2.82,3.61-2.69Z"/><path class="cls-1" d="M307.06,278.75c-.89-2.28-.15-3.25,1.12-3.87.25-.11,1.08.3,1.11.54C309.5,277.05,307.91,277.36,307.06,278.75Z"/><path class="cls-1" d="M249.76,216.77a3.24,3.24,0,0,1-2.17,2.06c.32-1.77-.49-4,2-4.9C249.65,214.88,249.7,215.82,249.76,216.77Z"/><path class="cls-2" d="M226.9,231.86c.17,1.81-1.69,2.52-2.16,4l.09-.07a1.45,1.45,0,0,1-2,.15A8.27,8.27,0,0,1,226.9,231.86Z"/><path class="cls-1" d="M179,266.55c1.28-1,1.44-3.63,4-2.72C181.91,265.16,181.18,267,179,266.55Z"/><path class="cls-1" d="M257.56,232.58c-.05-1.42.16-2.77,1.73-3.43C259.91,230.84,258.57,231.64,257.56,232.58Z"/><path class="cls-1" d="M240.73,232.8c-.63,1.39-1.56,2.45-4.13,3.31,1.37-2.17,2.14-3.42,4.19-3.24Z"/><path class="cls-1" d="M223.64,227.41a9.45,9.45,0,0,1-1.93,1.79c-1,.46-.84-.51-.85-1,0-1,.56-1.41,1.49-1.28A6.71,6.71,0,0,1,223.64,227.41Z"/><path class="cls-1" d="M128,232.87l1.15-1.15a8.31,8.31,0,0,1,1.66-.25c.51,1.48-.81,2.11-1.66,2.63C127.74,234.94,128.34,233.33,128,232.87Z"/><path class="cls-1" d="M219.65,213.46a9.65,9.65,0,0,1-1.93,1.78c-1,.46-.83-.51-.85-1,0-1,.56-1.4,1.5-1.28A7.16,7.16,0,0,1,219.65,213.46Z"/><path class="cls-1" d="M222.83,235.93l2-.15c-.13.28-.19.67-.41.83-.74.54-.49,2.36-1.6,1.94C221.43,238,223.32,236.84,222.83,235.93Z"/><path class="cls-1" d="M135,223.58l-.67.77a6,6,0,0,1-1.12-1.44c-.23-.58.33-.87.83-.87C135,222,135,222.77,135,223.58Z"/><path class="cls-1" d="M143.32,225.36l2-2.23c1.05.83.5,1.38-.05,2A1.29,1.29,0,0,1,143.32,225.36Z"/><path class="cls-1" d="M297.51,267.66c.08,1.58-.39,2.74-2.29,2.9,0-1.7,1.19-2.25,2.36-2.84Z"/><path class="cls-1" d="M121.15,226.73c-.23-2.42,1.54-1.78,2.84-1.84A2.25,2.25,0,0,1,121.15,226.73Z"/><path class="cls-1" d="M237.79,214c.94-.53,1.78-1.32,3-1.14C239.64,212.86,240.41,217.86,237.79,214Z"/><path class="cls-1" d="M193.05,211.91l.81.81-1,.13.06.06Z"/><path class="cls-1" d="M192.86,212.85l-.39.78c-.68-.77.17-.56.45-.72Z"/><path class="cls-1" d="M128.13,218.76l.49-.7c.12.25.23.51.35.77h-.42Z"/><path class="cls-2" d="M201,221.89l-1.08,1.05Z"/><path class="cls-2" d="M199.93,222.9l-1,.84a1.7,1.7,0,0,1,.12-.89A9.08,9.08,0,0,1,199.93,222.9Z"/><path class="cls-1" d="M145.93,230.87h1.21l-1.13.92-.38-.43Z"/><path class="cls-1" d="M146,231.79a1,1,0,0,1-1,1l-.37-.53c.15-.15.29-.31.44-.47l-.08.07a.7.7,0,0,1,1.08,0Z"/><path class="cls-1" d="M144.87,233.82h-.67a1.73,1.73,0,0,1-.12-.9c.3-.42.63-.47,1-.06l-.07-.07Z"/><path class="cls-2" d="M211,234.85l-1.09.8Z"/><path class="cls-2" d="M145.07,232.86l-1,.06c0-.31,0-.63,0-.94l1-.19Z"/><path class="cls-1" d="M149.06,251.79l.39-.77c.67.76-.16.56-.45.71Z"/><path class="cls-1" d="M149,251.73l-.4.77c-.67-.76.18-.56.46-.71Z"/><path class="cls-1" d="M174.9,261.77l.21-1,.8.81Z"/><path class="cls-1" d="M174.05,262.68c0-.63.37-.89.93-1Z"/><path class="cls-1" d="M149.06,273.8c.63-.06.91.23.85.85l-.46,0-.45,0,.06.07A4.71,4.71,0,0,1,149.06,273.8Z"/><path class="cls-1" d="M149,274.65l-.4.78c-.67-.76.18-.56.46-.71Z"/><path class="cls-1" d="M146.07,277.71l.38-.77c.68.76-.15.56-.44.71Z"/><path class="cls-1" d="M145.07,278.7a.93.93,0,0,1,1-1l-.06-.06a.93.93,0,0,1-1,1Z"/><path class="cls-1" d="M145,278.64l-.39.78c-.68-.77.17-.56.45-.72Z"/><path class="cls-1" d="M238.84,206.87h-1.16l1.09-1Z"/><path class="cls-1" d="M237.71,206.81l-1.09,1.06Z"/><path class="cls-1" d="M160.88,30.5A6.24,6.24,0,0,0,164,27.36c1.35-1.3,3.17-1.38,4.83-1.84.69,2.59,4.06-1.79,3.88,1.22-.19,3.25-3.18,5.22-5.86,6.49-1.65.79-4.09.48-6,0S161,31.44,160.88,30.5Z"/><path class="cls-2" d="M190.78,25.52l.94-.05a1.9,1.9,0,0,1,.21,2.88c-1.08,2.4-3.61,3.69-4.44,6.46-.68,2.23-1.92.81-2.62-.49-.61-1.5.35-2.58,1-3.75A3.52,3.52,0,0,1,188,28.42C188.94,27.45,189.89,26.52,190.78,25.52Z"/><path class="cls-1" d="M147.73,45.32c4-3.18,5.83-8.19,9.51-10.4L146.8,44.27Z"/><path class="cls-1" d="M135.11,74.43,135,73.2l9.51-8.48C141.84,68.42,139.67,72.64,135.11,74.43Z"/><path class="cls-1" d="M195.85,29.48,200.53,27c2,5.13-4.45,4-5.3,7l.69-4.59Z"/><path class="cls-1" d="M172.43,43.74c-2.68,2.75-5.46,5.31-7.09,6.66Z"/><path class="cls-1" d="M191.93,28.35l-.21-2.88c.87-1.5,2.24-.93,3.48-.85l-.27,1.75c.31,1.74-.39,2.48-2.15,2.14A8,8,0,0,1,191.93,28.35Z"/><path class="cls-1" d="M195.27,49.71c-1.28,1.78-1.55,4.33-4.2,5.37C190.79,51.8,192.93,50.67,195.27,49.71Z"/><path class="cls-1" d="M185.86,30.57a4.64,4.64,0,0,1-1,3.76c-.86.21-1.5,1.63-2.52.7-.84-.77,0-1.49.56-2C183.85,32.15,184.87,31.38,185.86,30.57Z"/><path class="cls-1" d="M229.71,41.18,224.28,46C225.52,42.68,227.06,41.48,229.71,41.18Z"/><path class="cls-1" d="M192.78,28.51a3.58,3.58,0,0,0,2.15-2.14c1.39.72.8,2,.92,3.11l.07-.08C194.64,29.91,193,31.63,192.78,28.51Z"/><path class="cls-1" d="M190,40.38c1.93,2.21-.38,3.08-1.55,3.37-.9.23-.3-1.58-.73-2.38l.24-.55a2.79,2.79,0,0,1,1-.71A1.06,1.06,0,0,1,190,40.38Z"/><path class="cls-2" d="M123.15,72.44c-1.17.87-1.38,3.74-3.87,1.85C120.82,74.2,120.91,71.06,123.15,72.44Z"/><path class="cls-1" d="M228.82,51.28l-1.14,1.07c-.33-1.85-1-3.81,1.69-4.58C230.34,49.08,228.22,50,228.82,51.28Z"/><path class="cls-2" d="M146.93,82.35c-.85,0-2.13,1.62-2.24.43-.14-1.48,1.57-2.47,3.29-2.59A2.07,2.07,0,0,1,146.93,82.35Z"/><path class="cls-1" d="M212.13,24.85c.69,1.08,2.17,2,.48,3.2-.31.22-1.11.28-1.28.08C210.06,26.63,212.47,26.16,212.13,24.85Z"/><path class="cls-1" d="M190.78,25.52c.19,2-.8,2.93-2.77,2.9C187.82,26.39,188.81,25.48,190.78,25.52Z"/><path class="cls-1" d="M196.63,40.94c-.16.17-.53.87-1,1-.35.08-1.29-.66-1.27-1a1.47,1.47,0,0,1,1.61-1.37C196.44,39.6,196.85,39.89,196.63,40.94Z"/><path class="cls-1" d="M127.14,77.36c-.2-1.92,1-2.85,2.87-3.84-.2,2.21-1.55,3-2.94,3.78Z"/><path class="cls-2" d="M139.16,83.34c-.74.93-1.46,2.75-2.78,1.29-.84-.93.69-1.84,1.63-2.44Z"/><path class="cls-1" d="M107,115c-.16-.19-.72-.61-.65-.79a2.8,2.8,0,0,1,1-1.46c.7-.39.64.41.68.77C108.13,114.19,108.17,114.89,107,115Z"/><path class="cls-1" d="M95.63,122.05c-.75-2.1.89-2,1.37-3.63C98,120.87,96.43,121.05,95.63,122.05Z"/><path class="cls-1" d="M163.67,36.28a4.06,4.06,0,0,1-2.27,2.87C160.7,37.4,161.85,36.94,163.67,36.28Z"/><path class="cls-1" d="M121.15,57.26c-.06-1.95.89-2.89,2.84-2.84A4.55,4.55,0,0,1,121.15,57.26Z"/><path class="cls-1" d="M107.19,131.11v1.06l-.5,0-.49.06a7.08,7.08,0,0,1,0-.92Z"/><path class="cls-1" d="M255.65,41.39l-.39.78c-.67-.76.16-.57.46-.71Z"/><path class="cls-1" d="M255.72,41.46a.93.93,0,0,1,1-1l-.06-.07a.94.94,0,0,1-1,1Z"/><path class="cls-2" d="M187.73,41.37h-.93a.83.83,0,0,1,.14-1l-.08.07a.77.77,0,0,1,1-.08,1,1,0,0,1,.27.69c0,.26,0,.39-.1.39Z"/><path class="cls-1" d="M186.94,40.39c-.05.33-.1.66-.14,1C185.57,40.86,186.23,40.62,186.94,40.39Z"/><path class="cls-1" d="M190,40.38l-1.07.11-.43-.35c0-.18,0-.37,0-.56l.35-.43.55-.12.44.35Z"/><path class="cls-1" d="M187.93,40.39l-1.07.07,1.06-1,.37.24v.44Z"/><path class="cls-1" d="M189.85,38.49l.69.29-.7.6.07.06-.45-.45Z"/><path class="cls-1" d="M187.92,39.46a.94.94,0,0,1,1-1l.36.5-.42.45.05,0c-.35.47-.71.49-1.06,0Z"/><path class="cls-1" d="M188.94,38.49l.61-.7.3.7.06-.07a.63.63,0,0,1-1,0Z"/><path class="cls-2" d="M179.9,24.31a1.61,1.61,0,0,1-.86.13.58.58,0,0,1-.36-.56c0-.24.07-.36.14-.36Z"/><path class="cls-1" d="M178.82,23.52l.21.92-.94,0C177.93,23.85,178.24,23.58,178.82,23.52Z"/><path class="cls-1" d="M296.59,139.24c-2.12,2.95-4.44,5.59-9.23,5,3-3.23,5-7.25,10.2-6.94.31.18.42.38.33.59s-.19.32-.29.32l0,0A3.16,3.16,0,0,0,296.59,139.24Z"/><path class="cls-1" d="M290.61,134.25l1.85-.08c-1.3,5-5.26,7.3-10,9.79C284.41,139.56,288.28,137.52,290.61,134.25Z"/><path class="cls-1" d="M276.57,88.22c-.3,2.14-2,3.24-3.41,4.57a6.65,6.65,0,0,1-.93-.83c1.21-1.53,2.41-3.09,4.41-3.68Z"/><path class="cls-1" d="M280.4,96.38c.09,2-.81,2.53-2.49,2.9A4.59,4.59,0,0,1,280.4,96.38Z"/><path class="cls-2" d="M299.58,137.18l-1.13.9a.66.66,0,0,1,.14-1l-.08.07a.71.71,0,0,1,1-.11Z"/><path class="cls-1" d="M298.59,137.09c0,.33-.09.66-.14,1l-.85.11a7.08,7.08,0,0,1,0-.92Z"/><path class="cls-1" d="M296.59,139.24c.35-.36.7-.73,1.06-1.09Z"/><path class="cls-1" d="M299.48,137.05a7.78,7.78,0,0,1-1,.11l.94-1A1.87,1.87,0,0,1,299.48,137.05Z"/><path class="cls-1" d="M126.14,141.22l-.08-1.23a15.28,15.28,0,0,1,5-4.75C131.3,138.79,129,140.25,126.14,141.22Z"/><path class="cls-1" d="M169.07,139.16A2.75,2.75,0,0,0,170,139c1.95.7,2.54-1.54,4-1.87.12,2.85-2.56,3.39-4.06,4.9C168.35,141.43,169.15,140.16,169.07,139.16Z"/><path class="cls-1" d="M135.77,157.71l-5.42,3.79C131.41,158.41,131.41,158.41,135.77,157.71Z"/><path class="cls-1" d="M135.18,131.1l-.28-1c-.29-1.77,1.48-2.26,2.12-3.46a4.19,4.19,0,0,1,.93-.8.85.85,0,0,1,1.06.31l.21-.07C139.05,128.72,138.3,130.87,135.18,131.1Z"/><path class="cls-1" d="M155.92,163.44a7.06,7.06,0,0,1-1.5,1.34c-.74.35-1.25-.05-1.33-.86s-.06-1.81,1.1-1.7C154.74,162.27,155.23,162.93,155.92,163.44Z"/><path class="cls-1" d="M273.63,56.36c-.05.15-.05.34-.15.45-1,1.11-.83,3.29-3,3.35-.9,0-.89-.87-.81-1.43.31-2.43,2.12-2.43,4-2.3Z"/><path class="cls-1" d="M275.59,63.33l-.39.77c-.67-.76.16-.57.45-.71Z"/><path class="cls-1" d="M275.65,63.39a.94.94,0,0,1,1-1l-.06-.07a1,1,0,0,1-1,1Z"/><path class="cls-1" d="M236.64,144.15c0,1,0,1.94,0,2.9-1.68.56-2.16,3-4.76,2.8C232.4,146.9,234.77,145.72,236.64,144.15Z"/><path class="cls-2" d="M124.06,101.09c-.59,1-.69,1.38-.93,1.55-1.62,1.22-2.37,3.74-5,3.44-.31,0-.88-.78-.82-.9C118.69,102.86,120.82,101.74,124.06,101.09Z"/><path class="cls-2" d="M129.11,101.26c-.21-2.38,1.73-3.4,3.16-4.51,1.63-1.24,1.67.52,2,1.52.09.16.17.32.25.48s-.08.35-.13.52a6,6,0,0,1-.67.84l-.37.39-.78.75-.41.36a2.89,2.89,0,0,1-1,.37,3.69,3.69,0,0,1-1.1-.08l-.51-.23Z"/><path class="cls-2" d="M133.25,87.44c-.79,3.9-3.2,4.82-4.73,6.42A9.64,9.64,0,0,1,133.25,87.44Z"/><path class="cls-1" d="M130.19,104.18l-1.94,1-.33.12a1.79,1.79,0,0,0-.87-.87l.09-.33c0-.31,0-.63,0-.94a2.43,2.43,0,0,1,2.67-.2A1.29,1.29,0,0,1,130.19,104.18Z"/><path class="cls-2" d="M130.11,103.19l-3-.07a2.71,2.71,0,0,1,2-1.86l-.07-.06a3,3,0,0,0,.94.6l.41.39.06.56Z"/><path class="cls-1" d="M134,99.27l.2-1,.76.81.13.33A.74.74,0,0,1,134,99.27Z"/><path class="cls-1" d="M114.17,209.78c-.44-2.67,3.47-3.18,2.92-5.9,2.52,0,4.09-1.81,6-3.06L124.2,202C120.23,203.77,117.66,207.36,114.17,209.78Z"/><path class="cls-2" d="M131,205.87c0-1,0-1.93,0-2.9,1.72-.11,2.6-3.67,4.11-2,1.33,1.5-1.63,2.52-2.54,3.85C132.22,205.34,131.49,205.55,131,205.87Z"/><path class="cls-2" d="M135.85,209.17c-.34,2.15-1.27,3.05-3.56,3.53C132.72,210.4,133.55,209.41,135.85,209.17Z"/><path class="cls-2" d="M137.89,126.08c.78,2.66-2.06,2.64-3,4l-1.93-1c1.14-1.51,2.18-3.13,4.11-3.77A1,1,0,0,1,137.89,126.08Z"/><path class="cls-1" d="M266.55,203l.14,3c-.82-.3-2.32.56-2.41-.67C264.21,204.24,265.45,203.42,266.55,203Z"/><path class="cls-1" d="M113.17,189h-1.06c0-.33,0-.67,0-1h1.15C113.2,188.33,113.18,188.66,113.17,189Z"/><path class="cls-1" d="M187.93,105.29l1-.1v1.06l-1-.1A4.12,4.12,0,0,1,187.93,105.29Z"/><path class="cls-2" d="M137.89,126.08l-.81-.75,1-.11.37.47-.37.48Z"/><path class="cls-2" d="M138.1,125.22a.94.94,0,0,1,1-1l.32.52-.38.48,0,0a.63.63,0,0,1-1,0Z"/><path class="cls-2" d="M140,123.05v1.22a.71.71,0,0,1-1-.14l.06.07Z"/><path class="cls-2" d="M143,120.09l-1.09,1Z"/><path class="cls-2" d="M130.19,104.18c0-.33-.05-.66-.08-1l-.06.07.55-.39.54.4c0,.27,0,.53-.06.79l-.44.13Z"/><path class="cls-2" d="M127.05,104.39q1-.12.87.87Z"/><path class="cls-1" d="M243.76,202l1.84-.08a4.49,4.49,0,0,1-2.83,2.84C242.46,203.65,243.35,202.93,243.76,202Z"/><path class="cls-1" d="M161.88,21.53l.14,1H161Z"/><path class="cls-2" d="M132.13,102.29l-1,1-.12-.09-.37-.56.34-.57.64-.2Z"/><path class="cls-2" d="M133,101.2l.15,1-1.06.1-.13-.13c-.27-.25-.34-.48-.22-.68s.23-.28.33-.28l-.07.07.47-.38Z"/><path class="cls-1" d="M138,125.15h1c0,.34,0,.67,0,1h-.48s-.46,0-.45,0C138.08,125.83,138.06,125.49,138,125.15Z"/><path class="cls-1" d="M139,124.13l1,.14-1,.93Z"/><path class="cls-1" d="M106.25,132.17l-.06,1-1,.09C105.55,132.9,105.9,132.54,106.25,132.17Z"/><path class="cls-2" d="M134,99.27l1.09.14c0,.31-.07.63-.1.94l-1-.15-.32-.52.38-.48Z"/><path class="cls-1" d="M112.17,190a7.46,7.46,0,0,1-1-.1l1-1Z"/><path class="cls-2" d="M134,100.2a3.87,3.87,0,0,1,0,1l-.47,0H133l.07.07a.66.66,0,0,1-.25-.71c.08-.24.16-.36.25-.36l-.08.07a.69.69,0,0,1,1.07,0Z"/><path class="cls-2" d="M184.89,259.64c1.83-2.11,3-4.15,6.23-5C189.8,257.79,188.51,259.67,184.89,259.64Z"/><path class="cls-2" d="M192.84,245.84l3.64-2.26c-1.51,2.38-1.33,4.91-3.68,4.88-1.1,0,.58-1.72.11-2.7Z"/><path class="cls-2" d="M176.06,258.78l-1.23-.08c.22-2.61,1.79-3.25,4.1-2.79v.68Z"/><path class="cls-2" d="M188.91,263.75A5,5,0,0,1,191.7,261c-.1,2.08-1,2.86-2.85,2.72Z"/><path class="cls-2" d="M181.88,253.8c0-.31.05-.62.08-.92l.73.45Z"/><path class="cls-2" d="M180.88,254.79l1.08-1.07Z"/><path class="cls-2" d="M179.89,255.79l1.07-1.08Z"/><path class="cls-2" d="M178.93,256.59v-.68l1-.19C179.86,256.3,179.6,256.69,178.93,256.59Z"/><path class="cls-2" d="M197.76,259.79l.05,1-.24.32h-.4l-.24-.32A.84.84,0,0,1,197.76,259.79Z"/><path class="cls-2" d="M196.93,261.68l-.71-.3.71-.6-.07-.06.45.45Z"/><path class="cls-2" d="M197.76,262.69l-.39,0-.39,0c0-.34,0-.68,0-1l-.07.07.45-.43.5.37Z"/><path class="cls-2" d="M197.81,260.78l.7.61-.7.3.07.06c-.26-.23-.35-.46-.26-.69s.17-.34.26-.34Z"/><path class="cls-2" d="M198.9,201.88q0,3.06-3.07,3.06C196.71,203.77,196.65,201.67,198.9,201.88Z"/><path class="cls-2" d="M146.07,231.86H145l.93-1C146,231.2,146,231.53,146.07,231.86Z"/><path class="cls-1" d="M188.07,41.46l-.14-1.07-.06.07a.6.6,0,0,1,1-.09l.1.12Z"/><path class="cls-2" d="M188.84,40.37c-.32,0-.65.07-1,.09V39.4h1.06C188.91,39.72,188.89,40.05,188.84,40.37Z"/><path class="cls-2" d="M188.88,38.42h1c0,.34,0,.68,0,1h-1C188.88,39.1,188.88,38.76,188.88,38.42Z"/><path class="cls-1" d="M132.11,101.2c0,.32-.06.64-.11,1-.32,0-.64.09-1,.11-.27-.27-.34-.5-.2-.71s.24-.28.35-.28Z"/><path class="cls-2" d="M131.19,101.28l-.15,1,.07-.07a.64.64,0,0,1-1.06,0l.07.07a.74.74,0,0,1-.28-.64c0-.24.08-.36.14-.36Z"/><path class="cls-1" d="M130,101.27l.14,1L129,101.2Z"/><path class="cls-1" d="M133.11,100.2v1.07H132C132.39,100.91,132.75,100.56,133.11,100.2Z"/><path class="cls-1" d="M134.1,100.27H133c.36-.35.72-.71,1.07-1.07Z"/><path class="cls-1" d="M130.05,102.2h1.06c0,.33,0,.65-.08,1-.33,0-.66.07-1,.08Z"/><path class="cls-1" d="M197.88,260.72v1h-1v-1Z"/></svg>