<svg id="Layer_1" data-name="Layer 1" xmlns="http://www.w3.org/2000/svg" viewBox="0 0 76 76"><defs><style>.cls-1{fill:#fefefe;}.cls-2{fill:#7177a4;}</style></defs><path class="cls-1" d="M76,38q0,18.59,0,37.18c0,.69-.13.82-.82.82Q38,76,.82,76C.13,76,0,75.87,0,75.18Q0,38,0,.82C0,.13.13,0,.82,0Q38,0,75.18,0c.69,0,.82.13.82.82Q76,19.41,76,38Z"/><path class="cls-2" d="M18.5,52.24a4.27,4.27,0,0,0,1.28,0c.92-.26,1.53-1.32,2.7-1,.16.05.41-.4.67-.54s.58-.67,1.08-.4c.59,1,.79-.23,1.21-.21.25-.15.42-.39.74-.64-.32.22-.47.48-.71.62a4.13,4.13,0,0,1-1.25.24c.18-.59.44-1.16-.16-1.71a.48.48,0,0,1,.1-.75,5,5,0,0,0,.64-.73.87.87,0,0,1,.35-.51.59.59,0,0,1,.46-.16c.12,0,.27.07.33,0s-.19,0-.21-.16,0-.43.24-.8c-.42.34-.66.67-1,.77-.63.11-.78,1-1.54.91a.63.63,0,0,1-.4-.6,3.75,3.75,0,0,1,1.13-1.28,3.9,3.9,0,0,0,.61-.46,3,3,0,0,0,.85-1.11,1,1,0,0,1,.21-.15,17.51,17.51,0,0,0,2.49-2.3,7.27,7.27,0,0,0,1.41-2.19,2.29,2.29,0,0,1,0-.25.4.4,0,0,1,.28-.21,1.42,1.42,0,0,1,1.36,0c.66.21,1.41.8,2.15.08.3.74.92.63,2.22-.45,0,.48-.36.61-.55.87s-.55.38-.56.85c.62,0,.81-.6,1.2-.89s.57-.92,1.23-.26c.17.17.81-.39,1.31-.4.22,0,.41-.31.64-.17,1.26.72,1.18-.3,1.35-1a.32.32,0,0,1,.22-.17c.43-.09.87,0,1.29-.35.67-.6,1.29.07,1.91.26.23.07.08.26,0,.38s-.43.33-.37.65a.48.48,0,0,1,0,.45c0,.09,0,.14,0,.12a.54.54,0,0,1,.16-.1.54.54,0,0,1,.6.16l-1.8,2,.18.18,3.41-3.62.22.2a22.34,22.34,0,0,1-2,2.71c.6,0,.81-.41,1.06-.81.1-.16.24-.49.51-.34s-.18.39-.06.66c.54-.11.71-.71,1.26-.93-.07.56-.63.71-.78,1.12.13.3-.13.4-.28.55s-.48.14-.35.48-.58.56-.27.78c.52.37.69-.32.94-.56a15.07,15.07,0,0,1,3.22-2.6c-.53,1-1.61,1.47-1.64,2.57l.06.12a.51.51,0,0,0,0,.13,1.64,1.64,0,0,1-.14.22l-.08.1-.16.21c-.14.21-.24.41.1.54a1.71,1.71,0,0,1,.22.25.26.26,0,0,0,.28,0h.1c.51-.12.52-.9,1.14-.89,0,.07.07.14,0,.19-.59,1.25.23.81.81.67.08.14,0,.25-.06.37a1.36,1.36,0,0,0-.38.8c-.05.22-.07.43-.12.65-.32.55-.51,1.21-1.23,1.43-.13.24-.09.53-.21.76l-.11.08a.47.47,0,0,0,.12-.09c.1-.14.19-.28.39-.16,0,.44-.35.72-.41,1.22,1.16-1.62,3.12-2.08,4.59-3.37,0,.47-.81.81-.18,1.29l.22-.15c.91-1,1-1,1.55.34a5.3,5.3,0,0,1,.57,2.77c0,.14-.07.18.1.27a15.5,15.5,0,0,1,1.7,1.43,7,7,0,0,1,2.23,2.74c.14.31.77.07.61.61l0,0v0c.21-.07.42-.19.58.11a.64.64,0,0,0,.85.4c.07,0,.18.08.26.06.57-.17-.32,1.14.42.5.52-.45.79-.06,1.13,0a4.4,4.4,0,0,1,1.14.5,4,4,0,0,0,1,.42,3.22,3.22,0,0,1,1.17.46,4.28,4.28,0,0,0,1.18.31c.79.18.7.53.36,1A37.58,37.58,0,0,1,50.38,71.71a38.58,38.58,0,0,1-9.76,2.65c-.63.08-1.26.1-2,.16.76-1.38,1.43-2.7,2.14-4C42,68.34,43,66.09,44.09,63.86a9.83,9.83,0,0,1,1-1.42,41.39,41.39,0,0,0,2.66-4.18c1.81-3.21,4-6.23,5.16-9.8,0-.09.14-.17.14-.26,0-.34.24-.83-.16-1-.58-.22-.45.46-.57.71a15.1,15.1,0,0,1-2.86,3.82,1.22,1.22,0,0,1-.76.76,15.42,15.42,0,0,1-3.48,3.41,15.2,15.2,0,0,0-2.73,1.95c-1,1.16-2.42,1.77-3.52,2.81a15.09,15.09,0,0,1-3.16,1.83c-.11.07-.28.17-.37.12-1-.48-2.07-.5-3-1.34-1.24-1.13-2.33-2.38-3.46-3.59A24.94,24.94,0,0,1,26.46,54a.73.73,0,0,1,.18-.83c0-.14.14-.18.18-.3a.73.73,0,0,1-.41.07c-.3-.48.2-1.15-.39-1.58-.13-.1-.16-.4-.41-.25a.53.53,0,0,0-.31.44c-.18,2.5-.46,5-.56,7.51a48.41,48.41,0,0,1-.81,6.24,6.14,6.14,0,0,0,0,1.65,9,9,0,0,1-.55,2.81,13,13,0,0,1-.7,2.2c-.24.59-.56.15-.78.06a36.64,36.64,0,0,1-9.08-5.12,37.4,37.4,0,0,1-8-8.4c-.2-.3-.68-.6-.27-1s1.23-1.35,1.62-1.05c1.09.84,1.45-.15,2.09-.52s1.29,0,2-.27c1.07-.37,1.93-1.23,3-1.31"/><path class="cls-2" d="M15.88,53.28a2.64,2.64,0,0,0,1.52-.48"/><path class="cls-2" d="M25.44,10.47c.71-.62,1.72-.89,2-2,.08-.28.76-.56,1.12-.52s.18.44,0,.65c-.68.66-1.37,1.3-2,2,1.54-.67,4.27-3.3,4.64-4.33.29-.31.55-.72,1-.27A1.13,1.13,0,0,0,34,5.84c.32-.45-.3-.43-.28-.7a6.4,6.4,0,0,1,2.05-2.06h0A.27.27,0,0,1,36,3a1.2,1.2,0,0,0,1-1.12.58.58,0,0,1,.87,0c.2.23-.2.41-.37.57a2.33,2.33,0,0,0-.7,1.79.89.89,0,0,1-.57.66c-.1,0-.21,0-.31.06a.19.19,0,0,0,0,.18c.7.94,1-.19,1.55-.27,1.06-.58,1.83-1.52,2.85-2.19a4.62,4.62,0,0,0-.4,1.51c.38-.52,1.06-.5,1.47-1,.26-.3.36.06.49.21s.36.21.55,0a2.11,2.11,0,0,1,.83-.42c.51-.29.78-1,1.62-.95-.52.79-1.39,1.13-1.65,2.06-.19.67,0,.79.55.87a3.53,3.53,0,0,0,2.43-.58c.32.12.73-.18,1,.2-.47.53-.92,1.09-1.43,1.57a2.27,2.27,0,0,0-.51.83C46,6.8,46.28,6,47.11,5.83c.19.12-.12.54.22.67s.44-.12.61-.28A4.18,4.18,0,0,1,49.36,5.1c.42-.16.82.1,1.23.13.6,0,.6.85,0,1.52.3.33,1.53-.28,1,.94a.14.14,0,0,1,0,.19h0a.38.38,0,0,1-.11.14l-.07,0,.07,0,0-.09.09,0c.53.09.65.26.23.72-.56.61-1.36,1-1.62,1.89a1.94,1.94,0,0,1-1.63,1.62l-.44.16c.35-1-.83-.11-.8-.74,0-.26.46-.19.58-.49-.53-.68-1.06,0-1.58.06-.06-.41.27-.62.42-.92-.4-.11-.47.3-.74.31s-.21-.22-.27-.37a.18.18,0,0,1,0-.16c-.07.08,0,.18,0,.27l-.09.06c-1,0-1.23,1.08-2.11,1.31l.56-.63c.27-.3.17-.45-.21-.47-.35-.42-.66-.41-1,0a11.28,11.28,0,0,1-1.44,1.86c-.28.22-.5.53-.86.63a1.22,1.22,0,0,1-.27,0,.79.79,0,0,1-.41-.33l1.92-2.07c-.87.32-1.31,1.13-2.06,1.65-.13-.48.56-.65.36-1.18-.74.71-1.48,1.37-2.17,2.08-.37.39-.72.63-1.25.33v0c-.41-.42-.72-.19-1.05.13a11.27,11.27,0,0,1-1.85,1.67c-.37.22-.26,0-.27-.21-.28,0,.57-.67-.23-.43a2.47,2.47,0,0,1-1.69.77c-.22-.32.21-.43.23-.81A6.31,6.31,0,0,0,29.79,17a.86.86,0,0,1-.77.48c-.62-.5.08-.74.21-1.1a1.68,1.68,0,0,0,.17-.49c.27-.8,1-1.21,1.45-1.71-1.08.64-1.78,1.93-3.05,2.54a.35.35,0,0,1-.29-.27c.14-.81,1-1,1.32-1.61-.64,1-1.77,1.43-2.74,2.08-.14.09-.3.19-.45.08s-.12-.45,0-.62A12.28,12.28,0,0,0,27,14.83c.64-.29,1-.9,1.54-1.31-.53.39-.88,1-1.53,1.26-.3.23-.34.64-.61.88s-.72.67-1-.05a2.71,2.71,0,0,1,.28-.41c-.09.09-.14.2-.23.28-.54,0-.37-.67-.73-.84s-.54.46-.91.2c-.57-.5-.83.11-1,.39-.36.72-1,1.33-1,2.21a.58.58,0,0,1-.23.43c.37.2.94-.35,1.12.17s-.55.65-.74,1.06c.11,0,.16-.15.26-.21s.44-.43.67-.14,0,.49-.21.7c-.4.5-1,.86-1,1.69.42.08.64-.26.93-.42s.43-.28.61,0,0,.38-.13.53-.39.35-.52.55c.2-.16.41-.5.69-.24s0,.5-.16.7c-.36.43-.79.8-1.21,1.25.49-.2.7-.85,1.32-.7a.15.15,0,0,1,.08.15q0,.09,0,.09a6.9,6.9,0,0,1-.75.86c-.3.24-.47.36-.35.84s-.41.89-.66,1.32l.06.13a.75.75,0,0,0-.07.12,1,1,0,0,1-.23.13.89.89,0,0,0-.75.61c-.65,1-.37,2.07-.42,3.12,0,.79-.23,1.35-1.08,1.47-.13,0-.25,0-.32.18s-.15.45-.37.24-.38-.4-.08-.68.62-.6.91-.92c.14-.15.48-.32.21-.53s-.23-.46-.62-.33-1,0-1-.08c.29-.54-.46-1,.06-1.61.35-.42.26-1.23.95-1.64-1.56-.39-.28-.89-.18-1.33-.44-.3-.61.31-1.07.28,1-1.5.36-3.35,1.64-4.92-.86.2-1,.88-1.63.95.22-.52.88-.72.75-1.35.48-.38-.15-.28-.19-.43-.2-.26-.31-.54,0-.74.65-.37.64-1.29,1.36-1.6a.26.26,0,0,0,.08-.42c-.13-.16-.28-.28-.5-.12s-.24.34-.56.21c.06-.69.82-.73,1.14-1.17s.28-.31-.13-.61c-.1-.08-.26-.2-.14-.3.52-.44.52-1.22,1.06-1.6a4.85,4.85,0,0,0,1.47-1.89,1.36,1.36,0,0,1,.6-.74c.15-.06.29-.17.43,0s.13.28-.07.39c-1,.51-.86,1.63-1.37,2.42-.34.51.45.6.59,1,.23.06.26,0,.18-.22.15-.53,0-1.19.57-1.58a4.34,4.34,0,0,0,1.27-1.07l.66-.65C25,10.59,25.11,10.31,25.44,10.47Z"/><path class="cls-2" d="M28,67.09a.91.91,0,0,1,.2-.78.22.22,0,0,0-.23-.23l-.48.35a.2.2,0,0,1,0-.33,32.68,32.68,0,0,1,2.56-2.57c.6-.4,1.19-.82,1.83-1.16s1.07.12,1.52.32a5.37,5.37,0,0,0,2.89.39.71.71,0,0,1,.79.36,11.4,11.4,0,0,0,2,2.71.74.74,0,0,1-.22,1.24c-1.36.74-2.21,2-3.32,3a1.29,1.29,0,0,0-.21,1.48c.22.5.14,1,.35,1.52s.12,1.17-.87,1.11a28.85,28.85,0,0,1-5.07-.32,6.21,6.21,0,0,1,1.11-2.55,4.25,4.25,0,0,0,.49-2.18,3.79,3.79,0,0,0-1-1.85c-.26-.36-.72-.62-.5-1.24-.57.09-.7.59-1.08.75a.6.6,0,0,1-.56.15A.46.46,0,0,1,28,67.09Z"/><path class="cls-2" d="M50.32,24.44,50,24c-.14-.18.16-.37,0-.55-.89-.65-.23-1.12.19-1.62.69-.09.89-.7,1.23-1.16a1.77,1.77,0,0,1,.16-.22c1-1,1.94-2,2.92-2.93.24-.23.43-.63.89-.46v.58a2.42,2.42,0,0,1-.51.45c.18-.13.4-.24.49-.47a1.23,1.23,0,0,1,1.13,1.8c-.29.6-.29.64.38.63.32,0,.33.45.67.34.08.3,0,.44-.34.45.16.48-.12,1.33,0,1.37.59.31.27.69.25,1.08,0,.89.57,1.18,1.3,1.19s.75.23.36.75c-.11.13-.08.37-.11.56.11.57-.67.63-.65,1.15a8.55,8.55,0,0,1-1.21,1.27,4.3,4.3,0,0,0,1.35-1.46.77.77,0,0,1,.47-.28c.41.17.66-.29,1-.27.13,0,.4-.32.38.11a4.88,4.88,0,0,1-.21.9.85.85,0,0,1-.19.14l-.21.13-.12,0-.25.08a3,3,0,0,0-1.27,1,2.4,2.4,0,0,0,1-.72,1.45,1.45,0,0,1,.18-.17l.11-.06.22-.08a.67.67,0,0,0,.3-.13.17.17,0,0,1,.2,0c0,.13.06.29,0,.39a8.64,8.64,0,0,1-1.84,2.69c-.57.45-.78,1.27-1.77,1.56l.59-.79c-.46-.12-.53.38-.85.45-.25-.31.23-.39.21-.71-.38.15-.93.55-.85-.33a.8.8,0,0,0-.52-.9c-.47-.24-.53.23-.78.37s-.22.26-.48.2c0-1.3,1.25-1.58,1.91-2.32.28.17.44.05.53-.23a3.22,3.22,0,0,0,.27-.81c-.3-.37-.44,0-.6.15-.62.6-1.22,1.22-1.84,1.82-.22.21-.39.57-.87.37.34-.9,1.23-1.38,1.66-2.27-.48,0-.68.39-.9.65-.43.5-.84.74-1.43.27-.07,0-.09-.08-.07-.12s0-.07.06-.07c.08-.41-.52-.85.14-1.27.22-.15-.35-.25-.44-.59s-.52,0-.71.19c-.56-.14.93-.84-.3-.85-.08,0,.28-.62.46-.94-.28-.24-.49,0-.71.1A1.16,1.16,0,0,1,50.32,24.44Z"/><path class="cls-2" d="M25,32c-.37-.15-.64.18-1,.19s-.31-.21-.22-.44a.62.62,0,0,0-.9-.34c-.39.21-.23-.13-.32-.23a4.38,4.38,0,0,1,1.44-2c.34-.36.74-.66,1.09-1A1.81,1.81,0,0,0,26.05,27a1.74,1.74,0,0,1,.84-.89c.46-.12.66-.52.89-.87a1.76,1.76,0,0,1,.84-.39l1.39-1h0c-.11.77-1.07,1-1.14,1.83,0,.16-.28.29,0,.47s.3,0,.42-.19c.25-.45.76-.59,1.13-.9a.26.26,0,0,1,.11.23c-.1.5.14.29.33.17l.48-.34c.28.39-.45.46-.19.89a2.26,2.26,0,0,1,1.57-.79c.58-.09.21.29.32.41.18.34-.38.66,0,1,.08.32.06.82.55.22a5.82,5.82,0,0,1,1.33-1.19c-.26.59-.87.92-1,1.55.13.19.08.42.14.63a4.69,4.69,0,0,0,.2.6,1.4,1.4,0,0,1,0,1.15c-.45.36-1,.54-.87,1.4.09.45-.46,1-.92,1.31a13.51,13.51,0,0,0-2,1.65c-.44-.91-.66-1.78.54-2.42-1.1.57-1.6,1.76-2.86,1.88-.12-.6-.39,0-.58-.08-.47.06-.88.36-1.37.33-.22,0-.44.07-.64-.06s.11-.61-.42-.43c-.2.07-.18-.19-.18-.35s.21-.38.34-.57S25.08,32.11,25,32Z"/><path class="cls-2" d="M48.52,12.28a6.78,6.78,0,0,0,1.63-1.62,22.6,22.6,0,0,0,2.07-2c.2-.18.31-.39.37.13s.33,0,.52,0,.15-.84.53-.06c.17.35.88.63,1,1.05s-.66.7-.84,1.22c.58,0,.68-.71,1.24-.73.13.42-.25.66-.3,1a1,1,0,0,1-.24.11c.11,0,.15-.09.23-.13l1,.05c-.08.46-.54.71-.38,1.16a.52.52,0,0,0-.11.1.58.58,0,0,0,.1-.12c.28,0,.61-.05.74.35-.09.08-.17.2-.29.24-.59.16-.56.77-.77,1.16-.45.82.46.39.71.57.85.58.87.71.24,1.49-.19.24-.47.32-.63.56a48.77,48.77,0,0,0-3.79,3.82h0c-.43.31-.54,1-1.2,1-.18-1.32-.18-1.32.66-2.26-1.06.34-1.34,1.43-2.25,1.65a.18.18,0,0,1-.06-.16c0-.06,0-.09.05-.09a2.38,2.38,0,0,0,.58-1.36.91.91,0,0,1,0-.63l.73-.84c-.14-.27-.43-.22-.67-.26-.19-.39,1-.56.09-1.23-.35-.26-.33-.91-1.15-.37.32-.47.52-.78.74-1.08.36-.48.36-.73-.34-.6-.16,0-.45,0-.34-.2C48.86,13.6,48.43,12.93,48.52,12.28Z"/><path class="cls-2" d="M34.18,29.58c-.25-.36,0-.81-.2-1.18,0-.47.48-.59.68-.91l.12-.06c.3-.26.59-.75.89-.74,1.28,0,1.87-1.09,2.78-1.75.3.79-.32.92-.68,1.27a2.76,2.76,0,0,0,2.43-.12c.15-.09.22-.28.42,0s.56.28,1,.19.89-.27,1.17.26.32,0,.47-.08.37-.67.79-.28-.19.53-.24.81a2.58,2.58,0,0,1-.15.47c.73-.36,1.07-1,1.66-1.39.17.54-.68.63-.48,1.15.19-.08-.27.44.15.15l.24-.15a3.54,3.54,0,0,0,1-1c-.09,1.29-1.23,1.68-1.81,2.66,1.36-.47,1.91-1.71,3.06-2.46-.37.89-1.18,1.24-1.53,2a5.78,5.78,0,0,1,1.82-.83c.18.26,0,.56-.12.85a.56.56,0,0,1-.16.61,3.36,3.36,0,0,1-.29.24.86.86,0,0,0-.14.13c.1,0,.13-.1.21-.12.23-.12.42-.35.72-.24.14.37-.28.49-.35.77s0,.28-.23.23c-.58.9-1.57.59-2.38.82a2.94,2.94,0,0,1-1,.32.51.51,0,0,1-.4-.16c0-.37-1-.48-.2-1.11-.55.49-1.33.46-1.66,1.12s-.59,1.12-1.38,1c-.37.26-.59-.17-.86-.2a2.17,2.17,0,0,0-1.66.75c-.11.1-.37.4-.59.11s-.05-.37.1-.53.4-.69.07-1-.49.2-.66.38c-.37.37-.58-.67-.92-.07a.51.51,0,0,1,.11-.55c.2-.19.4-.45.12-.67s-.44.24-.77.33c-.09-.47-.07-.84.41-1.11Z"/><path class="cls-1" d="M27,14.89c-.17.86-1.06,1.23-1.45,2.07a11.21,11.21,0,0,0,3.8-2.77l.17.19L27.6,16.44c-.08.24,0,.31.23.23a23,23,0,0,1,3.68-3.14C31.17,14.59,29.94,15,29.6,16c-.06.15-.35.18-.21.43.22.46-.86.41-.37,1,.13.52-.39.75-.49,1.17a.87.87,0,0,1-.1.24,1,1,0,0,0-.83.63c-.15.19-.24.47-.57.42a1.47,1.47,0,0,1-.34-.15c-.43-.1-.53.28-.74.51s-.25.36-.38.53a1.9,1.9,0,0,1-.19.21,22.21,22.21,0,0,1-2.16,1.83c-.6.07-.81.64-1.22.95-.18.14-.32.39-.58.14s.06-.39.18-.53a13.21,13.21,0,0,0,1.69-1.89c-.64.2-.78.85-1.44.94.18-.82,1-1.07,1.36-1.78-.73.23-1.1,1-1.88.94-.31-1.34.94-1.87,1.59-2.85-.73.11-.86,1.06-1.6.87.22-.71.81-1.08,1.29-1.58-.48.34-1.08-.14-1.59.51.46-1.16.84-2.09,1.22-3a2.57,2.57,0,0,1,1.19-1.28c.45-.24.33.36.43.62.37.12.47-.34.77-.37.49-.17.54-.16.47.19a.74.74,0,0,0,.33.79h0c.35.48.71.46.95-.12.14-.35.19-.69.65-.7a.18.18,0,0,1,.06.16C27.05,14.86,27,14.89,27,14.89Z"/><path class="cls-2" d="M25.63,43.75c.2.74-.46.89-.83,1.23a2.92,2.92,0,0,0-.57.37A4.09,4.09,0,0,1,23,46.57a2.06,2.06,0,0,1,1-2.27c.38-.23.88-.36.82-1-.69-.08-.88.69-1.52.72l2.56-2.65a.62.62,0,0,1,.3-.42,2.27,2.27,0,0,1,.25-.18l.15-.12c-.08-.06-.11.06-.17.07-.26.14-.45.39-.76.42-.72.14-1,.83-1.52,1.22s-1.42.66-1.95,1.34c.12-.36-.28-.59-.13-.93s.47-.64.73-.95a9.18,9.18,0,0,1,1.94-1.63c.72-.84,1.75-1.4,2.3-2.41.55-.43.95-1,1.77-1.13.44-.06.72-.7,1-1.12A8.73,8.73,0,0,1,31,34.41v0c.09.45-.39.58-.51.91.38.3.56-.15.94-.17-.58.61-.29,1.59-1.14,2.13-.39.26-1.11.72-.28,1.36l-.22.18c-.81.25-.94,1.15-1.55,1.6,0,0,0,.07.05.06l.2,0c.79.37,0,.61-.06.92a8.42,8.42,0,0,1-2.63,2.41A.09.09,0,0,0,25.63,43.75Z"/><path class="cls-2" d="M27,26.22a2,2,0,0,0-.83.83,2.64,2.64,0,0,1-1,1.06A26.43,26.43,0,0,0,23,30.39c-.27.32-.5.71-1,.8-.25,0-.32.56-.61.26s.19-.38.27-.59c.72-1.71,2.3-2.87,2.93-4.64.41-.12.75-.44,1.2-.44.14,0,0,.66.36.13a.56.56,0,0,1,.88.05A.27.27,0,0,1,27,26.22Z"/><path class="cls-2" d="M30.38,21l-.39.58c-.14.5-.58.78-.83,1.2A1.7,1.7,0,0,1,29,23a10.22,10.22,0,0,0-1.8,1.8c-.25.31-.45.75-1,.63-.26-1,.74-1.27,1.06-1.84-.31.15-.43.75-1,.61-.06-.4.28-.58.51-.78C28,22.34,28.9,21,30,19.85a.12.12,0,0,1,.19,0c.33.43.57.11.77-.12.36-.42.67-.87,1-1.3l.31.29-1.12,1.49A2,2,0,0,0,30.38,21Z"/><path class="cls-2" d="M49.92,42.79l.22-.24c.78-.74,1.58-1.48,2.36-2.24a1.72,1.72,0,0,1,1.62-.49c.1.2-.08.3-.15.44a1.87,1.87,0,0,1-.53.52c-.09.08-.17.16-.15.29l0,.11a2.43,2.43,0,0,1-1,1,.35.35,0,0,0-.21-.07.4.4,0,0,0-.21.09c-.4,0-.58.3-.78.58-.44.15-.65.79-1.25.6A.5.5,0,0,1,49.92,42.79Z"/><path class="cls-2" d="M23.43,40.79c-.06-.52.89-.56.56-1.2a.3.3,0,0,1,0-.26,9,9,0,0,0,.65-1l.18-.19c.23-.19.27-.57.64-.61.79-.2,1.12-1.23,2.17-1.14l-1.19,1.34A7.15,7.15,0,0,0,26,38.85c-.24.63-.94.85-1.26,1.4a2.12,2.12,0,0,1-1.18.62Z"/><path class="cls-1" d="M40.17,13.06A3.61,3.61,0,0,0,42,11.37a5.33,5.33,0,0,1,1-1.21c.34-.32.66-.11.79.51-1.11.86-2,2-3,2.92-.23.21-.48.7-.78.05A.46.46,0,0,1,40.17,13.06Z"/><path class="cls-1" d="M25.44,33.59c.19-.06.35-.25.58-.15.49.32.23.64,0,1a2.06,2.06,0,0,0-.81.82c-.54.51-1.06,1-1.58,1.55L23.4,37l-.18.2h0L23,37.4h0l-.21.21h0a.72.72,0,0,1-.21.12.69.69,0,0,1-.24,0,.54.54,0,0,1-.34-.14l2.19-2.44a11.94,11.94,0,0,1,.78-1A.66.66,0,0,1,25.44,33.59Z"/><path class="cls-2" d="M49.53,39.76A7.48,7.48,0,0,1,52,37.32a11.36,11.36,0,0,0,1.8-1.68c.24-.23.42-.58,1-.64-1.72,1.8-3.36,3.5-5,5.19a.16.16,0,0,1-.26,0A.38.38,0,0,1,49.53,39.76Z"/><path class="cls-2" d="M25.89,8c1.55-1.24,2.49-3.24,4.57-3.87C29,5.44,27.75,7.07,25.89,8Z"/><path class="cls-2" d="M43.59,31H44c.1.26.39.27.57.41-.35.8-.78,1.46-1.83,1-.66-.25-.94.55-1.6.62A6.4,6.4,0,0,1,43.59,31Z"/><path class="cls-2" d="M37.75,21.44c-.07.11-.17.32-.2.31-1.25-.37-1.7,1-2.82,1.18a6.81,6.81,0,0,1,1.93-2.37.92.92,0,0,1,1.09.29.26.26,0,0,0,0,.19.74.74,0,0,1,0,.21A.27.27,0,0,0,37.75,21.44Z"/><path class="cls-2" d="M25.44,10.47l-.64.41a1.73,1.73,0,0,0-.57.57c-.42.42-.58,1.2-1.42,1-.08-.66.26-1,.81-1.3.72-.43,1.09-1.32,1.91-1.7.25-.11.49-.26.82-.43C26.21,9.72,25.18,9.67,25.44,10.47Z"/><path class="cls-1" d="M26.23,25.41c.84-.53,1.2-1.51,2-2.09.25-.18.4-.53.79-.49a.41.41,0,0,1,0,.58l0,.25-.2.18h0a.82.82,0,0,0-.12.2l-.06.11a.86.86,0,0,1-.13.2c-.11.12-.23.22-.34.33l-.26.25-.29.23-.19.14a2.5,2.5,0,0,1-.83.53c-.27-.22-.5,1.19-.79,0A.51.51,0,0,1,26.23,25.41Z"/><path class="cls-1" d="M26.23,25.41a.73.73,0,0,1-.43.43c-.38.17-.65.71-1.19.38l0,0c-.14-.26.05-.42.17-.6a5.55,5.55,0,0,0,1.43-1.43l1.59-1.39C27.65,23.94,26.33,24.28,26.23,25.41Z"/><path class="cls-1" d="M37.39,4.92c0,.47-.59.45-.7.87,0,.12-.6.34-.48-.27-.6.18-1,.16-.59-.62a.23.23,0,0,1,.17-.1.6.6,0,0,1,.19.06l.78-.57a.65.65,0,0,0,.43-.41c.21-.11.41-.17.59.05C37.65,4.26,37.07,4.41,37.39,4.92Z"/><path class="cls-2" d="M24.61,38.37c.28.63-.28.76-.61,1a.66.66,0,0,1-.19.18h0a.14.14,0,0,1-.18,0c-.51.77-1.51.83-2.13,1.49-.23.24,0-.21-.09-.32a1.91,1.91,0,0,1,1-1c.59,0,.78-.55,1.15-.86A2.24,2.24,0,0,1,24.61,38.37Z"/><path class="cls-2" d="M35.78,3.08a9.62,9.62,0,0,1-2,2c-.31.34-.64.62-1.11.25a.54.54,0,0,1,.16-.65,2.42,2.42,0,0,0,1.62-1A1.74,1.74,0,0,1,35.78,3.08Z"/><path class="cls-2" d="M34.39,20.05a1.09,1.09,0,0,0,0,.18c.07.45-.35.58-.54.87-.74.51-1.11,1.44-2,1.73-.2-.41-.5.07-1-.17,1.68-.45,2.21-2.05,3.59-2.6Z"/><path class="cls-2" d="M22.44,39.77a3,3,0,0,1-1,1c-.17-.1-.22-.24-.08-.39A34.57,34.57,0,0,1,24.83,37Z"/><path class="cls-1" d="M22,31.19l2.53-2.8a.86.86,0,0,1,.66-.39.14.14,0,0,1,.06.16c0,.06,0,.08,0,.08a29.9,29.9,0,0,0-2.64,3C22.4,31.3,22.2,31.52,22,31.19Z"/><path class="cls-1" d="M32.82,4.7l0,.77c.06.47-.15.68-.62.63-.43-.39-.61.34-1,.21l0-.24a.38.38,0,0,1,0-.55l.21-.23a2.85,2.85,0,0,1,.71-.63.25.25,0,0,1,.26,0Z"/><path class="cls-2" d="M30.23,19.86H30l0-.61v0c1.1-.36,1.55-1.64,2.83-1.81Z"/><path class="cls-2" d="M47.33,30l.23-.23c.76.12,1.17-.61,1.51-.68L47,31.24C47.29,30.93,47.85,30.59,47.33,30Z"/><path class="cls-1" d="M24.64,22.85l-.44-.22c-.12-1,.69-1.24,1.29-1.66A.88.88,0,0,1,26,20.7a.78.78,0,0,1,.3,0c.37.3.17.51-.1.71h0C25.53,21.72,25.38,22.62,24.64,22.85Z"/><path class="cls-1" d="M51.53,20.65c0-.51.41-.72.71-1,1-.93,1.81-2.15,3.08-2.83v.25Z"/><path class="cls-2" d="M24.09,27.05l-2.23,2.23a.16.16,0,0,1-.25,0c-.06-.06-.14-.12,0-.23a13.3,13.3,0,0,1,2.27-2.23Z"/><path class="cls-2" d="M25.65,21c-.49.53-1.34.73-1.45,1.6-.3.19-.54.54-1,.38v-.19a6.18,6.18,0,0,1,2.21-2l.07,0a.43.43,0,0,1,.12.11Z"/><path class="cls-2" d="M35.76,18.25c-.92.82-1.93,1.52-2.77,2.41l2.77-3A.38.38,0,0,1,35.76,18.25Z"/><path class="cls-2" d="M51.54,35.61c-.26-.12-.45.27-.73.11.65-1,1.84-1.54,2.31-2.69-.06,0-.08-.09-.06-.13a.1.1,0,0,1,.07-.06c.41.24.39.73.13.85-.52.24-.47.74-.73,1.09C52.12,35,51.88,35.34,51.54,35.61Z"/><path class="cls-1" d="M24.61,40.16l1.24-1.38a1.24,1.24,0,0,1,.76-.79L27,37.8c0,1-.92,1.36-1.49,1.92a6.86,6.86,0,0,1-.65.67C24.62,40.46,24.56,40.36,24.61,40.16Z"/><path class="cls-2" d="M19.87,34.2a.72.72,0,0,1-.48.67c-.22.09-.22-.2-.26-.31-.14-.36-.24-1,0-1.06.44-.14.74-.77,1.33-.42,0,.17-.36.24-.27.5A.7.7,0,0,0,19.87,34.2Z"/><path class="cls-2" d="M49.54,40.18h.22c-.56.78-1.53,1.29-1.62,2.39h0c-.19.11-.35.29-.6.23l0-.44c-.27-.43.13-.67.28-1s.41-.32.6-.5.42-.42.65-.61S49.36,40.06,49.54,40.18Z"/><path class="cls-2" d="M51.4,36.68l2.66-2.3A5.68,5.68,0,0,1,51.73,37Z"/><path class="cls-2" d="M51.34,40.12c.65-1.15,1.74-1.71,2.5-2.62Z"/><path class="cls-2" d="M29,23.41v-.56c.4-.35.69-.83,1.22-1l1.47-1.34a4.94,4.94,0,0,1-1.6,1.9C29.71,22.73,29.72,23.47,29,23.41Z"/><path class="cls-2" d="M24.59,8.53c0,.49-.69.62-.33,1.18.13.19-.26.52-.6.64s-.37-.08-.46-.22c-.25-.39.23-.44.35-.66A2.4,2.4,0,0,1,24.59,8.53Z"/><path class="cls-1" d="M47.13,4.71c-.33-.09-.72.15-1-.2a9.19,9.19,0,0,0,.74-.64c.25-.27.57-.43.84-.17s0,.57-.26.79A2.57,2.57,0,0,1,47.13,4.71Z"/><path class="cls-2" d="M31.39,4.87c-.12,0-.35,0-.3-.1a27.08,27.08,0,0,1,2.05-1.95c-.22.5-.68.88-.58,1.48a.59.59,0,0,1-.18.13l-.19.14L32,4.69A1.23,1.23,0,0,1,31.39,4.87Z"/><path class="cls-1" d="M28.42,18.67c-.14-.57.4-.82.6-1.24.29-.06.42-.44.77-.39.15.95-.75,1.12-1.2,1.62C28.53,18.72,28.48,18.73,28.42,18.67Z"/><path class="cls-2" d="M21.62,38.77c-.52,0-.68.57-1.21.8A2.77,2.77,0,0,1,22,37.77a.32.32,0,0,1,.23.19.2.2,0,0,1,0,.2l-.21.21C21.91,38.52,21.87,38.75,21.62,38.77Z"/><path class="cls-1" d="M26,34.4c-.08-.32.22-.64,0-1,.52.22.87-.54,1.4-.26a.38.38,0,0,1,.11.23.3.3,0,0,1-.15.2C26.86,33.75,26.59,34.34,26,34.4Z"/><path class="cls-2" d="M31,34.41c.47-1.06,1.54-1.52,2.39-2.19-.82.7-1.3,1.75-2.4,2.17Z"/><path class="cls-2" d="M48.3,35.15c.7-.57,1.14-1.46,2.21-1.59l-2,1.79Z"/><path class="cls-1" d="M49.36,5.1c-.38.71-1.2,1-1.64,1.66-.21.33-.35,0-.39-.26A1.25,1.25,0,0,0,48,5.87c.36-.37.58-.91,1.18-1Z"/><path class="cls-2" d="M58.75,31.88c-.16,1.14-.89,1.46-1.54,1.85C57.46,33,58.08,32.6,58.75,31.88Z"/><path class="cls-2" d="M21.11,28.47l1.62-1.78C22.62,27.7,21.8,28.05,21.11,28.47Z"/><path class="cls-2" d="M40.35,32c.66-.05.87-.74,1.38-1,.33.78.28,1-.49,1C41,32,40.62,32.93,40.35,32Z"/><path class="cls-2" d="M22.83,42a2,2,0,0,1-.82.83c-.33-.6.28-.82.5-1.16a4.62,4.62,0,0,1,.92-.84h0C23.72,41.41,23,41.52,22.83,42Z"/><path class="cls-2" d="M31.19,5.52v.55c-.54.23-.78.9-1.57,1C30.16,6.46,30.35,5.69,31.19,5.52Z"/><path class="cls-1" d="M50,43.35c.41-.16.63-.72,1.18-.6a7.45,7.45,0,0,1-1.55,1.62c-.06-.2-.45-.36-.06-.6C49.68,43.65,49.71,43.39,50,43.35Z"/><path class="cls-2" d="M24.64,22.85c.48-.53.79-1.24,1.58-1.41a6.65,6.65,0,0,1-1.87,2C24.29,23.12,24.6,23.06,24.64,22.85Z"/><path class="cls-2" d="M50.77,45c.16-1,1.22-.59,1.65-1.15a2.83,2.83,0,0,1-1.49,1.32A.65.65,0,0,1,50.77,45Z"/><path class="cls-2" d="M28.52,4.58A2.7,2.7,0,0,1,27.1,6,2.57,2.57,0,0,1,28.52,4.58Z"/><path class="cls-2" d="M39.75,36.81c-.4,0-.6-.18-.4-.6a.94.94,0,0,1,.24-.58l0-.06.2-.07H40a.27.27,0,0,1,.19.08c.39.19.06.4,0,.6C40.35,36.6,40.22,36.81,39.75,36.81Z"/><path class="cls-2" d="M27.37,22.18a7.63,7.63,0,0,1-1.61,1.75C26,23.07,26.3,22.7,27.37,22.18Z"/><path class="cls-2" d="M31.83,22.83l2-1.79q.09.08.06.15s0,.08-.05.08c-.57.59-1.12,1.2-1.72,1.77C31.74,23.36,31.85,23,31.83,22.83Z"/><path class="cls-2" d="M25.23,46.74a.7.7,0,0,1-.43.43c-.47,0-.61.39-.9.61s-.23-.1-.3-.21a2.87,2.87,0,0,1,1.32-1.3C25.24,46.28,25.4,46.4,25.23,46.74Z"/><path class="cls-2" d="M24.83,46.34a4,4,0,0,1-1.23,1.23c-.19-.07-.16-.25-.2-.4.58-.18.71-1,1.43-1,.06,0,.08.07.06.1S24.85,46.34,24.83,46.34Z"/><path class="cls-2" d="M38.4,22.87c0-.31-.07-.53,0-.67a1.43,1.43,0,0,1,.75-.72.41.41,0,0,1,.3.19c0,.37-.36.48-.54.72A5.46,5.46,0,0,1,38.4,22.87Z"/><path class="cls-2" d="M23.63,36.77a2.69,2.69,0,0,1,1.58-1.55A2.83,2.83,0,0,1,23.63,36.77Z"/><path class="cls-2" d="M37,1.89c.53.74-.32.89-.57,1.28-.11.19-.35.4-.41-.07-.09-.62.49-.72.8-1Z"/><path class="cls-1" d="M43.18,3.11c-.16.4-.6.47-.88.73s-.53.06-.5-.34c.37,0,.57-.28.77-.52S43,3,43.18,3.11Z"/><path class="cls-2" d="M34.26,3.29c0-1.13.12-1.2,1.17-1Z"/><path class="cls-2" d="M30,19.24c-.57-.16-.8.49-1.24.6l1.61-1.54a1.21,1.21,0,0,0-.38,1Z"/><path class="cls-2" d="M30.7,3.23c.19-.73.73-.64,1.29-.6C31.76,3.33,31.29,3.4,30.7,3.23Z"/><path class="cls-2" d="M26.21,21.45c0-.21.41-.42,0-.64a.26.26,0,0,1,0-.23.55.55,0,0,1,.16-.18.57.57,0,0,1,.23-.08.4.4,0,0,1,.21.09c.1.15.8-.18.33.39C26.9,21.08,26.68,21.47,26.21,21.45Z"/><path class="cls-1" d="M50.34,21.68c.43-.31.6-.93,1.2-1-.49,1.18-.64,1.31-1.42,1.21Z"/><path class="cls-2" d="M49.33,18.83c.06.21.33.43,0,.63l-1.18.78h0C48.27,19.55,48.89,19.26,49.33,18.83Z"/><path class="cls-2" d="M28,24.61l.38-.38A.63.63,0,0,0,28.6,24h0a.13.13,0,0,1,.19,0,.93.93,0,0,1-.16.77.66.66,0,0,1-.78.41l-.09,0s0-.07,0-.11l.06-.09.12-.17A.66.66,0,0,1,28,24.61Z"/><path class="cls-2" d="M48.55,41a.63.63,0,0,1-.63.43.15.15,0,0,1-.21,0,.21.21,0,0,1,0-.23v0l.18-.21a.91.91,0,0,1,.82-.82.46.46,0,0,1,.12.23C48.84,40.62,48.67,40.77,48.55,41Z"/><path class="cls-2" d="M28.23,68.11a3.76,3.76,0,0,1-1.14,1c-.06-.69.57-.83.73-1.24a.16.16,0,0,1,.19-.09A.37.37,0,0,1,28.23,68.11Z"/><path class="cls-2" d="M41.36,16.85c-.18.79-.87,1.12-1.55,1.46l1.56-1.45Z"/><path class="cls-2" d="M35.59,14.86c-.37.59-1,.71-1.33,1.09C34.54,15.48,34.74,14.92,35.59,14.86Z"/><path class="cls-2" d="M39.75,36.81a.65.65,0,0,0,.43-.64c.74,0,.12.63.39.86l-.22.17C39.89,37.46,39.8,37.17,39.75,36.81Z"/><path class="cls-2" d="M25.45,70.57a6.52,6.52,0,0,0,.16-.74c0-.2.07-.42.29-.42s.24.18.34.3-.1.29-.18.43-.25.39-.38.58Z"/><path class="cls-1" d="M30.22,21.85c-.36.39-.6.93-1.22,1,.07-.62.61-.87,1-1.23Z"/><path class="cls-2" d="M58.12,26.85c-.09-.62.65-.6.8-1,.28.15.18.39.17.61a.38.38,0,0,1-.15.2l-.45.21A.26.26,0,0,1,58.12,26.85Z"/><path class="cls-2" d="M49.14,4.87,48,5.87c.14-.73.84-1,1.24-1.52C49.48,4.6,49.14,4.7,49.14,4.87Z"/><path class="cls-1" d="M25,32l.56-.39c.12.67-.39.86-.73,1.16H24.6a.3.3,0,0,1,0-.38Z"/><path class="cls-1" d="M33.19,14.84l.7-.79c.25.66-.37.83-.47,1.22A.43.43,0,0,1,33.19,14.84Z"/><path class="cls-2" d="M46.11,3.87a1,1,0,0,1,.6-.93c.13-.06.24.07.22.23C46.88,3.64,46.39,3.63,46.11,3.87Z"/><path class="cls-2" d="M28.65,6.56l1.4-1.37c-.26.83-.84,1.09-1.19,1.55Z"/><path class="cls-1" d="M44.14,38.6l-.77,0c-.12-.35.22-.4.37-.57.24,0,.53-.06.67.2S44.29,38.51,44.14,38.6Z"/><path class="cls-1" d="M35.76,18.25v-.59c.35,0,.52-.73.83-.39s-.33.51-.51.77C36,18.14,35.87,18.18,35.76,18.25Z"/><path class="cls-2" d="M28.23,68.11,28,67.87a.72.72,0,0,1,.19-.76h.64A1.38,1.38,0,0,1,28.23,68.11Z"/><path class="cls-2" d="M22.17,35.72l-1.44,1.49A3.9,3.9,0,0,1,22.17,35.72Z"/><path class="cls-1" d="M44.55,31.43c-.29,0-.75.24-.57-.41a1.09,1.09,0,0,1,1-.17Z"/><path class="cls-2" d="M36.78,2.08l-.8,1h-.21C35.76,2.41,36.11,2.09,36.78,2.08Z"/><path class="cls-1" d="M56.35,27.82c.21.42-.05.6-.4.66s-.15-.29-.24-.44l.42-.44C56.3,27.58,56.38,27.64,56.35,27.82Z"/><path class="cls-1" d="M31.39,4.87c.16-.37.48-.39.81-.38q.09.06.06.12s0,.06,0,.06a1,1,0,0,1-.81.62Z"/><path class="cls-2" d="M47.33,28.83l.24-.42c.67-.1.42.3.34.62l-.58.38C47.15,29.22,47.22,29,47.33,28.83Z"/><path class="cls-2" d="M36.58,13.66c-.16.36,0,.92-.74,1,.08-.49.12-.94.75-1Z"/><path class="cls-2" d="M47.76,37.19l-1.19,1.06C46.72,37.69,47.31,37.48,47.76,37.19Z"/><path class="cls-2" d="M27.35,21.26c.24-.38.34-.89.87-.87.06,0,.11.15.16.22Z"/><path class="cls-2" d="M37.71,20.4a1.52,1.52,0,0,1,.78-1.07s.2.15.19.18C38.55,19.89,38.25,20.09,37.71,20.4Z"/><path class="cls-2" d="M58.59,31.21a1.09,1.09,0,0,1,.64-1.11s.15.07.15.11C59.38,30.73,58.87,30.83,58.59,31.21Z"/><path class="cls-2" d="M43.45,4.46l1.11-1c-.15.72-.62.88-.89,1.24Z"/><path class="cls-2" d="M40.17,13.06c0,.24-.11.4-.2.58-.34.12-.44.58-.87.6-.1-.28.28-.33.25-.56s.14-.13.23-.18l0-.06c.21-.12.25-.53.62-.37Z"/><path class="cls-2" d="M37.78,3.93l-.59-.05a2,2,0,0,1,1-.84C38,3.41,38.09,3.73,37.78,3.93Z"/><path class="cls-2" d="M25,34.23c.13.63-.46.68-.78,1C24.34,34.74,24.37,34.23,25,34.23Z"/><path class="cls-2" d="M53.31,40.59l.62-.41c.08-.08.15-.08.22,0a1.43,1.43,0,0,1-.83,1h0A.46.46,0,0,1,53.31,40.59Z"/><path class="cls-2" d="M33,26.62c-.93-.38,0-.67,0-1C33.76,26,32.8,26.28,33,26.62Z"/><path class="cls-1" d="M20.47,27c-.11-.62.15-.86.76-.76l.08.07a.36.36,0,0,1,0,.11l-.13.18a1.28,1.28,0,0,1-.11.2Z"/><path class="cls-1" d="M26.41,52.92l.94-.58c.06.63-.48.58-.71.81Z"/><path class="cls-2" d="M33.8,21.27V21l.61-.81.32.15C34.36,20.62,34.31,21.18,33.8,21.27Z"/><path class="cls-1" d="M18.06,19.44c.32.12.44-.31.74-.27.1.47-.14.65-.55.7C18.29,19.68,17.82,19.72,18.06,19.44Z"/><path class="cls-2" d="M48.75,40.41v-.25c.15-.37.47-.38.79-.4v.42l-.42.21A.27.27,0,0,1,48.75,40.41Z"/><path class="cls-1" d="M21.62,38.77l.4-.4c-.07.29.46.69-.08.88C21.7,39.33,21.65,39,21.62,38.77Z"/><path class="cls-2" d="M20.5,36c.16-.43.51-.54,1-.75C21.23,35.75,21,36.08,20.5,36Z"/><path class="cls-2" d="M39.59,35.63c.17.29,0,.47-.24.58-.85.06-.26-.36-.2-.6a.18.18,0,0,1,.25,0A.65.65,0,0,1,39.59,35.63Z"/><path class="cls-1" d="M26.61,38a2.14,2.14,0,0,1-.76.79c-.14-.52.2-.77.56-1Z"/><path class="cls-1" d="M28.19,67.11a.87.87,0,0,1-.19.76l-.18,0c-.47-.41-.19-.64.21-.83Z"/><path class="cls-1" d="M45.53,40.79l-.55.36c.06-.53.43-.72.75-1,.15.11.13.24,0,.37Z"/><path class="cls-2" d="M25.43,37.57a1.13,1.13,0,0,1-.64.61.88.88,0,0,1,.4-.84C25.47,37.18,25.38,37.46,25.43,37.57Z"/><path class="cls-2" d="M52.52,27.8a1.21,1.21,0,0,1,0,.19c-.48,0-.6.59-1.16.6C51.68,28.11,52,27.78,52.52,27.8Z"/><path class="cls-2" d="M23.81,31.79l.22.44c-.17.3-.51.12-.76.33C23.26,32.1,23.58,32,23.81,31.79Z"/><path class="cls-1" d="M51.54,35.61c0-.63.45-.81,1-.83a.67.67,0,0,1-.42.43c-.16.18-.21.52-.58.38Z"/><path class="cls-2" d="M34.18,27.2c0-.39.21-.65.62-.54s-.06.24,0,.37c-.14.23-.22.54-.6.41A.18.18,0,0,1,34.18,27.2Z"/><path class="cls-2" d="M48.75,52.51l.76-.76C49.61,52.37,49.36,52.62,48.75,52.51Z"/><path class="cls-1" d="M30.38,21c0-.57.24-.84.81-.82A1.66,1.66,0,0,1,30.38,21Z"/><path class="cls-2" d="M23.46,7.89c-.09-.41.2-.56.5-.74a.75.75,0,0,1-.34.9A.23.23,0,0,1,23.46,7.89Z"/><path class="cls-2" d="M44.48,20c0,.48-.44.63-.74.87C43.8,20.37,44.18,20.19,44.48,20Z"/><path class="cls-2" d="M39.4,35.59l-.25,0c-.17,0-.48.09-.5,0-.12-.28.15-.46.32-.52C39.34,35,39.35,35.34,39.4,35.59Z"/><path class="cls-2" d="M19,30.05a1.07,1.07,0,0,1-.67.69C18.19,30.19,18.41,30,19,30.05Z"/><path class="cls-1" d="M25.61,41.16a1.33,1.33,0,0,1,.58-.57.37.37,0,0,1,0,.58l-.35.22Z"/><path class="cls-1" d="M25.57,6.22c0,.21-.08.34-.23.34a.24.24,0,0,1-.26-.31c0-.1.17-.23.26-.22S25.51,6.17,25.57,6.22Z"/><path class="cls-1" d="M48.54,46.39l-.39.17h0c-.21-.32-.34-.63.19-.77Z"/><path class="cls-2" d="M27,19.82l.6-.35c0,.42,0,.78-.56.77a.26.26,0,0,1-.14-.2l0-.12Z"/><path class="cls-1" d="M19.87,34.2c-.07-.19-.34-.31-.14-.59s.33,0,.5,0A.62.62,0,0,1,19.87,34.2Z"/><path class="cls-1" d="M30.82,25.44l-.54.7c-.22-.41.29-.73.1-1.1Z"/><path class="cls-2" d="M39.58,13.5l-.23.18c-.34,0-.61.32-1,.15V13.7A1.42,1.42,0,0,1,39.58,13.5Z"/><path class="cls-1" d="M45.76,10.26c.2.07.19.24.2.4s-.2.46-.47.3,0-.33,0-.5h0C45.63,10.41,45.65,10.29,45.76,10.26Z"/><path class="cls-2" d="M56.35,27.82l-.22-.22a.56.56,0,0,1,.38-.59C56.7,27.32,56.77,27.62,56.35,27.82Z"/><path class="cls-1" d="M45.18,27.23a1.83,1.83,0,0,1-1.07.84l.68-.84Z"/><path class="cls-2" d="M53.13,32.84a1.21,1.21,0,0,1,0,.19c-.25-.05-.3.47-.61.22a.25.25,0,0,1-.06-.23C52.62,32.76,52.88,32.8,53.13,32.84Z"/><path class="cls-2" d="M34.19,27.42l.57-.39,0,.4h0c-.22.23-.34.64-.8.46C33.86,27.64,34,27.52,34.19,27.42Z"/><path class="cls-2" d="M49.8,30.06a.88.88,0,0,1-.76.53A.66.66,0,0,1,49.8,30.06Z"/><path class="cls-2" d="M45.76,40.56l0-.37a.7.7,0,0,0,.43-.43c.09.08.42,0,.25.23A1.18,1.18,0,0,1,45.76,40.56Z"/><path class="cls-2" d="M51.53,35.59l.58-.38a.63.63,0,0,1-.49.73C51.19,36,51.61,35.7,51.53,35.59Z"/><path class="cls-2" d="M34.19,27.42l-.2.37a.11.11,0,0,1-.18,0c-.34-.2-.07-.42,0-.63h.38Z"/><path class="cls-2" d="M48.14,20.24c.06.19.29.43-.09.52-.12,0-.39-.14-.39-.2,0-.29.26-.31.49-.31Z"/><path class="cls-1" d="M58.94,26.62l.15-.2a.65.65,0,0,0,.43-.41c.23-.09.29.11.4.23v0A1,1,0,0,1,58.94,26.62Z"/><path class="cls-2" d="M25.26,8c-.21.1-.22,0-.23-.16s.09-.3.28-.29.28,0,.27.19S25.35,7.86,25.26,8Z"/><path class="cls-2" d="M36.25,25.46c0,.47-.22.63-.6.66Z"/><path class="cls-2" d="M48.74,20.82v.25c-.09.17-.19.34-.41.34-.05,0-.16-.13-.15-.18C48.23,20.93,48.47,20.85,48.74,20.82Z"/><path class="cls-2" d="M22.59,40.43a.81.81,0,0,1-.5.89C22,40.92,22.37,40.85,22.59,40.43Z"/><path class="cls-1" d="M49.93,23.47c.72.16-.12.37,0,.55C49.46,23.85,50,23.65,49.93,23.47Z"/><path class="cls-2" d="M40,20.9c0,.25-.09.35-.28.33a.52.52,0,0,1-.2-.1.54.54,0,0,1,.38-.37S39.94,20.88,40,20.9Z"/><path class="cls-2" d="M52.65,7.29c.14.06.25.08.16.21s-.05.33-.26.35-.22-.13-.17-.24A1.18,1.18,0,0,1,52.65,7.29Z"/><path class="cls-2" d="M39.08,34.32c.3-.37.23-.74.52-.66s.12.28,0,.41A3.11,3.11,0,0,1,39.08,34.32Z"/><path class="cls-1" d="M28,66.08c.13-.17.23-.48.49-.29.08.07-.06.39-.26.52Z"/><path class="cls-2" d="M59.92,26.24l-.4-.23a.81.81,0,0,1,.56-.5Z"/><path class="cls-1" d="M27.42,33.43v-.25c.27-.11.66-.58.61.22h-.24A.27.27,0,0,1,27.42,33.43Z"/><path class="cls-2" d="M43.74,38l-.37.57c-.41-.2,0-.4,0-.6Z"/><path class="cls-2" d="M30,23.84a1,1,0,0,1,.55-.56c0,.42-.2.57-.57.55Z"/><path class="cls-2" d="M24.8,25.64c.09.24-.13.39-.17.6C24.3,25.93,24.29,25.71,24.8,25.64Z"/><path class="cls-2" d="M45.9,32.39l.61-.59C46.52,32.26,46.34,32.37,45.9,32.39Z"/><path class="cls-2" d="M24.6,32.42v.38l-.33.31A.49.49,0,0,1,24.6,32.42Z"/><path class="cls-2" d="M21.32,34.79c-.14.06-.26.15-.37.14s-.18-.15-.27-.23a.8.8,0,0,1,.2-.21C21,34.41,21.07,34.59,21.32,34.79Z"/><path class="cls-2" d="M38.88,34.61c0,.3-.22.39-.47.59C38.41,34.81,38.55,34.66,38.88,34.61Z"/><path class="cls-2" d="M47.07,36.61c.13.41,0,.6-.22.71C46.66,37,47,36.89,47.07,36.61Z"/><path class="cls-2" d="M45.55,2.56c0,.17,0,.32-.2.3s-.17-.15-.15-.17a1.48,1.48,0,0,1,.22-.29Z"/><path class="cls-2" d="M30.26,3.18l-.9.25C29.59,3,29.85,3.12,30.26,3.18Z"/><path class="cls-2" d="M50.32,24.44a.57.57,0,0,1,.64,0C50.75,24.86,50.53,24.86,50.32,24.44Z"/><path class="cls-1" d="M40.18,13.07l-.62.37.22-.59C39.94,12.88,40.13,12.85,40.18,13.07Z"/><path class="cls-1" d="M22.24,14c.14.13.49.2.22.46s-.34,0-.4-.24Z"/><path class="cls-2" d="M41.37,16.86a1,1,0,0,1,.56-.55c0,.41-.21.57-.57.54Z"/><path class="cls-2" d="M34.4,20.06c0-.32.08-.55.46-.58,0,.34-.24.45-.47.57Z"/><path class="cls-2" d="M40.14,69.35c-.15.22-.25.41-.56.47C39.63,69.47,39.73,69.28,40.14,69.35Z"/><path class="cls-2" d="M22.22,38l-.2-.23c0-.05,0-.1,0-.15l.37,0,.1.06v.13l-.17.17Z"/><path class="cls-2" d="M27.42,33.43l.37,0c-.08.19-.12.46-.41.2A.58.58,0,0,0,27.42,33.43Z"/><path class="cls-2" d="M54.15,40.19h-.22l.19-.36C54.44,39.92,54.34,40.05,54.15,40.19Z"/><path class="cls-2" d="M21.05,26.82a1,1,0,0,1,0-.17l.08-.09.1.06Z"/><path class="cls-1" d="M51.91,42.17l.2-.18a.12.12,0,0,1,.07.11s0,.07,0,.07Z"/><path class="cls-2" d="M52.16,42.17c0-.06,0-.12,0-.18l.22.16-.09,0Z"/><path class="cls-2" d="M21.42,26.42c0,.13-.07.19-.2.2h0s-.07-.09,0-.13,0-.07.06-.07h0l.08-.09Z"/><path class="cls-2" d="M21.62,26.25l-.2.17h0a.11.11,0,0,1-.06-.14c0-.05,0-.07.06-.07h0C21.5,26.17,21.56,26.17,21.62,26.25Z"/><path class="cls-1" d="M21.62,26.25l-.2,0,0-.2Z"/><path class="cls-2" d="M28.78,24h-.19l.22-.2Z"/><path class="cls-2" d="M60.08,27.43h-.16l-.09-.09.06-.12h.19Z"/><path class="cls-2" d="M28.8,23.84c0-.11.07-.19.2-.18Z"/><path class="cls-2" d="M37.75,21.44l-.16-.21.09-.07.09.08Z"/><path class="cls-2" d="M37.77,21.05l.14.06-.14.13h0l-.09-.09Z"/><path class="cls-2" d="M37.59,21.06l.16-.21,0,.2h0A.13.13,0,0,1,37.59,21.06Z"/><path class="cls-2" d="M40,35.41l.08-.16.1.13-.08.1Z"/><path class="cls-2" d="M50.77,45l.16.17C50.8,45.16,50.75,45.1,50.77,45Z"/><path class="cls-1" d="M39.75,35.59a.37.37,0,0,1-.18,0l.23-.16c0,.05.05.1,0,.13A.08.08,0,0,1,39.75,35.59Z"/><path class="cls-2" d="M39.75,35.59l0-.18H40v0a.13.13,0,0,1,.06.13s0,.07,0,.07Z"/><path class="cls-1" d="M52.76,45.38l-.22.15Z"/><path class="cls-1" d="M40,35.59l0-.2h.19a1.21,1.21,0,0,1,0,.19l-.09,0Z"/><path class="cls-1" d="M26.81,20.41l-.08,0h-.09a.11.11,0,0,1-.05-.12c0-.05,0-.07,0-.07l.1,0,.1.05A.76.76,0,0,1,26.81,20.41Z"/><path class="cls-2" d="M23.22,37.2l.18-.2C23.41,37.13,23.33,37.18,23.22,37.2Z"/><path class="cls-2" d="M23,37.4l.21-.21Z"/><path class="cls-2" d="M22.82,37.6l.21-.21Z"/><path class="cls-2" d="M22.64,37.6h.19l-.21.19a.86.86,0,0,1-.07-.1Z"/><path class="cls-2" d="M22.62,37.78c0,.13-.07.2-.2.2l-.06-.1a.86.86,0,0,0,.07-.1v0a.12.12,0,0,1,.21,0Z"/><path class="cls-1" d="M27,20.07a1,1,0,0,0,0,.17l-.22,0,0,0a.18.18,0,0,1,0-.2A.11.11,0,0,1,27,20.07Z"/><path class="cls-2" d="M22.23,38.16s0-.11,0-.16l0,0a.12.12,0,0,1,.19,0v0C22.41,38.1,22.36,38.17,22.23,38.16Z"/><path class="cls-1" d="M51.54,8.05l-.21,0h0a2,2,0,0,0,.19-.22C51.53,7.93,51.54,8,51.54,8.05Z"/><path class="cls-2" d="M28.42,18.67a.47.47,0,0,1,.17,0,.15.15,0,0,1-.16.18A.32.32,0,0,1,28.42,18.67Z"/><path class="cls-2" d="M37.88,14.11s0,0,0,.06,0,0-.06.05,0,0,0-.06S37.86,14.13,37.88,14.11Z"/><path class="cls-2" d="M38.38,13.7v.13l-.16-.06Z"/><path class="cls-1" d="M23.81,39.58,24,39.4a.25.25,0,0,1,0,.19Z"/><path class="cls-1" d="M23.63,39.62l.18,0C23.78,39.68,23.72,39.72,23.63,39.62Z"/><path class="cls-2" d="M23.42,8.08l-.08.15c-.14-.15,0-.11.09-.14Z"/><path class="cls-2" d="M23.46,7.89l.16.16-.2,0h0Z"/><path class="cls-1" d="M51.52,7.88a1.05,1.05,0,0,1,0-.19.8.8,0,0,1,0,.15Z"/><path class="cls-1" d="M47.92,41c0,.14-.06.19-.18.21l0-.21Z"/><path class="cls-2" d="M32.21,4.67a1.09,1.09,0,0,1,0-.18h0l.1-.07.1.06a.46.46,0,0,1,0,.2h-.08Z"/><path class="cls-2" d="M32.38,4.31h.18c0,.13-.05.18-.17.19h0a.13.13,0,0,1,0-.12S32.36,4.31,32.38,4.31Z"/><path class="cls-1" d="M35.79,53.31a10.5,10.5,0,0,0-1.67.85c.45-.46.87-.93,1.33-1.38s0-.39-.27-.47-.23-.09-.26-.23a.69.69,0,0,1,.2-.45,2.5,2.5,0,0,1,.47-.39l.19-.12.09-.07.17-.13.08-.08.15-.14.08-.06c.13-.09-.07-.17,0-.25a.82.82,0,0,1,.23-.29,2.42,2.42,0,0,1,2-1c.09,0,.18.23.27.1s-.25,0-.31-.14-.06-.15,0-.2A6.79,6.79,0,0,1,42,46.18c.18.31-.54.65,0,1l.22-.16,1-.4c-.32.67-.85,1.06-1,1.7.35.27.45-.46.81-.24-.15.54-.9.67-.89,1.31.13.48-.28.69-.54.95A15.89,15.89,0,0,1,39.87,52l-.28.19a.8.8,0,0,0-.13.28.34.34,0,0,1-.13.16.16.16,0,0,1-.18-.08l-.71.63c-.19.17-.38.49-.63.33s-.14-.5,0-.77l0,0,0,0c-.19-.17-.82.63-.66-.3l-.53.32C36.26,52.85,36.11,53.2,35.79,53.31Z"/><path class="cls-1" d="M39.55,52a18.61,18.61,0,0,0,2.63-2.62c.22-.06.1.56.47.23s.9-.76,1.34-1.15c.21-.19.25-.64.72-.28s0,.67-.13.86c-.92,1-1.9,2-2.84,3.08A13.79,13.79,0,0,1,40,53.82c-.11-.43.79-.88-.2-1a.4.4,0,0,1-.26-.18.78.78,0,0,1,0-.22,1.48,1.48,0,0,1,0-.21A.46.46,0,0,1,39.55,52Z"/><path class="cls-1" d="M39.16,45.59l-.38.28c-.17.12-.3.41-.57.21s.06-.41.13-.61a3.79,3.79,0,0,0,.15-.58c-.45.78-.64-.09-1,0s-.88.32-1.32.48c-.28.13-.45.51-.85.38a2.52,2.52,0,0,1,2.51-1.88,3.75,3.75,0,0,0,1.29.08c.64-.19.65.18.64.61a.48.48,0,0,1,.09.26A1,1,0,0,1,39.16,45.59Z"/><path class="cls-2" d="M38.58,49.15a4.92,4.92,0,0,0-2,1.19c-.4-.51.06-.72.36-1L39.6,47a2.3,2.3,0,0,1,1-1.07c.53-.22.91-.76,1.56-.73.12.38.32.78-.21,1-.94.7-1.88,1.4-2.8,2.12-.27.22-.61.43-.58.87Z"/><path class="cls-1" d="M34.57,50.76c-.57,0-.86.5-1.1.86s-.63.56-.88.9a6.53,6.53,0,0,0-1.17,1c-.22.2-.44.52-.81.21a8.9,8.9,0,0,0,1.61-2.27c.3-.86,1.17-1.23,1.81-1.76.29-.24,1.07-.46,1.17.44C35.26,50.61,35,50.81,34.57,50.76Z"/><path class="cls-1" d="M39.18,41,37,43a14.43,14.43,0,0,1,3.19-4.11c.25-.19.39-.58.81-.47.57.54-.12.72-.3,1s-.48.59-.72.9l-.18.18a4.63,4.63,0,0,1-.48.4Z"/><path class="cls-1" d="M24.82,51.89c-.51,1-1.71,1.4-2.27,2.36,0,.07-.26.09-.36,0s-.12-.25,0-.4a1.37,1.37,0,0,1,.49-.58,1.44,1.44,0,0,0,.72-.92A1,1,0,0,1,24.82,51.89Z"/><path class="cls-1" d="M38.61,42.38c0-.22.17-.31.34-.41A9.58,9.58,0,0,1,40.76,40c.38.08.52-.49,1-.34a4,4,0,0,1-1.55,1.85c-.57.26-.58,1.27-1.46,1A.23.23,0,0,1,38.61,42.38Z"/><path class="cls-1" d="M37,49.36c-.13.33-.52.56-.36,1l-.21.24a.12.12,0,0,1,0,.18v0l-.21.22v0l-.21.22v0a.35.35,0,0,1-.22.1,1.12,1.12,0,0,0-.78.59c-.4.25-.62.79-1.21.73,0-.59.65-.72.79-1.2a1.89,1.89,0,0,1,1-1C36.15,50.15,36.3,49.4,37,49.36Z"/><path class="cls-1" d="M43.7,50.67c-.29,1.17-1.28,1.82-1.91,2.73-.11.15-.22,0-.31-.06s-.08-.28,0-.43A10,10,0,0,1,43.7,50.67Z"/><path class="cls-1" d="M32,49.93c.24.08.75.06.39.49a10,10,0,0,1-2.21,2.3c.11-.66.2-1.17.8-1.52.35-.19.82-.47.79-1A.28.28,0,0,1,32,49.93Z"/><path class="cls-1" d="M46.53,42.55a6.35,6.35,0,0,1-2.18,2.22A3.93,3.93,0,0,1,46.53,42.55Z"/><path class="cls-2" d="M30.61,53.72c.53.05.69-.43,1-.69s.55-.55,1-.51A8,8,0,0,1,30,54.93l-.17-.17Z"/><path class="cls-1" d="M28.81,46.4c-.23-.08-.84.08-.27-.47.29-.27.56-.55.84-.83s.45-.51.72-.23.12.61-.15.86l-.52.44-.18.1a.66.66,0,0,0-.17.12l-.09.06A.2.2,0,0,1,28.81,46.4Z"/><path class="cls-1" d="M39.16,45.59l.62-.84a.87.87,0,0,1,.21-.17h0a.73.73,0,0,1,.22-.21,1.49,1.49,0,0,0,.94-.29,9,9,0,0,1-1.93,2.25Z"/><path class="cls-1" d="M42.16,45.15c-.52.3-.91.83-1.58.84a.16.16,0,0,1-.07-.16c0-.06,0-.09.05-.09.45-.8,1.33-1.18,2-2.14C42.47,44.32,42,44.66,42.16,45.15Z"/><path class="cls-1" d="M28.41,40.55l-.75.52c.41-1,1.19-1.54,1.52-2.32.11-.25.39.13.6,0a.47.47,0,0,1,0,.17A2.73,2.73,0,0,1,28.41,40.55Z"/><path class="cls-1" d="M28.41,40.55,29.81,39l.31.16c-.8.56-.7,1.81-1.7,2.23C28.08,41.09,29.18,40.82,28.41,40.55Z"/><path class="cls-1" d="M24.83,46.34a.38.38,0,0,1,0-.15l1.44-1.3c.25.69-.51.94-.44,1.45.05.21,0,.29-.23.23l-.37.17C25.25,46.45,25.09,46.35,24.83,46.34Z"/><path class="cls-1" d="M32.78,42c.31,1-.86,1-1.17,1.62,0,.07-.59.3-.64-.23s.29-.55.57-.72C32,42.61,32.3,42.1,32.78,42Z"/><path class="cls-1" d="M40.76,40A5.3,5.3,0,0,1,39,42l.23-1h0c.27-.14.41-.41.61-.61h0c.35-.14.5-.71,1-.44Z"/><path class="cls-1" d="M25.41,50.14c-.08.51-.57.71-.82,1.34-.08-.55-.62-.68-.36-1.13h0a1,1,0,0,1,1.2-.2Z"/><path class="cls-1" d="M45.38,46.37c.32-.27.42-1,1.14-.47C46,46.31,45.7,47,45,47.17,44.86,46.78,45.24,46.64,45.38,46.37Z"/><path class="cls-1" d="M28,49.19c-.44-.33,0-.51.16-.67a9.33,9.33,0,0,1,.94-.67c.35.49-.42.66-.31,1.09A.68.68,0,0,1,28,49.19Z"/><path class="cls-1" d="M34,45.18l1.26-.8a4.5,4.5,0,0,1-1.39,1.73l.15-1Z"/><path class="cls-2" d="M33.78,52.56c.48-.16.61-.81,1.19-.82a.16.16,0,0,1,.24,0l-.19.39a.14.14,0,0,1,0,.2h0a1.8,1.8,0,0,0-.19.2c-.48,0-.65.48-1,.6a.43.43,0,0,1,0-.6Z"/><path class="cls-2" d="M32.78,42c-.32.38-.55.88-1.18.81-.12-.17,0-.33,0-.49s.18-.18.33-.14l.67-.54c.13-.1.29-.24.4-.05S32.94,41.9,32.78,42Z"/><path class="cls-1" d="M47.06,46a5.91,5.91,0,0,1,1.74-1.75C48.34,44.82,48,45.58,47.06,46Z"/><path class="cls-1" d="M32,49.93l-.23.23h-.37a8.93,8.93,0,0,1,1.78-1.8h0C33.12,49.12,32.27,49.31,32,49.93Z"/><path class="cls-1" d="M34,45.16a2,2,0,0,0-1.27,0c.21-.5.41-.78.8-.89-.05.4.88.3.45.89Z"/><path class="cls-1" d="M35.6,50.33a3,3,0,0,1-1,1c-.85-.2.26-.4,0-.6a1.29,1.29,0,0,0,.63-.63C35.35,50.17,35.53,50.14,35.6,50.33Z"/><path class="cls-1" d="M33.19,48.36a1.72,1.72,0,0,1,1.11-1.13c-.27.48-.31,1.16-1.12,1.12Z"/><path class="cls-2" d="M31.79,42.35l-.19.45c-.17.24-.54.25-.63.58-.13,0-.27.21-.38,0-.26-.45.18-.55.39-.76l.23-.23C31.4,42.25,31.6,42.18,31.79,42.35Z"/><path class="cls-1" d="M47.77,41.37l.15,0c.14.43-.47.56-.38,1-.2-.07-.45.29-.55,0s.12-.58.33-.81a.56.56,0,0,0,.22-.21h0A.17.17,0,0,1,47.77,41.37Z"/><path class="cls-1" d="M28.32,52.39c.4-.32.65-.6,1.13-.37.2.11.13.2.08.28C29.25,52.8,28.85,52.62,28.32,52.39Z"/><path class="cls-1" d="M33.8,52.54l0,.6c-.33.25-.8.17-1.1.51A1.52,1.52,0,0,1,33.8,52.54Z"/><path class="cls-1" d="M29,46.76c.17.73-.49.92-.87,1.42-.22-.81.57-.94.74-1.42Z"/><path class="cls-1" d="M40.56,39.41c0-.36.72-.47.42-1,.39,0,.76-.1.42.51a2.1,2.1,0,0,1-.63.69Q40.53,39.65,40.56,39.41Z"/><path class="cls-1" d="M40.56,45.74l0,.25a3.58,3.58,0,0,1-1,1C39.51,46.23,40,46,40.56,45.74Z"/><path class="cls-1" d="M40.2,43a1.31,1.31,0,0,1,.64-.67c.14-.08.34.17.28.28a1.08,1.08,0,0,1-.64.6A.21.21,0,0,1,40.2,43Z"/><path class="cls-1" d="M59.27,58.08,58,59.34C58.15,58.74,58.81,58.48,59.27,58.08Z"/><path class="cls-1" d="M31,42.59c-.06.29-.45.41-.39.76l-.67.55C30.19,43.39,30.2,42.68,31,42.59Z"/><path class="cls-1" d="M29.25,47.49c.3-.35.47-.77,1.09-.69C30.08,47.21,30,47.72,29.25,47.49Z"/><path class="cls-2" d="M40.56,39.41l.21.21V40c-.42,0-.58.51-1,.44C40,40,40.09,39.57,40.56,39.41Z"/><path class="cls-1" d="M39.55,52.54l.23.23a1.91,1.91,0,0,1-.88.75c.09-.33.39-.6.25-1h.25Q39.48,52.44,39.55,52.54Z"/><path class="cls-2" d="M28,49.19a1.14,1.14,0,0,1,.79-.25c.16.28.13.51-.21.62a.24.24,0,0,1-.36,0A.39.39,0,0,1,28,49.19Z"/><path class="cls-1" d="M49.34,50.16l1.11-.88C50.36,49.64,49.82,49.9,49.34,50.16Z"/><path class="cls-1" d="M27.82,53.17l-.37,1.07C27.2,53.49,27.2,53.49,27.82,53.17Z"/><path class="cls-1" d="M33.4,43.19a2.21,2.21,0,0,1,1.06-.95C34.26,42.9,34,43.16,33.4,43.19Z"/><path class="cls-1" d="M25.42,50.16c.11-.53.68-.67,1-1.25,0,.8-.37,1.13-1,1.23Z"/><path class="cls-1" d="M26.48,47.7c-.22.61-.44.88-1,.83A1.62,1.62,0,0,1,26.48,47.7Z"/><path class="cls-1" d="M31.7,57.21l-1.16,1.14A1.91,1.91,0,0,1,31.7,57.21Z"/><path class="cls-1" d="M27.81,50.55l-.94,1.05-.2-.2c.38-.29.53-.82,1.15-.84Z"/><path class="cls-1" d="M35.36,45.76c.3-.09.48-.43.85-.38-.05.47-.49.61-.8.72S35.17,45.92,35.36,45.76Z"/><path class="cls-1" d="M35.44,42.58c-.07.48-.19.9-.85.71Z"/><path class="cls-1" d="M33,59.87c.08-.66.38-.78.76-1.06C33.75,59.48,33.41,59.56,33,59.87Z"/><path class="cls-1" d="M35.2,61.17l1-.92A1,1,0,0,1,35.2,61.17Z"/><path class="cls-1" d="M31.79,42.35h-.58c.12-.15.23-.31.36-.45s.22-.31.36-.2,0,.3,0,.46Z"/><path class="cls-1" d="M28.23,49.56h.36a1.53,1.53,0,0,1-.78,1h0C27.71,50.13,28.29,50,28.23,49.56Z"/><path class="cls-1" d="M31.39,50.15c0,.46-.21.66-.71.55.14-.34.34-.57.73-.54Z"/><path class="cls-1" d="M61.41,55.75c-.18-.46,0-.65.23-.77,0,0,.21.06.22.1C61.9,55.41,61.58,55.47,61.41,55.75Z"/><path class="cls-1" d="M50,43.35a.67.67,0,0,1-.43.42c.06-.36-.1-.81.4-1Z"/><path class="cls-2" d="M45.38,46.37c0,.36-.34.51-.43.8h0a.29.29,0,0,1-.4,0A1.66,1.66,0,0,1,45.38,46.37Z"/><path class="cls-1" d="M35.79,53.31c.26-.2.29-.73.8-.54C36.38,53,36.24,53.39,35.79,53.31Z"/><path class="cls-1" d="M51.51,46.52c0-.29,0-.56.35-.69C52,46.17,51.71,46.33,51.51,46.52Z"/><path class="cls-1" d="M48.15,46.56a1.19,1.19,0,0,1-.83.66c.27-.43.43-.68.84-.65Z"/><path class="cls-1" d="M44.73,45.48a1.75,1.75,0,0,1-.39.36c-.2.09-.17-.1-.17-.2s.11-.28.3-.26A1.3,1.3,0,0,1,44.73,45.48Z"/><path class="cls-1" d="M25.6,46.57l.23-.23a2.4,2.4,0,0,1,.33-.05c.1.3-.16.43-.33.53S25.67,46.67,25.6,46.57Z"/><path class="cls-1" d="M43.93,42.69c-.16.15-.25.3-.39.36s-.16-.1-.17-.2a.24.24,0,0,1,.3-.26A1.3,1.3,0,0,1,43.93,42.69Z"/><path class="cls-1" d="M44.57,47.19l.4,0c0,.05,0,.13-.09.16s-.09.47-.32.39S44.66,47.37,44.57,47.19Z"/><path class="cls-1" d="M27,44.72l-.14.15a1.23,1.23,0,0,1-.22-.29c0-.11.07-.17.17-.17S27,44.55,27,44.72Z"/><path class="cls-1" d="M28.66,45.07l.4-.44c.21.16.1.27,0,.39A.26.26,0,0,1,28.66,45.07Z"/><path class="cls-1" d="M59.5,53.53c0,.32-.08.55-.46.58,0-.34.24-.45.48-.57Z"/><path class="cls-1" d="M24.23,45.35c-.05-.49.31-.36.57-.37A.46.46,0,0,1,24.23,45.35Z"/><path class="cls-1" d="M47.56,42.8c.19-.11.35-.27.6-.23C47.93,42.57,48.08,43.57,47.56,42.8Z"/><path class="cls-1" d="M38.61,42.38l.16.16-.2,0h0Z"/><path class="cls-1" d="M38.57,42.57l-.08.16c-.13-.16,0-.12.09-.15Z"/><path class="cls-1" d="M25.63,43.75l.09-.14.07.16h-.08Z"/><path class="cls-2" d="M40.2,44.38l-.22.21Z"/><path class="cls-2" d="M40,44.58l-.21.17a.37.37,0,0,1,0-.18Z"/><path class="cls-1" d="M29.19,46.17h.24l-.23.19-.07-.09Z"/><path class="cls-1" d="M29.2,46.36a.19.19,0,0,1-.2.2l-.07-.11.08-.09h0a.13.13,0,0,1,.21,0Z"/><path class="cls-1" d="M29,46.76h-.13a.35.35,0,0,1,0-.18c.06-.08.12-.09.19,0h0Z"/><path class="cls-2" d="M42.19,47l-.22.16Z"/><path class="cls-2" d="M29,46.57h-.19a1.09,1.09,0,0,1,0-.18l.2,0Z"/><path class="cls-1" d="M29.81,50.36l.08-.16c.13.16,0,.12-.09.15Z"/><path class="cls-1" d="M29.8,50.35l-.08.15c-.13-.15,0-.11.09-.14Z"/><path class="cls-1" d="M35,52.35l0-.2.16.16Z"/><path class="cls-1" d="M34.81,52.54c0-.13.07-.18.19-.2Z"/><path class="cls-1" d="M29.81,54.76c.13,0,.18.05.17.17h-.17Z"/><path class="cls-1" d="M29.8,54.93l-.08.16c-.13-.16,0-.12.09-.15Z"/><path class="cls-1" d="M29.21,55.54l.08-.15c.14.15,0,.11-.09.14Z"/><path class="cls-1" d="M29,55.74a.19.19,0,0,1,.2-.2h0a.19.19,0,0,1-.2.2Z"/><path class="cls-1" d="M29,55.73l-.08.15c-.13-.15,0-.11.09-.14Z"/><path class="cls-1" d="M47.77,41.37h-.23l.21-.2Z"/><path class="cls-1" d="M47.54,41.36l-.22.21Z"/><path class="cls-1" d="M32.18,6.1a1.23,1.23,0,0,0,.62-.63,2.13,2.13,0,0,1,1-.37c.14.52.81-.35.78.25s-.64,1-1.18,1.3a2,2,0,0,1-1.2,0C31.79,6.54,32.2,6.29,32.18,6.1Z"/><path class="cls-2" d="M38.16,5.1h.18a.39.39,0,0,1,0,.58c-.22.48-.73.74-.89,1.29s-.39.16-.53-.1.07-.51.2-.75a.73.73,0,0,1,.43-.43C37.79,5.49,38,5.3,38.16,5.1Z"/><path class="cls-1" d="M29.55,9.06c.79-.63,1.16-1.63,1.9-2.08L29.36,8.85Z"/><path class="cls-1" d="M27,14.89v-.25l1.9-1.7C28.37,13.68,27.93,14.53,27,14.89Z"/><path class="cls-1" d="M39.17,5.9l.94-.51c.39,1-.89.8-1.06,1.41l.13-.92Z"/><path class="cls-1" d="M34.49,8.75c-.54.55-1.1,1.06-1.42,1.33Z"/><path class="cls-1" d="M38.39,5.67l0-.58c.18-.3.45-.18.7-.17l0,.35c.06.35-.08.5-.43.43Z"/><path class="cls-1" d="M39.05,9.94c-.25.36-.31.87-.84,1.08C38.16,10.36,38.59,10.13,39.05,9.94Z"/><path class="cls-1" d="M37.17,6.11a1,1,0,0,1-.2.76c-.17,0-.3.32-.5.14s0-.3.11-.41S37,6.28,37.17,6.11Z"/><path class="cls-1" d="M45.94,8.24l-1.08,1C45.1,8.54,45.41,8.3,45.94,8.24Z"/><path class="cls-1" d="M38.56,5.7A.73.73,0,0,0,39,5.27c.27.15.16.41.18.63v0C38.93,6,38.6,6.33,38.56,5.7Z"/><path class="cls-1" d="M38,8.08c.39.44-.07.61-.31.67s-.06-.32-.14-.48,0-.07,0-.11a.72.72,0,0,1,.2-.14A.21.21,0,0,1,38,8.08Z"/><path class="cls-2" d="M24.63,14.49c-.23.17-.28.75-.77.37C24.16,14.84,24.18,14.21,24.63,14.49Z"/><path class="cls-1" d="M45.76,10.26l-.22.21c-.07-.37-.2-.76.33-.92C46.07,9.82,45.64,10,45.76,10.26Z"/><path class="cls-2" d="M29.39,16.47c-.17,0-.43.32-.45.09s.31-.5.66-.52A.42.42,0,0,1,29.39,16.47Z"/><path class="cls-1" d="M42.43,5c.13.22.43.41.09.64-.06,0-.22.06-.25,0C42,5.33,42.49,5.23,42.43,5Z"/><path class="cls-1" d="M38.16,5.1c0,.41-.16.59-.56.58C37.56,5.28,37.76,5.1,38.16,5.1Z"/><path class="cls-1" d="M39.33,8.19s-.11.17-.21.2-.26-.14-.25-.2a.28.28,0,0,1,.32-.27C39.29,7.92,39.37,8,39.33,8.19Z"/><path class="cls-1" d="M25.43,15.47c0-.38.2-.57.57-.77a.89.89,0,0,1-.59.76Z"/><path class="cls-2" d="M27.83,16.67c-.15.18-.29.55-.55.26s.13-.37.32-.49Z"/><path class="cls-1" d="M21.4,23s-.14-.13-.13-.16a.53.53,0,0,1,.21-.29c.14-.08.13.08.13.15S21.63,23,21.4,23Z"/><path class="cls-1" d="M19.13,24.41c-.15-.42.17-.41.27-.73C19.6,24.17,19.29,24.21,19.13,24.41Z"/><path class="cls-1" d="M32.73,7.26a.8.8,0,0,1-.45.57C32.14,7.48,32.37,7.39,32.73,7.26Z"/><path class="cls-1" d="M24.23,11.45a.49.49,0,0,1,.57-.57A.9.9,0,0,1,24.23,11.45Z"/><path class="cls-1" d="M21.44,26.22v.21h-.2a1.09,1.09,0,0,1,0-.18Z"/><path class="cls-1" d="M51.13,8.28l-.08.15c-.13-.15,0-.11.09-.14Z"/><path class="cls-1" d="M51.14,8.29a.19.19,0,0,1,.2-.2h0c0,.13-.07.19-.2.2Z"/><path class="cls-2" d="M37.55,8.27h-.19a.17.17,0,0,1,0-.2h0a.15.15,0,0,1,.21,0,.14.14,0,0,1,.05.13c0,.06,0,.08,0,.08Z"/><path class="cls-1" d="M37.39,8.08l0,.2C37.11,8.17,37.25,8.12,37.39,8.08Z"/><path class="cls-1" d="M38,8.08l-.21,0L37.7,8V7.92l.07-.09.11,0,.09.07Z"/><path class="cls-1" d="M37.59,8.08h-.22l.21-.2.08.05V8Z"/><path class="cls-1" d="M38,7.7l.14.06L38,7.88h0l-.09-.09Z"/><path class="cls-1" d="M37.58,7.89a.19.19,0,0,1,.21-.19.86.86,0,0,1,.07.1l-.08.09h0c-.07.09-.15.1-.22,0Z"/><path class="cls-1" d="M37.79,7.7l.12-.14L38,7.7v0c-.07.08-.14.08-.2,0Z"/><path class="cls-2" d="M36,4.86a.26.26,0,0,1-.17,0c-.06,0-.08-.07-.07-.11s0-.08,0-.08Z"/><path class="cls-1" d="M35.76,4.7c0,.07,0,.13.05.19h-.19C35.59,4.77,35.65,4.72,35.76,4.7Z"/><path class="cls-1" d="M59.32,27.85a1.82,1.82,0,0,1-1.85,1c.61-.64,1-1.45,2-1.38.06,0,.09.07.07.11s0,.07-.06.07h0A.56.56,0,0,0,59.32,27.85Z"/><path class="cls-1" d="M58.12,26.85l.37,0c-.26,1-1.05,1.46-2,2C56.88,27.91,57.66,27.5,58.12,26.85Z"/><path class="cls-1" d="M55.31,17.64c-.06.43-.4.65-.68.92a1.45,1.45,0,0,1-.18-.17,1.8,1.8,0,0,1,.88-.73Z"/><path class="cls-1" d="M56.08,19.28c0,.4-.16.5-.5.58A.91.91,0,0,1,56.08,19.28Z"/><path class="cls-2" d="M59.92,27.44l-.23.18a.13.13,0,0,1,0-.2h0a.15.15,0,0,1,.2,0Z"/><path class="cls-1" d="M59.72,27.42l0,.2-.17,0a1.15,1.15,0,0,1,0-.19Z"/><path class="cls-1" d="M59.32,27.85l.21-.22Z"/><path class="cls-1" d="M59.9,27.41l-.2,0,.19-.2A.37.37,0,0,1,59.9,27.41Z"/><path class="cls-1" d="M25.23,28.24l0-.24a3,3,0,0,1,1-.95C26.26,27.76,25.8,28.05,25.23,28.24Z"/><path class="cls-1" d="M33.81,27.83a.53.53,0,0,0,.18,0c.39.14.51-.31.81-.37,0,.57-.52.67-.82,1C33.67,28.29,33.83,28,33.81,27.83Z"/><path class="cls-1" d="M27.15,31.54l-1.08.76C26.28,31.68,26.28,31.68,27.15,31.54Z"/><path class="cls-1" d="M27,26.22,27,26c-.06-.35.3-.45.42-.69l.19-.16a.17.17,0,0,1,.21.06h0C27.81,25.74,27.66,26.17,27,26.22Z"/><path class="cls-1" d="M31.18,32.69a1.22,1.22,0,0,1-.3.27c-.14.07-.25,0-.26-.18s0-.36.22-.34S31.05,32.59,31.18,32.69Z"/><path class="cls-1" d="M54.73,11.27s0,.07,0,.09c-.2.22-.17.66-.59.67-.18,0-.18-.17-.17-.28.07-.49.43-.49.8-.46Z"/><path class="cls-1" d="M55.12,12.67l-.08.15c-.13-.15,0-.11.09-.14Z"/><path class="cls-1" d="M55.13,12.68c0-.13.07-.2.2-.2v0a.2.2,0,0,1-.2.21Z"/><path class="cls-1" d="M47.33,28.83v.58c-.34.11-.44.6-1,.56C46.48,29.38,47,29.14,47.33,28.83Z"/><path class="cls-2" d="M24.81,20.22a3.31,3.31,0,0,1-.18.31c-.33.24-.48.75-1,.69a.36.36,0,0,1-.17-.18A1.81,1.81,0,0,1,24.81,20.22Z"/><path class="cls-2" d="M25.82,20.25c0-.47.35-.68.63-.9s.34.1.4.3l0,.1,0,.1a1.09,1.09,0,0,1-.13.17l-.08.08-.15.15-.09.07a.7.7,0,0,1-.2.08.78.78,0,0,1-.22,0,.31.31,0,0,1-.1-.05Z"/><path class="cls-2" d="M26.65,17.49c-.16.78-.64,1-.95,1.28A1.93,1.93,0,0,1,26.65,17.49Z"/><path class="cls-1" d="M26,20.84l-.39.19-.07,0a.31.31,0,0,0-.17-.17l0-.07v-.19a.49.49,0,0,1,.53,0A.28.28,0,0,1,26,20.84Z"/><path class="cls-2" d="M26,20.64l-.59,0a.56.56,0,0,1,.39-.37h0a.62.62,0,0,0,.19.12l.08.08v.11Z"/><path class="cls-1" d="M26.81,19.85l0-.2.15.17,0,.06A.13.13,0,0,1,26.81,19.85Z"/><path class="cls-1" d="M22.83,42c-.08-.54.7-.64.59-1.18.5,0,.82-.37,1.19-.62l.23.23A13.77,13.77,0,0,0,22.83,42Z"/><path class="cls-2" d="M26.19,41.17v-.58c.35,0,.52-.73.83-.39s-.33.51-.51.77A.87.87,0,0,1,26.19,41.17Z"/><path class="cls-2" d="M27.17,41.83a.76.76,0,0,1-.71.71C26.54,42.08,26.71,41.88,27.17,41.83Z"/><path class="cls-2" d="M27.58,25.22c.15.53-.41.52-.6.8l-.39-.2a1.78,1.78,0,0,1,.83-.75A.19.19,0,0,1,27.58,25.22Z"/><path class="cls-1" d="M53.31,40.59l0,.6c-.17-.06-.47.11-.48-.14S53.09,40.68,53.31,40.59Z"/><path class="cls-1" d="M22.63,37.8h-.21a1.27,1.27,0,0,0,0-.2h.23A1.34,1.34,0,0,1,22.63,37.8Z"/><path class="cls-1" d="M37.59,21.06l.2,0v.21l-.2,0A.49.49,0,0,1,37.59,21.06Z"/><path class="cls-2" d="M27.58,25.22l-.16-.15.2,0a.86.86,0,0,0,.07.1l-.07.09Z"/><path class="cls-2" d="M27.62,25a.19.19,0,0,1,.2-.2l.06.1a.39.39,0,0,1-.08.1h0a.12.12,0,0,1-.2,0Z"/><path class="cls-2" d="M28,24.61v.24a.14.14,0,0,1-.2,0h0Z"/><path class="cls-2" d="M28.6,24l-.22.21Z"/><path class="cls-2" d="M26,20.84l0-.2h0l.11-.08.11.08a.92.92,0,0,0,0,.16l-.09,0Z"/><path class="cls-2" d="M25.41,20.88c.13,0,.19,0,.17.17Z"/><path class="cls-1" d="M48.75,40.41l.37,0a.9.9,0,0,1-.57.57C48.49,40.73,48.67,40.59,48.75,40.41Z"/><path class="cls-1" d="M32.38,4.31l0,.19h-.21Z"/><path class="cls-2" d="M26.43,20.46l-.2.19h0a.75.75,0,0,0-.07-.12l.07-.11.13,0Z"/><path class="cls-2" d="M26.61,20.24l0,.2-.21,0,0,0c0-.05-.07-.09,0-.13s0-.06.06-.06h0l.09-.07Z"/><path class="cls-1" d="M27.61,25h.2a1.34,1.34,0,0,1,0,.2h-.18C27.62,25.17,27.61,25.1,27.61,25Z"/><path class="cls-1" d="M27.8,24.83l.2,0-.2.19Z"/><path class="cls-1" d="M21.25,26.43v.2l-.2,0Z"/><path class="cls-2" d="M26.81,19.85l.21,0a1.23,1.23,0,0,1,0,.19l-.19,0a.61.61,0,0,0-.07-.1l.08-.1Z"/><path class="cls-1" d="M22.43,38l-.19,0,.19-.2Z"/><path class="cls-2" d="M26.81,20a1.21,1.21,0,0,1,0,.19h-.18a.13.13,0,0,1-.05-.14c0-.05,0-.07.05-.07h0a.15.15,0,0,1,.21,0Z"/><path class="cls-2" d="M37,51.93a2.35,2.35,0,0,1,1.24-1C38,51.56,37.7,51.93,37,51.93Z"/><path class="cls-2" d="M38.57,49.17l.73-.45c-.31.47-.27,1-.74,1-.22,0,.12-.34,0-.54Z"/><path class="cls-2" d="M35.21,51.76l-.24,0c0-.52.35-.65.82-.56v.14Z"/><path class="cls-2" d="M37.78,52.75a1.05,1.05,0,0,1,.56-.56c0,.42-.21.57-.57.55Z"/><path class="cls-2" d="M36.38,50.76c0-.06,0-.12,0-.18l.15.09Z"/><path class="cls-2" d="M36.18,51l.21-.22Z"/><path class="cls-2" d="M36,51.16l.21-.22Z"/><path class="cls-2" d="M35.79,51.32v-.14l.2,0C36,51.26,35.92,51.34,35.79,51.32Z"/><path class="cls-2" d="M39.55,52v.2l-.05.06h-.08l0-.06C39.38,52,39.43,52,39.55,52Z"/><path class="cls-2" d="M39.39,52.34l-.15-.06.15-.12,0,0,.09.09Z"/><path class="cls-2" d="M39.55,52.54H39.4v-.2h0l.09-.09.1.08Z"/><path class="cls-2" d="M39.56,52.16l.14.12-.14.06h0a.13.13,0,0,1-.06-.14s0-.07.06-.07Z"/><path class="cls-2" d="M39.78,40.38a.54.54,0,0,1-.61.61C39.34,40.75,39.33,40.33,39.78,40.38Z"/><path class="cls-2" d="M29.21,46.37H29l.19-.2Z"/><path class="cls-1" d="M37.61,8.29l0-.21h0a.13.13,0,0,1,.2,0l0,0Z"/><path class="cls-2" d="M37.77,8.07l-.2,0V7.88h.22C37.78,7.94,37.78,8,37.77,8.07Z"/><path class="cls-2" d="M37.78,7.68H38v.21h-.2Z"/><path class="cls-1" d="M26.42,20.24a1.23,1.23,0,0,1,0,.19l-.19,0c-.06-.05-.07-.1,0-.14a.08.08,0,0,1,.07,0Z"/><path class="cls-2" d="M26.24,20.26l0,.19h0a.12.12,0,0,1-.21,0h0a.13.13,0,0,1-.05-.12s0-.08,0-.08Z"/><path class="cls-1" d="M26,20.25l0,.2-.21-.21Z"/><path class="cls-1" d="M26.62,20v.21h-.21Z"/><path class="cls-1" d="M26.82,20.05h-.21l.21-.21Z"/><path class="cls-1" d="M26,20.44h.21c0,.07,0,.13,0,.2H26Z"/><path class="cls-1" d="M39.58,52.14v.21h-.21v-.21Z"/></svg>